<ttFont>
    <TTGlyph name="ampersand" xMin="74" yMin="-20" xMax="1501" yMax="1483">
      <contour>
        <pt x="1174" y="0" on="1"/>
        <pt x="1004" y="180" on="1"/>
        <pt x="967" y="138" on="0"/>
        <pt x="878" y="65" on="0"/>
        <pt x="770" y="11" on="0"/>
        <pt x="639" y="-20" on="0"/>
        <pt x="561" y="-20" on="1"/>
        <pt x="438" y="-20" on="0"/>
        <pt x="255" y="42" on="0"/>
        <pt x="134" y="155" on="0"/>
        <pt x="74" y="313" on="0"/>
        <pt x="74" y="410" on="1"/>
        <pt x="74" y="497" on="0"/>
        <pt x="121" y="626" on="0"/>
        <pt x="206" y="724" on="0"/>
        <pt x="327" y="798" on="0"/>
        <pt x="401" y="829" on="1"/>
        <pt x="362" y="875" on="0"/>
        <pt x="303" y="960" on="0"/>
        <pt x="264" y="1044" on="0"/>
        <pt x="244" y="1132" on="0"/>
        <pt x="244" y="1182" on="1"/>
        <pt x="244" y="1250" on="0"/>
        <pt x="288" y="1360" on="0"/>
        <pt x="382" y="1440" on="0"/>
        <pt x="529" y="1483" on="0"/>
        <pt x="631" y="1483" on="1"/>
        <pt x="729" y="1483" on="0"/>
        <pt x="867" y="1437" on="0"/>
        <pt x="954" y="1357" on="0"/>
        <pt x="993" y="1251" on="0"/>
        <pt x="993" y="1192" on="1"/>
        <pt x="993" y="1126" on="0"/>
        <pt x="955" y="1024" on="0"/>
        <pt x="872" y="938" on="0"/>
        <pt x="741" y="861" on="0"/>
        <pt x="647" y="821" on="1"/>
        <pt x="1020" y="426" on="1"/>
        <pt x="1034" y="472" on="0"/>
        <pt x="1052" y="567" on="0"/>
        <pt x="1063" y="658" on="0"/>
        <pt x="1067" y="745" on="0"/>
        <pt x="1067" y="782" on="1"/>
        <pt x="1067" y="862" on="1"/>
        <pt x="1436" y="862" on="1"/>
        <pt x="1436" y="776" on="1"/>
        <pt x="1417" y="776" on="1"/>
        <pt x="1383" y="776" on="0"/>
        <pt x="1317" y="768" on="0"/>
        <pt x="1260" y="739" on="0"/>
        <pt x="1215" y="684" on="0"/>
        <pt x="1202" y="637" on="1"/>
        <pt x="1184" y="571" on="0"/>
        <pt x="1137" y="417" on="0"/>
        <pt x="1102" y="340" on="1"/>
        <pt x="1292" y="137" on="1"/>
        <pt x="1307" y="122" on="0"/>
        <pt x="1339" y="102" on="0"/>
        <pt x="1382" y="90" on="0"/>
        <pt x="1441" y="86" on="0"/>
        <pt x="1483" y="86" on="1"/>
        <pt x="1501" y="86" on="1"/>
        <pt x="1501" y="0" on="1"/>
      </contour>
      <contour>
        <pt x="580" y="94" on="1"/>
        <pt x="640" y="94" on="0"/>
        <pt x="743" y="119" on="0"/>
        <pt x="829" y="163" on="0"/>
        <pt x="901" y="224" on="0"/>
        <pt x="930" y="260" on="1"/>
        <pt x="477" y="745" on="1"/>
        <pt x="430" y="719" on="0"/>
        <pt x="355" y="656" on="0"/>
        <pt x="302" y="573" on="0"/>
        <pt x="274" y="469" on="0"/>
        <pt x="274" y="403" on="1"/>
        <pt x="274" y="328" on="0"/>
        <pt x="318" y="213" on="0"/>
        <pt x="399" y="134" on="0"/>
        <pt x="511" y="94" on="0"/>
      </contour>
      <contour>
        <pt x="813" y="1190" on="1"/>
        <pt x="813" y="1231" on="0"/>
        <pt x="793" y="1301" on="0"/>
        <pt x="748" y="1352" on="0"/>
        <pt x="675" y="1382" on="0"/>
        <pt x="623" y="1382" on="1"/>
        <pt x="532" y="1382" on="0"/>
        <pt x="434" y="1276" on="0"/>
        <pt x="434" y="1188" on="1"/>
        <pt x="434" y="1149" on="0"/>
        <pt x="450" y="1081" on="0"/>
        <pt x="485" y="1014" on="0"/>
        <pt x="539" y="942" on="0"/>
        <pt x="578" y="899" on="1"/>
        <pt x="638" y="925" on="0"/>
        <pt x="727" y="983" on="0"/>
        <pt x="785" y="1052" on="0"/>
        <pt x="813" y="1136" on="0"/>
      </contour>
    </TTGlyph>
    <TTGlyph name="asciitilde" xMin="113" yMin="551" xMax="1034" yMax="909">
      <contour>
        <pt x="776" y="551" on="1"/>
        <pt x="746" y="551" on="0"/>
        <pt x="682" y="576" on="0"/>
        <pt x="619" y="614" on="0"/>
        <pt x="562" y="659" on="0"/>
        <pt x="539" y="680" on="1"/>
        <pt x="516" y="701" on="0"/>
        <pt x="472" y="740" on="0"/>
        <pt x="429" y="770" on="0"/>
        <pt x="385" y="788" on="0"/>
        <pt x="362" y="788" on="1"/>
        <pt x="302" y="788" on="0"/>
        <pt x="244" y="672" on="0"/>
        <pt x="233" y="551" on="1"/>
        <pt x="113" y="551" on="1"/>
        <pt x="119" y="615" on="0"/>
        <pt x="144" y="743" on="0"/>
        <pt x="200" y="845" on="0"/>
        <pt x="295" y="909" on="0"/>
        <pt x="371" y="909" on="1"/>
        <pt x="405" y="909" on="0"/>
        <pt x="473" y="883" on="0"/>
        <pt x="537" y="843" on="0"/>
        <pt x="594" y="795" on="0"/>
        <pt x="618" y="774" on="1"/>
        <pt x="640" y="754" on="0"/>
        <pt x="682" y="717" on="0"/>
        <pt x="723" y="689" on="0"/>
        <pt x="765" y="672" on="0"/>
        <pt x="786" y="672" on="1"/>
        <pt x="843" y="672" on="0"/>
        <pt x="897" y="795" on="0"/>
        <pt x="911" y="909" on="1"/>
        <pt x="1034" y="909" on="1"/>
        <pt x="1027" y="845" on="0"/>
        <pt x="999" y="717" on="0"/>
        <pt x="942" y="615" on="0"/>
        <pt x="849" y="551" on="0"/>
      </contour>
    </TTGlyph>
    <TTGlyph name="asterisk" xMin="84" yMin="774" xMax="928" yMax="1556">
      <contour>
        <pt x="84" y="1268" on="1"/>
        <pt x="156" y="1430" on="1"/>
        <pt x="471" y="1231" on="1"/>
        <pt x="418" y="1556" on="1"/>
        <pt x="596" y="1556" on="1"/>
        <pt x="539" y="1233" on="1"/>
        <pt x="856" y="1425" on="1"/>
        <pt x="928" y="1266" on="1"/>
        <pt x="582" y="1165" on="1"/>
        <pt x="928" y="1065" on="1"/>
        <pt x="856" y="907" on="1"/>
        <pt x="539" y="1098" on="1"/>
        <pt x="596" y="774" on="1"/>
        <pt x="418" y="774" on="1"/>
        <pt x="469" y="1098" on="1"/>
        <pt x="156" y="903" on="1"/>
        <pt x="84" y="1063" on="1"/>
        <pt x="428" y="1165" on="1"/>
      </contour>
    </TTGlyph>
    <TTGlyph name="at" xMin="133" yMin="-291" xMax="1778" yMax="1462">
      <contour>
        <pt x="1778" y="803" on="1"/>
        <pt x="1778" y="655" on="0"/>
        <pt x="1706" y="416" on="0"/>
        <pt x="1590" y="248" on="0"/>
        <pt x="1447" y="158" on="0"/>
        <pt x="1376" y="158" on="1"/>
        <pt x="1285" y="158" on="0"/>
        <pt x="1164" y="256" on="0"/>
        <pt x="1135" y="344" on="1"/>
        <pt x="1124" y="344" on="1"/>
        <pt x="1103" y="304" on="0"/>
        <pt x="1050" y="236" on="0"/>
        <pt x="983" y="186" on="0"/>
        <pt x="900" y="158" on="0"/>
        <pt x="848" y="158" on="1"/>
        <pt x="786" y="158" on="0"/>
        <pt x="673" y="200" on="0"/>
        <pt x="588" y="286" on="0"/>
        <pt x="537" y="418" on="0"/>
        <pt x="537" y="508" on="1"/>
        <pt x="537" y="563" on="0"/>
        <pt x="562" y="691" on="0"/>
        <pt x="615" y="818" on="0"/>
        <pt x="698" y="937" on="0"/>
        <pt x="814" y="1028" on="0"/>
        <pt x="965" y="1083" on="0"/>
        <pt x="1059" y="1083" on="1"/>
        <pt x="1125" y="1083" on="0"/>
        <pt x="1220" y="1047" on="0"/>
        <pt x="1251" y="1022" on="1"/>
        <pt x="1333" y="1065" on="1"/>
        <pt x="1382" y="1065" on="1"/>
        <pt x="1278" y="543" on="1"/>
        <pt x="1275" y="519" on="0"/>
        <pt x="1271" y="495" on="1"/>
        <pt x="1268" y="475" on="0"/>
        <pt x="1264" y="427" on="0"/>
        <pt x="1264" y="406" on="1"/>
        <pt x="1264" y="370" on="0"/>
        <pt x="1285" y="317" on="0"/>
        <pt x="1319" y="282" on="0"/>
        <pt x="1364" y="266" on="0"/>
        <pt x="1389" y="266" on="1"/>
        <pt x="1434" y="266" on="0"/>
        <pt x="1528" y="338" on="0"/>
        <pt x="1604" y="477" on="0"/>
        <pt x="1653" y="679" on="0"/>
        <pt x="1653" y="809" on="1"/>
        <pt x="1653" y="943" on="0"/>
        <pt x="1567" y="1148" on="0"/>
        <pt x="1414" y="1287" on="0"/>
        <pt x="1201" y="1358" on="0"/>
        <pt x="1073" y="1358" on="1"/>
        <pt x="973" y="1358" on="0"/>
        <pt x="780" y="1302" on="0"/>
        <pt x="608" y="1193" on="0"/>
        <pt x="461" y="1036" on="0"/>
        <pt x="355" y="835" on="0"/>
        <pt x="295" y="591" on="0"/>
        <pt x="295" y="451" on="1"/>
        <pt x="295" y="280" on="0"/>
        <pt x="393" y="39" on="0"/>
        <pt x="560" y="-114" on="0"/>
        <pt x="781" y="-184" on="0"/>
        <pt x="905" y="-184" on="1"/>
        <pt x="989" y="-184" on="0"/>
        <pt x="1139" y="-155" on="0"/>
        <pt x="1270" y="-107" on="0"/>
        <pt x="1381" y="-46" on="0"/>
        <pt x="1425" y="-14" on="1"/>
        <pt x="1473" y="-88" on="1"/>
        <pt x="1422" y="-126" on="0"/>
        <pt x="1296" y="-199" on="0"/>
        <pt x="1149" y="-256" on="0"/>
        <pt x="980" y="-291" on="0"/>
        <pt x="885" y="-291" on="1"/>
        <pt x="720" y="-291" on="0"/>
        <pt x="444" y="-200" on="0"/>
        <pt x="245" y="-16" on="0"/>
        <pt x="133" y="260" on="0"/>
        <pt x="133" y="446" on="1"/>
        <pt x="133" y="591" on="0"/>
        <pt x="196" y="854" on="0"/>
        <pt x="315" y="1080" on="0"/>
        <pt x="484" y="1263" on="0"/>
        <pt x="696" y="1392" on="0"/>
        <pt x="945" y="1462" on="0"/>
        <pt x="1085" y="1462" on="1"/>
        <pt x="1257" y="1462" on="0"/>
        <pt x="1517" y="1360" on="0"/>
        <pt x="1691" y="1183" on="0"/>
        <pt x="1778" y="942" on="0"/>
      </contour>
      <contour>
        <pt x="727" y="479" on="1"/>
        <pt x="727" y="371" on="0"/>
        <pt x="814" y="266" on="0"/>
        <pt x="883" y="266" on="1"/>
        <pt x="935" y="266" on="0"/>
        <pt x="1011" y="311" on="0"/>
        <pt x="1063" y="383" on="0"/>
        <pt x="1095" y="475" on="0"/>
        <pt x="1104" y="522" on="1"/>
        <pt x="1182" y="938" on="1"/>
        <pt x="1169" y="967" on="0"/>
        <pt x="1104" y="999" on="0"/>
        <pt x="1067" y="999" on="1"/>
        <pt x="1006" y="999" on="0"/>
        <pt x="907" y="946" on="0"/>
        <pt x="832" y="860" on="0"/>
        <pt x="778" y="749" on="0"/>
        <pt x="743" y="633" on="0"/>
        <pt x="727" y="523" on="0"/>
      </contour>
    </TTGlyph>
    <TTGlyph name="bar" xMin="510" yMin="-492" xMax="633" yMax="1556">
      <contour>
        <pt x="633" y="-492" on="1"/>
        <pt x="510" y="-492" on="1"/>
        <pt x="510" y="1556" on="1"/>
        <pt x="633" y="1556" on="1"/>
      </contour>
    </TTGlyph>
    <TTGlyph name="braceleft" xMin="102" yMin="-262" xMax="774" yMax="1556">
      <contour>
        <pt x="639" y="-262" on="1"/>
        <pt x="567" y="-262" on="0"/>
        <pt x="456" y="-220" on="0"/>
        <pt x="382" y="-144" on="0"/>
        <pt x="344" y="-35" on="0"/>
        <pt x="344" y="33" on="1"/>
        <pt x="344" y="389" on="1"/>
        <pt x="344" y="452" on="0"/>
        <pt x="307" y="534" on="0"/>
        <pt x="241" y="583" on="0"/>
        <pt x="153" y="604" on="0"/>
        <pt x="102" y="606" on="1"/>
        <pt x="102" y="692" on="1"/>
        <pt x="153" y="694" on="0"/>
        <pt x="241" y="714" on="0"/>
        <pt x="307" y="763" on="0"/>
        <pt x="344" y="845" on="0"/>
        <pt x="344" y="907" on="1"/>
        <pt x="344" y="1264" on="1"/>
        <pt x="344" y="1404" on="0"/>
        <pt x="493" y="1556" on="0"/>
        <pt x="639" y="1556" on="1"/>
        <pt x="774" y="1556" on="1"/>
        <pt x="774" y="1468" on="1"/>
        <pt x="713" y="1468" on="1"/>
        <pt x="622" y="1468" on="0"/>
        <pt x="545" y="1360" on="0"/>
        <pt x="545" y="1253" on="1"/>
        <pt x="545" y="903" on="1"/>
        <pt x="545" y="803" on="0"/>
        <pt x="432" y="670" on="0"/>
        <pt x="317" y="651" on="1"/>
        <pt x="317" y="649" on="1"/>
        <pt x="435" y="629" on="0"/>
        <pt x="545" y="497" on="0"/>
        <pt x="545" y="395" on="1"/>
        <pt x="545" y="41" on="1"/>
        <pt x="545" y="-64" on="0"/>
        <pt x="622" y="-174" on="0"/>
        <pt x="713" y="-174" on="1"/>
        <pt x="774" y="-174" on="1"/>
        <pt x="774" y="-262" on="1"/>
      </contour>
    </TTGlyph>
    <TTGlyph name="braceright" xMin="102" yMin="-262" xMax="774" yMax="1556">
      <contour>
        <pt x="102" y="-174" on="1"/>
        <pt x="164" y="-174" on="1"/>
        <pt x="255" y="-174" on="0"/>
        <pt x="332" y="-64" on="0"/>
        <pt x="332" y="41" on="1"/>
        <pt x="332" y="395" on="1"/>
        <pt x="332" y="497" on="0"/>
        <pt x="441" y="629" on="0"/>
        <pt x="559" y="649" on="1"/>
        <pt x="559" y="651" on="1"/>
        <pt x="445" y="670" on="0"/>
        <pt x="332" y="803" on="0"/>
        <pt x="332" y="903" on="1"/>
        <pt x="332" y="1253" on="1"/>
        <pt x="332" y="1360" on="0"/>
        <pt x="255" y="1468" on="0"/>
        <pt x="164" y="1468" on="1"/>
        <pt x="102" y="1468" on="1"/>
        <pt x="102" y="1556" on="1"/>
        <pt x="238" y="1556" on="1"/>
        <pt x="383" y="1556" on="0"/>
        <pt x="532" y="1404" on="0"/>
        <pt x="532" y="1264" on="1"/>
        <pt x="532" y="907" on="1"/>
        <pt x="532" y="845" on="0"/>
        <pt x="570" y="763" on="0"/>
        <pt x="635" y="714" on="0"/>
        <pt x="723" y="694" on="0"/>
        <pt x="774" y="692" on="1"/>
        <pt x="774" y="606" on="1"/>
        <pt x="723" y="604" on="0"/>
        <pt x="635" y="583" on="0"/>
        <pt x="570" y="534" on="0"/>
        <pt x="532" y="452" on="0"/>
        <pt x="532" y="389" on="1"/>
        <pt x="532" y="33" on="1"/>
        <pt x="532" y="-35" on="0"/>
        <pt x="494" y="-144" on="0"/>
        <pt x="420" y="-220" on="0"/>
        <pt x="310" y="-262" on="0"/>
        <pt x="238" y="-262" on="1"/>
        <pt x="102" y="-262" on="1"/>
      </contour>
    </TTGlyph>
    <TTGlyph name="colon" xMin="166" yMin="-14" xMax="424" yMax="1108">
      <contour>
        <pt x="166" y="125" on="1"/>
        <pt x="166" y="165" on="0"/>
        <pt x="186" y="218" on="0"/>
        <pt x="221" y="250" on="0"/>
        <pt x="268" y="264" on="0"/>
        <pt x="295" y="264" on="1"/>
        <pt x="321" y="264" on="0"/>
        <pt x="368" y="250" on="0"/>
        <pt x="403" y="218" on="0"/>
        <pt x="424" y="165" on="0"/>
        <pt x="424" y="125" on="1"/>
        <pt x="424" y="86" on="0"/>
        <pt x="403" y="32" on="0"/>
        <pt x="368" y="0" on="0"/>
        <pt x="321" y="-14" on="0"/>
        <pt x="295" y="-14" on="1"/>
        <pt x="268" y="-14" on="0"/>
        <pt x="221" y="0" on="0"/>
        <pt x="186" y="32" on="0"/>
        <pt x="166" y="86" on="0"/>
      </contour>
      <contour>
        <pt x="166" y="969" on="1"/>
        <pt x="166" y="1009" on="0"/>
        <pt x="186" y="1062" on="0"/>
        <pt x="221" y="1094" on="0"/>
        <pt x="268" y="1108" on="0"/>
        <pt x="295" y="1108" on="1"/>
        <pt x="321" y="1108" on="0"/>
        <pt x="368" y="1094" on="0"/>
        <pt x="403" y="1062" on="0"/>
        <pt x="424" y="1009" on="0"/>
        <pt x="424" y="969" on="1"/>
        <pt x="424" y="930" on="0"/>
        <pt x="403" y="876" on="0"/>
        <pt x="368" y="843" on="0"/>
        <pt x="321" y="829" on="0"/>
        <pt x="295" y="829" on="1"/>
        <pt x="268" y="829" on="0"/>
        <pt x="221" y="843" on="0"/>
        <pt x="186" y="876" on="0"/>
        <pt x="166" y="930" on="0"/>
      </contour>
    </TTGlyph>
    <TTGlyph name="comma" xMin="61" yMin="-315" xMax="397" yMax="264">
      <contour>
        <pt x="397" y="86" on="1"/>
        <pt x="397" y="21" on="0"/>
        <pt x="361" y="-101" on="0"/>
        <pt x="280" y="-205" on="0"/>
        <pt x="153" y="-288" on="0"/>
        <pt x="61" y="-315" on="1"/>
        <pt x="61" y="-229" on="1"/>
        <pt x="162" y="-197" on="0"/>
        <pt x="256" y="-105" on="0"/>
        <pt x="256" y="-45" on="1"/>
        <pt x="256" y="-25" on="0"/>
        <pt x="234" y="2" on="0"/>
        <pt x="200" y="23" on="0"/>
        <pt x="162" y="43" on="0"/>
        <pt x="128" y="71" on="0"/>
        <pt x="106" y="112" on="0"/>
        <pt x="106" y="143" on="1"/>
        <pt x="106" y="202" on="0"/>
        <pt x="183" y="264" on="0"/>
        <pt x="240" y="264" on="1"/>
        <pt x="272" y="264" on="0"/>
        <pt x="328" y="241" on="0"/>
        <pt x="372" y="196" on="0"/>
        <pt x="397" y="129" on="0"/>
      </contour>
    </TTGlyph>
    <TTGlyph name="dollar" xMin="135" yMin="-162" xMax="1001" yMax="1556">
      <contour>
        <pt x="621" y="1401" on="1"/>
        <pt x="713" y="1399" on="0"/>
        <pt x="842" y="1362" on="0"/>
        <pt x="924" y="1301" on="0"/>
        <pt x="961" y="1219" on="0"/>
        <pt x="961" y="1171" on="1"/>
        <pt x="961" y="1105" on="0"/>
        <pt x="873" y="1038" on="0"/>
        <pt x="799" y="1038" on="1"/>
        <pt x="799" y="1083" on="0"/>
        <pt x="784" y="1174" on="0"/>
        <pt x="745" y="1249" on="0"/>
        <pt x="675" y="1301" on="0"/>
        <pt x="621" y="1307" on="1"/>
        <pt x="621" y="829" on="1"/>
        <pt x="713" y="789" on="0"/>
        <pt x="855" y="709" on="0"/>
        <pt x="951" y="616" on="0"/>
        <pt x="1001" y="503" on="0"/>
        <pt x="1001" y="430" on="1"/>
        <pt x="1001" y="276" on="0"/>
        <pt x="803" y="105" on="0"/>
        <pt x="621" y="86" on="1"/>
        <pt x="621" y="-162" on="1"/>
        <pt x="518" y="-162" on="1"/>
        <pt x="518" y="82" on="1"/>
        <pt x="467" y="82" on="0"/>
        <pt x="363" y="91" on="0"/>
        <pt x="264" y="112" on="0"/>
        <pt x="173" y="144" on="0"/>
        <pt x="135" y="166" on="1"/>
        <pt x="135" y="481" on="1"/>
        <pt x="221" y="481" on="1"/>
        <pt x="221" y="424" on="0"/>
        <pt x="264" y="317" on="0"/>
        <pt x="343" y="232" on="0"/>
        <pt x="452" y="177" on="0"/>
        <pt x="518" y="172" on="1"/>
        <pt x="518" y="678" on="1"/>
        <pt x="422" y="721" on="0"/>
        <pt x="289" y="805" on="0"/>
        <pt x="207" y="898" on="0"/>
        <pt x="170" y="1006" on="0"/>
        <pt x="170" y="1073" on="1"/>
        <pt x="170" y="1142" on="0"/>
        <pt x="219" y="1254" on="0"/>
        <pt x="309" y="1337" on="0"/>
        <pt x="438" y="1388" on="0"/>
        <pt x="518" y="1397" on="1"/>
        <pt x="518" y="1556" on="1"/>
        <pt x="621" y="1556" on="1"/>
      </contour>
      <contour>
        <pt x="813" y="399" on="1"/>
        <pt x="813" y="440" on="0"/>
        <pt x="793" y="505" on="0"/>
        <pt x="747" y="561" on="0"/>
        <pt x="674" y="609" on="0"/>
        <pt x="621" y="633" on="1"/>
        <pt x="621" y="178" on="1"/>
        <pt x="713" y="194" on="0"/>
        <pt x="813" y="311" on="0"/>
      </contour>
      <contour>
        <pt x="354" y="1090" on="1"/>
        <pt x="354" y="1047" on="0"/>
        <pt x="375" y="982" on="0"/>
        <pt x="417" y="932" on="0"/>
        <pt x="478" y="892" on="0"/>
        <pt x="518" y="874" on="1"/>
        <pt x="518" y="1303" on="1"/>
        <pt x="478" y="1294" on="0"/>
        <pt x="416" y="1255" on="0"/>
        <pt x="375" y="1200" on="0"/>
        <pt x="354" y="1130" on="0"/>
      </contour>
    </TTGlyph>
    <TTGlyph name="eight" xMin="94" yMin="-20" xMax="1051" yMax="1483">
      <contour>
        <pt x="94" y="367" on="1"/>
        <pt x="94" y="441" on="0"/>
        <pt x="141" y="552" on="0"/>
        <pt x="225" y="639" on="0"/>
        <pt x="339" y="709" on="0"/>
        <pt x="406" y="741" on="1"/>
        <pt x="348" y="774" on="0"/>
        <pt x="250" y="851" on="0"/>
        <pt x="180" y="943" on="0"/>
        <pt x="141" y="1052" on="0"/>
        <pt x="141" y="1116" on="1"/>
        <pt x="141" y="1187" on="0"/>
        <pt x="191" y="1319" on="0"/>
        <pt x="297" y="1421" on="0"/>
        <pt x="466" y="1483" on="0"/>
        <pt x="584" y="1483" on="1"/>
        <pt x="680" y="1483" on="0"/>
        <pt x="830" y="1430" on="0"/>
        <pt x="933" y="1336" on="0"/>
        <pt x="987" y="1207" on="0"/>
        <pt x="987" y="1130" on="1"/>
        <pt x="987" y="1063" on="0"/>
        <pt x="947" y="961" on="0"/>
        <pt x="875" y="880" on="0"/>
        <pt x="773" y="815" on="0"/>
        <pt x="711" y="784" on="1"/>
        <pt x="787" y="748" on="0"/>
        <pt x="912" y="666" on="0"/>
        <pt x="1002" y="570" on="0"/>
        <pt x="1051" y="458" on="0"/>
        <pt x="1051" y="391" on="1"/>
        <pt x="1051" y="294" on="0"/>
        <pt x="981" y="141" on="0"/>
        <pt x="853" y="35" on="0"/>
        <pt x="671" y="-20" on="0"/>
        <pt x="559" y="-20" on="1"/>
        <pt x="444" y="-20" on="0"/>
        <pt x="270" y="40" on="0"/>
        <pt x="153" y="145" on="0"/>
        <pt x="94" y="286" on="0"/>
      </contour>
      <contour>
        <pt x="569" y="74" on="1"/>
        <pt x="636" y="74" on="0"/>
        <pt x="745" y="115" on="0"/>
        <pt x="822" y="187" on="0"/>
        <pt x="864" y="287" on="0"/>
        <pt x="864" y="346" on="1"/>
        <pt x="864" y="398" on="0"/>
        <pt x="826" y="487" on="0"/>
        <pt x="740" y="570" on="0"/>
        <pt x="603" y="649" on="0"/>
        <pt x="504" y="692" on="1"/>
        <pt x="407" y="640" on="0"/>
        <pt x="293" y="474" on="0"/>
        <pt x="293" y="358" on="1"/>
        <pt x="293" y="294" on="0"/>
        <pt x="328" y="190" on="0"/>
        <pt x="397" y="115" on="0"/>
        <pt x="501" y="74" on="0"/>
      </contour>
      <contour>
        <pt x="805" y="1135" on="1"/>
        <pt x="805" y="1182" on="0"/>
        <pt x="780" y="1272" on="0"/>
        <pt x="725" y="1343" on="0"/>
        <pt x="636" y="1386" on="0"/>
        <pt x="571" y="1386" on="1"/>
        <pt x="514" y="1386" on="0"/>
        <pt x="425" y="1349" on="0"/>
        <pt x="365" y="1284" on="0"/>
        <pt x="334" y="1194" on="0"/>
        <pt x="334" y="1141" on="1"/>
        <pt x="334" y="1086" on="0"/>
        <pt x="369" y="998" on="0"/>
        <pt x="438" y="926" on="0"/>
        <pt x="542" y="863" on="0"/>
        <pt x="610" y="831" on="1"/>
        <pt x="668" y="860" on="0"/>
        <pt x="743" y="921" on="0"/>
        <pt x="787" y="994" on="0"/>
        <pt x="805" y="1081" on="0"/>
      </contour>
    </TTGlyph>
    <TTGlyph name="equal" xMin="133" yMin="469" xMax="1012" yMax="993">
      <contour>
        <pt x="1012" y="590" on="1"/>
        <pt x="1012" y="469" on="1"/>
        <pt x="133" y="469" on="1"/>
        <pt x="133" y="590" on="1"/>
      </contour>
      <contour>
        <pt x="1012" y="993" on="1"/>
        <pt x="1012" y="872" on="1"/>
        <pt x="133" y="872" on="1"/>
        <pt x="133" y="993" on="1"/>
      </contour>
    </TTGlyph>
    <TTGlyph name="exclam" xMin="211" yMin="-14" xMax="469" yMax="1462">
      <contour>
        <pt x="221" y="1462" on="1"/>
        <pt x="459" y="1462" on="1"/>
        <pt x="387" y="412" on="1"/>
        <pt x="293" y="412" on="1"/>
      </contour>
      <contour>
        <pt x="211" y="125" on="1"/>
        <pt x="211" y="165" on="0"/>
        <pt x="231" y="218" on="0"/>
        <pt x="266" y="250" on="0"/>
        <pt x="313" y="264" on="0"/>
        <pt x="340" y="264" on="1"/>
        <pt x="366" y="264" on="0"/>
        <pt x="413" y="250" on="0"/>
        <pt x="448" y="218" on="0"/>
        <pt x="469" y="165" on="0"/>
        <pt x="469" y="125" on="1"/>
        <pt x="469" y="86" on="0"/>
        <pt x="448" y="32" on="0"/>
        <pt x="413" y="0" on="0"/>
        <pt x="366" y="-14" on="0"/>
        <pt x="340" y="-14" on="1"/>
        <pt x="313" y="-14" on="0"/>
        <pt x="266" y="0" on="0"/>
        <pt x="231" y="32" on="0"/>
        <pt x="211" y="86" on="0"/>
      </contour>
    </TTGlyph>
    <TTGlyph name="five" xMin="113" yMin="-20" xMax="995" yMax="1460">
      <contour>
        <pt x="489" y="100" on="1"/>
        <pt x="552" y="100" on="0"/>
        <pt x="659" y="135" on="0"/>
        <pt x="738" y="216" on="0"/>
        <pt x="782" y="349" on="0"/>
        <pt x="782" y="446" on="1"/>
        <pt x="782" y="527" on="0"/>
        <pt x="738" y="647" on="0"/>
        <pt x="656" y="727" on="0"/>
        <pt x="542" y="766" on="0"/>
        <pt x="471" y="766" on="1"/>
        <pt x="418" y="766" on="0"/>
        <pt x="341" y="758" on="0"/>
        <pt x="282" y="745" on="0"/>
        <pt x="238" y="729" on="0"/>
        <pt x="219" y="721" on="1"/>
        <pt x="170" y="735" on="1"/>
        <pt x="236" y="1460" on="1"/>
        <pt x="920" y="1460" on="1"/>
        <pt x="930" y="1151" on="1"/>
        <pt x="844" y="1151" on="1"/>
        <pt x="836" y="1212" on="1"/>
        <pt x="833" y="1234" on="0"/>
        <pt x="822" y="1265" on="0"/>
        <pt x="798" y="1286" on="0"/>
        <pt x="757" y="1296" on="0"/>
        <pt x="725" y="1296" on="1"/>
        <pt x="328" y="1296" on="1"/>
        <pt x="289" y="846" on="1"/>
        <pt x="320" y="857" on="0"/>
        <pt x="437" y="879" on="0"/>
        <pt x="528" y="879" on="1"/>
        <pt x="627" y="879" on="0"/>
        <pt x="798" y="825" on="0"/>
        <pt x="924" y="717" on="0"/>
        <pt x="995" y="554" on="0"/>
        <pt x="995" y="446" on="1"/>
        <pt x="995" y="342" on="0"/>
        <pt x="928" y="170" on="0"/>
        <pt x="801" y="47" on="0"/>
        <pt x="617" y="-20" on="0"/>
        <pt x="500" y="-20" on="1"/>
        <pt x="386" y="-20" on="0"/>
        <pt x="237" y="19" on="0"/>
        <pt x="149" y="79" on="0"/>
        <pt x="113" y="152" on="0"/>
        <pt x="113" y="186" on="1"/>
        <pt x="113" y="243" on="0"/>
        <pt x="176" y="307" on="0"/>
        <pt x="242" y="307" on="1"/>
        <pt x="242" y="263" on="0"/>
        <pt x="273" y="187" on="0"/>
        <pt x="334" y="132" on="0"/>
        <pt x="427" y="100" on="0"/>
      </contour>
    </TTGlyph>
    <TTGlyph name="four" xMin="35" yMin="0" xMax="1116" yMax="1462">
      <contour>
        <pt x="862" y="401" on="1"/>
        <pt x="862" y="233" on="1"/>
        <pt x="862" y="185" on="0"/>
        <pt x="889" y="127" on="0"/>
        <pt x="934" y="96" on="0"/>
        <pt x="996" y="86" on="0"/>
        <pt x="1030" y="86" on="1"/>
        <pt x="1057" y="86" on="1"/>
        <pt x="1057" y="0" on="1"/>
        <pt x="440" y="0" on="1"/>
        <pt x="440" y="86" on="1"/>
        <pt x="498" y="86" on="1"/>
        <pt x="533" y="86" on="0"/>
        <pt x="594" y="96" on="0"/>
        <pt x="639" y="127" on="0"/>
        <pt x="666" y="185" on="0"/>
        <pt x="666" y="233" on="1"/>
        <pt x="666" y="401" on="1"/>
        <pt x="35" y="401" on="1"/>
        <pt x="35" y="485" on="1"/>
        <pt x="668" y="1462" on="1"/>
        <pt x="862" y="1462" on="1"/>
        <pt x="862" y="516" on="1"/>
        <pt x="1116" y="516" on="1"/>
        <pt x="1116" y="401" on="1"/>
      </contour>
      <contour>
        <pt x="666" y="895" on="1"/>
        <pt x="666" y="940" on="0"/>
        <pt x="668" y="1048" on="0"/>
        <pt x="671" y="1160" on="0"/>
        <pt x="676" y="1271" on="0"/>
        <pt x="680" y="1319" on="1"/>
        <pt x="673" y="1305" on="0"/>
        <pt x="647" y="1258" on="0"/>
        <pt x="614" y="1200" on="0"/>
        <pt x="577" y="1136" on="0"/>
        <pt x="540" y="1075" on="0"/>
        <pt x="508" y="1022" on="0"/>
        <pt x="496" y="1004" on="1"/>
        <pt x="182" y="516" on="1"/>
        <pt x="666" y="516" on="1"/>
      </contour>
    </TTGlyph>
    <TTGlyph name="greater" xMin="133" yMin="225" xMax="1012" yMax="1241">
      <contour>
        <pt x="133" y="225" on="1"/>
        <pt x="133" y="362" on="1"/>
        <pt x="821" y="731" on="1"/>
        <pt x="133" y="1104" on="1"/>
        <pt x="133" y="1241" on="1"/>
        <pt x="1012" y="768" on="1"/>
        <pt x="1012" y="696" on="1"/>
      </contour>
    </TTGlyph>
    <TTGlyph name="guillemotleft" xMin="133" yMin="164" xMax="920" yMax="942">
      <contour>
        <pt x="133" y="586" on="1"/>
        <pt x="446" y="942" on="1"/>
        <pt x="549" y="942" on="1"/>
        <pt x="342" y="553" on="1"/>
        <pt x="549" y="164" on="1"/>
        <pt x="446" y="164" on="1"/>
        <pt x="133" y="520" on="1"/>
      </contour>
      <contour>
        <pt x="504" y="586" on="1"/>
        <pt x="817" y="942" on="1"/>
        <pt x="920" y="942" on="1"/>
        <pt x="713" y="553" on="1"/>
        <pt x="920" y="164" on="1"/>
        <pt x="817" y="164" on="1"/>
        <pt x="504" y="520" on="1"/>
      </contour>
    </TTGlyph>
    <TTGlyph name="guillemotright" xMin="133" yMin="164" xMax="920" yMax="942">
      <contour>
        <pt x="920" y="520" on="1"/>
        <pt x="606" y="164" on="1"/>
        <pt x="504" y="164" on="1"/>
        <pt x="711" y="553" on="1"/>
        <pt x="504" y="942" on="1"/>
        <pt x="606" y="942" on="1"/>
        <pt x="920" y="586" on="1"/>
      </contour>
      <contour>
        <pt x="549" y="520" on="1"/>
        <pt x="236" y="164" on="1"/>
        <pt x="133" y="164" on="1"/>
        <pt x="340" y="553" on="1"/>
        <pt x="133" y="942" on="1"/>
        <pt x="236" y="942" on="1"/>
        <pt x="549" y="586" on="1"/>
      </contour>
    </TTGlyph>
    <TTGlyph name="hyphen" xMin="51" yMin="481" xMax="584" yMax="635">
      <contour>
        <pt x="51" y="481" on="1"/>
        <pt x="51" y="635" on="1"/>
        <pt x="584" y="635" on="1"/>
        <pt x="584" y="481" on="1"/>
      </contour>
    </TTGlyph>
    <TTGlyph name="less" xMin="133" yMin="225" xMax="1012" yMax="1241">
      <contour>
        <pt x="133" y="696" on="1"/>
        <pt x="133" y="768" on="1"/>
        <pt x="1012" y="1241" on="1"/>
        <pt x="1012" y="1104" on="1"/>
        <pt x="324" y="731" on="1"/>
        <pt x="1012" y="362" on="1"/>
        <pt x="1012" y="225" on="1"/>
      </contour>
    </TTGlyph>
    <TTGlyph name="nine" xMin="104" yMin="-23" xMax="1020" yMax="1483">
      <contour>
        <pt x="467" y="90" on="1"/>
        <pt x="637" y="90" on="0"/>
        <pt x="799" y="394" on="0"/>
        <pt x="809" y="702" on="1"/>
        <pt x="787" y="675" on="0"/>
        <pt x="728" y="625" on="0"/>
        <pt x="653" y="586" on="0"/>
        <pt x="562" y="563" on="0"/>
        <pt x="508" y="563" on="1"/>
        <pt x="419" y="563" on="0"/>
        <pt x="270" y="615" on="0"/>
        <pt x="163" y="719" on="0"/>
        <pt x="104" y="875" on="0"/>
        <pt x="104" y="979" on="1"/>
        <pt x="104" y="1090" on="0"/>
        <pt x="164" y="1275" on="0"/>
        <pt x="277" y="1408" on="0"/>
        <pt x="440" y="1483" on="0"/>
        <pt x="543" y="1483" on="1"/>
        <pt x="647" y="1483" on="0"/>
        <pt x="821" y="1403" on="0"/>
        <pt x="949" y="1235" on="0"/>
        <pt x="1020" y="975" on="0"/>
        <pt x="1020" y="795" on="1"/>
        <pt x="1020" y="688" on="0"/>
        <pt x="993" y="483" on="0"/>
        <pt x="936" y="301" on="0"/>
        <pt x="847" y="149" on="0"/>
        <pt x="724" y="38" on="0"/>
        <pt x="564" y="-23" on="0"/>
        <pt x="465" y="-23" on="1"/>
        <pt x="378" y="-23" on="0"/>
        <pt x="263" y="8" on="0"/>
        <pt x="196" y="58" on="0"/>
        <pt x="168" y="122" on="0"/>
        <pt x="168" y="154" on="1"/>
        <pt x="168" y="192" on="0"/>
        <pt x="206" y="244" on="0"/>
        <pt x="229" y="252" on="1"/>
        <pt x="243" y="220" on="0"/>
        <pt x="284" y="161" on="0"/>
        <pt x="343" y="116" on="0"/>
        <pt x="419" y="90" on="0"/>
      </contour>
      <contour>
        <pt x="553" y="684" on="1"/>
        <pt x="603" y="685" on="0"/>
        <pt x="686" y="712" on="0"/>
        <pt x="750" y="757" on="0"/>
        <pt x="797" y="817" on="0"/>
        <pt x="811" y="850" on="1"/>
        <pt x="811" y="854" on="1"/>
        <pt x="809" y="989" on="0"/>
        <pt x="769" y="1184" on="0"/>
        <pt x="699" y="1310" on="0"/>
        <pt x="602" y="1370" on="0"/>
        <pt x="543" y="1370" on="1"/>
        <pt x="434" y="1370" on="0"/>
        <pt x="315" y="1180" on="0"/>
        <pt x="315" y="999" on="1"/>
        <pt x="315" y="915" on="0"/>
        <pt x="345" y="795" on="0"/>
        <pt x="405" y="719" on="0"/>
        <pt x="494" y="684" on="0"/>
      </contour>
    </TTGlyph>
    <TTGlyph name="numbersign" xMin="82" yMin="0" xMax="1063" yMax="1462">
      <contour>
        <pt x="397" y="537" on="1"/>
        <pt x="682" y="537" on="1"/>
        <pt x="758" y="938" on="1"/>
        <pt x="473" y="938" on="1"/>
      </contour>
      <contour>
        <pt x="1038" y="537" on="1"/>
        <pt x="1038" y="416" on="1"/>
        <pt x="780" y="416" on="1"/>
        <pt x="702" y="0" on="1"/>
        <pt x="580" y="0" on="1"/>
        <pt x="657" y="416" on="1"/>
        <pt x="373" y="416" on="1"/>
        <pt x="295" y="0" on="1"/>
        <pt x="172" y="0" on="1"/>
        <pt x="250" y="416" on="1"/>
        <pt x="82" y="416" on="1"/>
        <pt x="82" y="537" on="1"/>
        <pt x="272" y="537" on="1"/>
        <pt x="350" y="938" on="1"/>
        <pt x="106" y="938" on="1"/>
        <pt x="106" y="1059" on="1"/>
        <pt x="373" y="1059" on="1"/>
        <pt x="446" y="1462" on="1"/>
        <pt x="571" y="1462" on="1"/>
        <pt x="496" y="1059" on="1"/>
        <pt x="780" y="1059" on="1"/>
        <pt x="856" y="1462" on="1"/>
        <pt x="979" y="1462" on="1"/>
        <pt x="903" y="1059" on="1"/>
        <pt x="1063" y="1059" on="1"/>
        <pt x="1063" y="938" on="1"/>
        <pt x="881" y="938" on="1"/>
        <pt x="805" y="537" on="1"/>
      </contour>
    </TTGlyph>
    <TTGlyph name="one" xMin="135" yMin="0" xMax="977" yMax="1470">
      <contour>
        <pt x="197" y="0" on="1"/>
        <pt x="197" y="86" on="1"/>
        <pt x="334" y="86" on="1"/>
        <pt x="369" y="86" on="0"/>
        <pt x="430" y="96" on="0"/>
        <pt x="475" y="127" on="0"/>
        <pt x="502" y="185" on="0"/>
        <pt x="502" y="233" on="1"/>
        <pt x="502" y="1309" on="1"/>
        <pt x="463" y="1261" on="0"/>
        <pt x="393" y="1183" on="0"/>
        <pt x="329" y="1127" on="0"/>
        <pt x="268" y="1096" on="0"/>
        <pt x="238" y="1096" on="1"/>
        <pt x="193" y="1096" on="0"/>
        <pt x="135" y="1157" on="0"/>
        <pt x="135" y="1206" on="1"/>
        <pt x="166" y="1214" on="0"/>
        <pt x="229" y="1237" on="0"/>
        <pt x="300" y="1274" on="0"/>
        <pt x="383" y="1327" on="0"/>
        <pt x="434" y="1364" on="1"/>
        <pt x="578" y="1470" on="1"/>
        <pt x="709" y="1470" on="1"/>
        <pt x="709" y="233" on="1"/>
        <pt x="709" y="185" on="0"/>
        <pt x="735" y="127" on="0"/>
        <pt x="781" y="96" on="0"/>
        <pt x="842" y="86" on="0"/>
        <pt x="877" y="86" on="1"/>
        <pt x="977" y="86" on="1"/>
        <pt x="977" y="0" on="1"/>
      </contour>
    </TTGlyph>
    <TTGlyph name="parenleft" xMin="117" yMin="-262" xMax="643" yMax="1556">
      <contour>
        <pt x="330" y="649" on="1"/>
        <pt x="330" y="527" on="0"/>
        <pt x="349" y="289" on="0"/>
        <pt x="413" y="76" on="0"/>
        <pt x="538" y="-104" on="0"/>
        <pt x="643" y="-168" on="1"/>
        <pt x="643" y="-262" on="1"/>
        <pt x="502" y="-206" on="0"/>
        <pt x="302" y="-46" on="0"/>
        <pt x="175" y="175" on="0"/>
        <pt x="117" y="464" on="0"/>
        <pt x="117" y="649" on="1"/>
        <pt x="117" y="834" on="0"/>
        <pt x="175" y="1121" on="0"/>
        <pt x="302" y="1341" on="0"/>
        <pt x="502" y="1500" on="0"/>
        <pt x="643" y="1556" on="1"/>
        <pt x="643" y="1464" on="1"/>
        <pt x="538" y="1400" on="0"/>
        <pt x="413" y="1221" on="0"/>
        <pt x="349" y="1009" on="0"/>
        <pt x="330" y="771" on="0"/>
      </contour>
    </TTGlyph>
    <TTGlyph name="parenright" xMin="66" yMin="-262" xMax="592" yMax="1556">
      <contour>
        <pt x="379" y="649" on="1"/>
        <pt x="379" y="771" on="0"/>
        <pt x="360" y="1009" on="0"/>
        <pt x="295" y="1221" on="0"/>
        <pt x="171" y="1400" on="0"/>
        <pt x="66" y="1464" on="1"/>
        <pt x="66" y="1556" on="1"/>
        <pt x="207" y="1500" on="0"/>
        <pt x="407" y="1341" on="0"/>
        <pt x="533" y="1121" on="0"/>
        <pt x="592" y="834" on="0"/>
        <pt x="592" y="649" on="1"/>
        <pt x="592" y="464" on="0"/>
        <pt x="533" y="175" on="0"/>
        <pt x="407" y="-46" on="0"/>
        <pt x="207" y="-206" on="0"/>
        <pt x="66" y="-262" on="1"/>
        <pt x="66" y="-168" on="1"/>
        <pt x="171" y="-104" on="0"/>
        <pt x="295" y="76" on="0"/>
        <pt x="360" y="289" on="0"/>
        <pt x="379" y="527" on="0"/>
      </contour>
    </TTGlyph>
    <TTGlyph name="percent" xMin="92" yMin="-20" xMax="1743" yMax="1483">
      <contour>
        <pt x="764" y="1030" on="1"/>
        <pt x="764" y="927" on="0"/>
        <pt x="722" y="759" on="0"/>
        <pt x="638" y="639" on="0"/>
        <pt x="512" y="573" on="0"/>
        <pt x="428" y="573" on="1"/>
        <pt x="340" y="573" on="0"/>
        <pt x="213" y="639" on="0"/>
        <pt x="131" y="759" on="0"/>
        <pt x="92" y="927" on="0"/>
        <pt x="92" y="1030" on="1"/>
        <pt x="92" y="1133" on="0"/>
        <pt x="131" y="1300" on="0"/>
        <pt x="213" y="1419" on="0"/>
        <pt x="341" y="1483" on="0"/>
        <pt x="430" y="1483" on="1"/>
        <pt x="514" y="1483" on="0"/>
        <pt x="639" y="1419" on="0"/>
        <pt x="722" y="1300" on="0"/>
        <pt x="764" y="1133" on="0"/>
      </contour>
      <contour>
        <pt x="276" y="1030" on="1"/>
        <pt x="276" y="942" on="0"/>
        <pt x="292" y="803" on="0"/>
        <pt x="328" y="707" on="0"/>
        <pt x="386" y="657" on="0"/>
        <pt x="428" y="657" on="1"/>
        <pt x="470" y="657" on="0"/>
        <pt x="528" y="707" on="0"/>
        <pt x="563" y="803" on="0"/>
        <pt x="578" y="942" on="0"/>
        <pt x="578" y="1030" on="1"/>
        <pt x="578" y="1117" on="0"/>
        <pt x="563" y="1253" on="0"/>
        <pt x="528" y="1348" on="0"/>
        <pt x="472" y="1397" on="0"/>
        <pt x="430" y="1397" on="1"/>
        <pt x="388" y="1397" on="0"/>
        <pt x="329" y="1348" on="0"/>
        <pt x="292" y="1253" on="0"/>
        <pt x="276" y="1117" on="0"/>
      </contour>
      <contour>
        <pt x="1743" y="436" on="1"/>
        <pt x="1743" y="333" on="0"/>
        <pt x="1701" y="165" on="0"/>
        <pt x="1617" y="45" on="0"/>
        <pt x="1491" y="-20" on="0"/>
        <pt x="1407" y="-20" on="1"/>
        <pt x="1319" y="-20" on="0"/>
        <pt x="1191" y="45" on="0"/>
        <pt x="1110" y="165" on="0"/>
        <pt x="1071" y="333" on="0"/>
        <pt x="1071" y="436" on="1"/>
        <pt x="1071" y="539" on="0"/>
        <pt x="1110" y="706" on="0"/>
        <pt x="1192" y="825" on="0"/>
        <pt x="1320" y="889" on="0"/>
        <pt x="1409" y="889" on="1"/>
        <pt x="1493" y="889" on="0"/>
        <pt x="1618" y="825" on="0"/>
        <pt x="1701" y="706" on="0"/>
        <pt x="1743" y="539" on="0"/>
      </contour>
      <contour>
        <pt x="1255" y="436" on="1"/>
        <pt x="1255" y="348" on="0"/>
        <pt x="1271" y="209" on="0"/>
        <pt x="1307" y="113" on="0"/>
        <pt x="1365" y="63" on="0"/>
        <pt x="1407" y="63" on="1"/>
        <pt x="1449" y="63" on="0"/>
        <pt x="1507" y="113" on="0"/>
        <pt x="1541" y="209" on="0"/>
        <pt x="1556" y="348" on="0"/>
        <pt x="1556" y="436" on="1"/>
        <pt x="1556" y="523" on="0"/>
        <pt x="1541" y="659" on="0"/>
        <pt x="1507" y="754" on="0"/>
        <pt x="1451" y="803" on="0"/>
        <pt x="1409" y="803" on="1"/>
        <pt x="1367" y="803" on="0"/>
        <pt x="1308" y="754" on="0"/>
        <pt x="1271" y="659" on="0"/>
        <pt x="1255" y="523" on="0"/>
      </contour>
      <contour>
        <pt x="616" y="0" on="1"/>
        <pt x="481" y="0" on="1"/>
        <pt x="1212" y="1462" on="1"/>
        <pt x="1346" y="1462" on="1"/>
      </contour>
    </TTGlyph>
    <TTGlyph name="period" xMin="164" yMin="-14" xMax="422" yMax="264">
      <contour>
        <pt x="164" y="125" on="1"/>
        <pt x="164" y="165" on="0"/>
        <pt x="184" y="218" on="0"/>
        <pt x="219" y="250" on="0"/>
        <pt x="266" y="264" on="0"/>
        <pt x="293" y="264" on="1"/>
        <pt x="319" y="264" on="0"/>
        <pt x="366" y="250" on="0"/>
        <pt x="401" y="218" on="0"/>
        <pt x="422" y="165" on="0"/>
        <pt x="422" y="125" on="1"/>
        <pt x="422" y="86" on="0"/>
        <pt x="401" y="32" on="0"/>
        <pt x="366" y="0" on="0"/>
        <pt x="319" y="-14" on="0"/>
        <pt x="293" y="-14" on="1"/>
        <pt x="266" y="-14" on="0"/>
        <pt x="219" y="0" on="0"/>
        <pt x="184" y="32" on="0"/>
        <pt x="164" y="86" on="0"/>
      </contour>
    </TTGlyph>
    <TTGlyph name="plus" xMin="133" yMin="293" xMax="1012" yMax="1171">
      <contour>
        <pt x="633" y="672" on="1"/>
        <pt x="633" y="293" on="1"/>
        <pt x="510" y="293" on="1"/>
        <pt x="510" y="672" on="1"/>
        <pt x="133" y="672" on="1"/>
        <pt x="133" y="793" on="1"/>
        <pt x="510" y="793" on="1"/>
        <pt x="510" y="1171" on="1"/>
        <pt x="633" y="1171" on="1"/>
        <pt x="633" y="793" on="1"/>
        <pt x="1012" y="793" on="1"/>
        <pt x="1012" y="672" on="1"/>
      </contour>
    </TTGlyph>
    <TTGlyph name="question" xMin="88" yMin="-14" xMax="920" yMax="1483">
      <contour>
        <pt x="522" y="412" on="1"/>
        <pt x="397" y="412" on="1"/>
        <pt x="397" y="723" on="1"/>
        <pt x="486" y="759" on="0"/>
        <pt x="607" y="854" on="0"/>
        <pt x="680" y="965" on="0"/>
        <pt x="711" y="1086" on="0"/>
        <pt x="711" y="1147" on="1"/>
        <pt x="711" y="1200" on="0"/>
        <pt x="685" y="1287" on="0"/>
        <pt x="631" y="1348" on="0"/>
        <pt x="546" y="1382" on="0"/>
        <pt x="487" y="1382" on="1"/>
        <pt x="423" y="1382" on="0"/>
        <pt x="336" y="1340" on="0"/>
        <pt x="282" y="1268" on="0"/>
        <pt x="258" y="1173" on="0"/>
        <pt x="258" y="1120" on="1"/>
        <pt x="221" y="1120" on="0"/>
        <pt x="159" y="1137" on="0"/>
        <pt x="114" y="1170" on="0"/>
        <pt x="88" y="1220" on="0"/>
        <pt x="88" y="1253" on="1"/>
        <pt x="88" y="1302" on="0"/>
        <pt x="133" y="1386" on="0"/>
        <pt x="228" y="1448" on="0"/>
        <pt x="372" y="1483" on="0"/>
        <pt x="471" y="1483" on="1"/>
        <pt x="568" y="1483" on="0"/>
        <pt x="732" y="1433" on="0"/>
        <pt x="852" y="1338" on="0"/>
        <pt x="920" y="1200" on="0"/>
        <pt x="920" y="1112" on="1"/>
        <pt x="920" y="1028" on="0"/>
        <pt x="867" y="890" on="0"/>
        <pt x="765" y="776" on="0"/>
        <pt x="617" y="682" on="0"/>
        <pt x="522" y="643" on="1"/>
      </contour>
      <contour>
        <pt x="328" y="125" on="1"/>
        <pt x="328" y="165" on="0"/>
        <pt x="348" y="218" on="0"/>
        <pt x="383" y="250" on="0"/>
        <pt x="430" y="264" on="0"/>
        <pt x="457" y="264" on="1"/>
        <pt x="483" y="264" on="0"/>
        <pt x="530" y="250" on="0"/>
        <pt x="565" y="218" on="0"/>
        <pt x="586" y="165" on="0"/>
        <pt x="586" y="125" on="1"/>
        <pt x="586" y="86" on="0"/>
        <pt x="565" y="32" on="0"/>
        <pt x="530" y="0" on="0"/>
        <pt x="483" y="-14" on="0"/>
        <pt x="457" y="-14" on="1"/>
        <pt x="430" y="-14" on="0"/>
        <pt x="383" y="0" on="0"/>
        <pt x="348" y="32" on="0"/>
        <pt x="328" y="86" on="0"/>
      </contour>
    </TTGlyph>
    <TTGlyph name="quotedbl" xMin="117" yMin="981" xMax="719" yMax="1462">
      <contour>
        <pt x="502" y="1462" on="1"/>
        <pt x="719" y="1462" on="1"/>
        <pt x="657" y="981" on="1"/>
        <pt x="563" y="981" on="1"/>
      </contour>
      <contour>
        <pt x="117" y="1462" on="1"/>
        <pt x="334" y="1462" on="1"/>
        <pt x="272" y="981" on="1"/>
        <pt x="178" y="981" on="1"/>
      </contour>
    </TTGlyph>
    <TTGlyph name="quotesingle" xMin="117" yMin="981" xMax="334" yMax="1462">
      <contour>
        <pt x="117" y="1462" on="1"/>
        <pt x="334" y="1462" on="1"/>
        <pt x="272" y="981" on="1"/>
        <pt x="178" y="981" on="1"/>
      </contour>
    </TTGlyph>
    <TTGlyph name="semicolon" xMin="61" yMin="-315" xMax="397" yMax="1108">
      <contour>
        <pt x="397" y="86" on="1"/>
        <pt x="397" y="21" on="0"/>
        <pt x="361" y="-101" on="0"/>
        <pt x="280" y="-205" on="0"/>
        <pt x="153" y="-288" on="0"/>
        <pt x="61" y="-315" on="1"/>
        <pt x="61" y="-229" on="1"/>
        <pt x="162" y="-197" on="0"/>
        <pt x="256" y="-105" on="0"/>
        <pt x="256" y="-45" on="1"/>
        <pt x="256" y="-25" on="0"/>
        <pt x="234" y="2" on="0"/>
        <pt x="200" y="23" on="0"/>
        <pt x="162" y="43" on="0"/>
        <pt x="128" y="71" on="0"/>
        <pt x="106" y="112" on="0"/>
        <pt x="106" y="143" on="1"/>
        <pt x="106" y="202" on="0"/>
        <pt x="183" y="264" on="0"/>
        <pt x="240" y="264" on="1"/>
        <pt x="272" y="264" on="0"/>
        <pt x="328" y="241" on="0"/>
        <pt x="372" y="196" on="0"/>
        <pt x="397" y="129" on="0"/>
      </contour>
      <contour>
        <pt x="129" y="969" on="1"/>
        <pt x="129" y="1009" on="0"/>
        <pt x="149" y="1062" on="0"/>
        <pt x="184" y="1094" on="0"/>
        <pt x="231" y="1108" on="0"/>
        <pt x="258" y="1108" on="1"/>
        <pt x="284" y="1108" on="0"/>
        <pt x="331" y="1094" on="0"/>
        <pt x="366" y="1062" on="0"/>
        <pt x="387" y="1009" on="0"/>
        <pt x="387" y="969" on="1"/>
        <pt x="387" y="930" on="0"/>
        <pt x="366" y="876" on="0"/>
        <pt x="331" y="843" on="0"/>
        <pt x="284" y="829" on="0"/>
        <pt x="258" y="829" on="1"/>
        <pt x="231" y="829" on="0"/>
        <pt x="184" y="843" on="0"/>
        <pt x="149" y="876" on="0"/>
        <pt x="129" y="930" on="0"/>
      </contour>
    </TTGlyph>
    <TTGlyph name="seven" xMin="121" yMin="0" xMax="1047" yMax="1460">
      <contour>
        <pt x="389" y="0" on="1"/>
        <pt x="872" y="1296" on="1"/>
        <pt x="334" y="1296" on="1"/>
        <pt x="224" y="1296" on="0"/>
        <pt x="215" y="1192" on="1"/>
        <pt x="207" y="1090" on="1"/>
        <pt x="121" y="1090" on="1"/>
        <pt x="131" y="1460" on="1"/>
        <pt x="1047" y="1460" on="1"/>
        <pt x="1047" y="1401" on="1"/>
        <pt x="543" y="0" on="1"/>
      </contour>
    </TTGlyph>
    <TTGlyph name="six" xMin="125" yMin="-20" xMax="1040" yMax="1483">
      <contour>
        <pt x="659" y="1384" on="1"/>
        <pt x="505" y="1384" on="0"/>
        <pt x="347" y="1081" on="0"/>
        <pt x="336" y="782" on="1"/>
        <pt x="361" y="803" on="0"/>
        <pt x="422" y="842" on="0"/>
        <pt x="494" y="871" on="0"/>
        <pt x="579" y="889" on="0"/>
        <pt x="629" y="889" on="1"/>
        <pt x="723" y="889" on="0"/>
        <pt x="875" y="831" on="0"/>
        <pt x="982" y="723" on="0"/>
        <pt x="1040" y="567" on="0"/>
        <pt x="1040" y="469" on="1"/>
        <pt x="1040" y="361" on="0"/>
        <pt x="981" y="181" on="0"/>
        <pt x="868" y="52" on="0"/>
        <pt x="705" y="-20" on="0"/>
        <pt x="600" y="-20" on="1"/>
        <pt x="498" y="-20" on="0"/>
        <pt x="324" y="65" on="0"/>
        <pt x="197" y="248" on="0"/>
        <pt x="125" y="535" on="0"/>
        <pt x="125" y="737" on="1"/>
        <pt x="125" y="834" on="0"/>
        <pt x="154" y="1020" on="0"/>
        <pt x="212" y="1186" on="0"/>
        <pt x="300" y="1326" on="0"/>
        <pt x="419" y="1427" on="0"/>
        <pt x="569" y="1483" on="0"/>
        <pt x="659" y="1483" on="1"/>
        <pt x="745" y="1483" on="0"/>
        <pt x="872" y="1447" on="0"/>
        <pt x="956" y="1387" on="0"/>
        <pt x="997" y="1309" on="0"/>
        <pt x="997" y="1268" on="1"/>
        <pt x="997" y="1209" on="0"/>
        <pt x="917" y="1145" on="0"/>
        <pt x="840" y="1145" on="1"/>
        <pt x="840" y="1195" on="0"/>
        <pt x="821" y="1282" on="0"/>
        <pt x="777" y="1347" on="0"/>
        <pt x="709" y="1384" on="0"/>
      </contour>
      <contour>
        <pt x="588" y="784" on="1"/>
        <pt x="548" y="784" on="0"/>
        <pt x="474" y="763" on="0"/>
        <pt x="409" y="730" on="0"/>
        <pt x="355" y="687" on="0"/>
        <pt x="334" y="666" on="1"/>
        <pt x="336" y="512" on="0"/>
        <pt x="375" y="294" on="0"/>
        <pt x="445" y="156" on="0"/>
        <pt x="545" y="92" on="0"/>
        <pt x="606" y="92" on="1"/>
        <pt x="716" y="92" on="0"/>
        <pt x="831" y="263" on="0"/>
        <pt x="831" y="449" on="1"/>
        <pt x="831" y="624" on="0"/>
        <pt x="706" y="784" on="0"/>
      </contour>
    </TTGlyph>
    <TTGlyph name="slash" xMin="0" yMin="-248" xMax="590" yMax="1556">
      <contour>
        <pt x="121" y="-248" on="1"/>
        <pt x="0" y="-248" on="1"/>
        <pt x="471" y="1556" on="1"/>
        <pt x="590" y="1556" on="1"/>
      </contour>
    </TTGlyph>
    <TTGlyph name="three" xMin="119" yMin="-20" xMax="1026" yMax="1483">
      <contour>
        <pt x="508" y="90" on="1"/>
        <pt x="569" y="90" on="0"/>
        <pt x="679" y="124" on="0"/>
        <pt x="763" y="202" on="0"/>
        <pt x="813" y="328" on="0"/>
        <pt x="813" y="420" on="1"/>
        <pt x="813" y="485" on="0"/>
        <pt x="762" y="590" on="0"/>
        <pt x="666" y="664" on="0"/>
        <pt x="528" y="705" on="0"/>
        <pt x="442" y="705" on="1"/>
        <pt x="377" y="705" on="1"/>
        <pt x="377" y="809" on="1"/>
        <pt x="442" y="809" on="1"/>
        <pt x="510" y="809" on="0"/>
        <pt x="627" y="854" on="0"/>
        <pt x="714" y="936" on="0"/>
        <pt x="764" y="1053" on="0"/>
        <pt x="764" y="1126" on="1"/>
        <pt x="764" y="1186" on="0"/>
        <pt x="740" y="1280" on="0"/>
        <pt x="687" y="1346" on="0"/>
        <pt x="604" y="1380" on="0"/>
        <pt x="545" y="1380" on="1"/>
        <pt x="475" y="1380" on="0"/>
        <pt x="387" y="1330" on="0"/>
        <pt x="337" y="1246" on="0"/>
        <pt x="319" y="1136" on="0"/>
        <pt x="319" y="1075" on="1"/>
        <pt x="282" y="1075" on="0"/>
        <pt x="218" y="1087" on="0"/>
        <pt x="170" y="1118" on="0"/>
        <pt x="143" y="1169" on="0"/>
        <pt x="143" y="1208" on="1"/>
        <pt x="143" y="1267" on="0"/>
        <pt x="194" y="1368" on="0"/>
        <pt x="296" y="1442" on="0"/>
        <pt x="446" y="1483" on="0"/>
        <pt x="545" y="1483" on="1"/>
        <pt x="642" y="1483" on="0"/>
        <pt x="800" y="1439" on="0"/>
        <pt x="913" y="1356" on="0"/>
        <pt x="975" y="1235" on="0"/>
        <pt x="975" y="1157" on="1"/>
        <pt x="975" y="1088" on="0"/>
        <pt x="926" y="966" on="0"/>
        <pt x="838" y="867" on="0"/>
        <pt x="718" y="797" on="0"/>
        <pt x="647" y="780" on="1"/>
        <pt x="685" y="776" on="0"/>
        <pt x="771" y="757" on="0"/>
        <pt x="855" y="721" on="0"/>
        <pt x="932" y="667" on="0"/>
        <pt x="991" y="589" on="0"/>
        <pt x="1026" y="486" on="0"/>
        <pt x="1026" y="418" on="1"/>
        <pt x="1026" y="336" on="0"/>
        <pt x="982" y="206" on="0"/>
        <pt x="905" y="109" on="0"/>
        <pt x="803" y="41" on="0"/>
        <pt x="687" y="-1" on="0"/>
        <pt x="565" y="-20" on="0"/>
        <pt x="506" y="-20" on="1"/>
        <pt x="405" y="-20" on="0"/>
        <pt x="259" y="17" on="0"/>
        <pt x="164" y="79" on="0"/>
        <pt x="119" y="162" on="0"/>
        <pt x="119" y="207" on="1"/>
        <pt x="119" y="269" on="0"/>
        <pt x="189" y="338" on="0"/>
        <pt x="248" y="338" on="1"/>
        <pt x="248" y="284" on="0"/>
        <pt x="283" y="193" on="0"/>
        <pt x="349" y="127" on="0"/>
        <pt x="446" y="90" on="0"/>
      </contour>
    </TTGlyph>
    <TTGlyph name="two" xMin="104" yMin="0" xMax="995" yMax="1483">
      <contour>
        <pt x="944" y="1141" on="1"/>
        <pt x="944" y="1069" on="0"/>
        <pt x="898" y="933" on="0"/>
        <pt x="810" y="790" on="0"/>
        <pt x="683" y="636" on="0"/>
        <pt x="602" y="547" on="1"/>
        <pt x="256" y="164" on="1"/>
        <pt x="729" y="164" on="1"/>
        <pt x="775" y="164" on="0"/>
        <pt x="835" y="190" on="0"/>
        <pt x="873" y="232" on="0"/>
        <pt x="894" y="287" on="0"/>
        <pt x="901" y="317" on="1"/>
        <pt x="909" y="354" on="1"/>
        <pt x="995" y="354" on="1"/>
        <pt x="985" y="0" on="1"/>
        <pt x="104" y="0" on="1"/>
        <pt x="104" y="150" on="1"/>
        <pt x="446" y="545" on="1"/>
        <pt x="528" y="640" on="0"/>
        <pt x="639" y="790" on="0"/>
        <pt x="707" y="923" on="0"/>
        <pt x="737" y="1050" on="0"/>
        <pt x="737" y="1120" on="1"/>
        <pt x="737" y="1179" on="0"/>
        <pt x="712" y="1274" on="0"/>
        <pt x="661" y="1343" on="0"/>
        <pt x="582" y="1380" on="0"/>
        <pt x="528" y="1380" on="1"/>
        <pt x="458" y="1380" on="0"/>
        <pt x="371" y="1330" on="0"/>
        <pt x="321" y="1246" on="0"/>
        <pt x="303" y="1136" on="0"/>
        <pt x="303" y="1075" on="1"/>
        <pt x="266" y="1075" on="0"/>
        <pt x="202" y="1087" on="0"/>
        <pt x="154" y="1118" on="0"/>
        <pt x="127" y="1169" on="0"/>
        <pt x="127" y="1208" on="1"/>
        <pt x="127" y="1267" on="0"/>
        <pt x="178" y="1368" on="0"/>
        <pt x="279" y="1442" on="0"/>
        <pt x="429" y="1483" on="0"/>
        <pt x="528" y="1483" on="1"/>
        <pt x="625" y="1483" on="0"/>
        <pt x="779" y="1434" on="0"/>
        <pt x="887" y="1345" on="0"/>
        <pt x="944" y="1219" on="0"/>
      </contour>
    </TTGlyph>
    <TTGlyph name="uni00AD" xMin="51" yMin="481" xMax="584" yMax="635">
      <contour>
        <pt x="51" y="481" on="1"/>
        <pt x="51" y="635" on="1"/>
        <pt x="584" y="635" on="1"/>
        <pt x="584" y="481" on="1"/>
      </contour>
    </TTGlyph>
    <TTGlyph name="uni1780" xMin="180" yMin="0" xMax="1300" yMax="1500">
      <contour>
        <pt x="1200" y="0" on="1"/>
        <pt x="1012" y="0" on="1"/>
        <pt x="1012" y="750" on="1"/>
        <pt x="1012" y="808" on="0"/>
        <pt x="934" y="857" on="1"/>
        <pt x="856" y="906" on="0"/>
        <pt x="750" y="906" on="1"/>
        <pt x="700" y="906" on="1"/>
        <pt x="594" y="906" on="0"/>
        <pt x="516" y="857" on="1"/>
        <pt x="438" y="808" on="0"/>
        <pt x="438" y="750" on="1"/>
        <pt x="438" y="0" on="1"/>
        <pt x="250" y="0" on="1"/>
        <pt x="250" y="750" on="1"/>
        <pt x="250" y="850" on="0"/>
        <pt x="375" y="950" on="1"/>
        <pt x="500" y="1050" on="0"/>
        <pt x="700" y="1050" on="1"/>
        <pt x="750" y="1050" on="1"/>
        <pt x="950" y="1050" on="0"/>
        <pt x="1075" y="950" on="1"/>
        <pt x="1200" y="850" on="0"/>
        <pt x="1200" y="750" on="1"/>
      </contour>
      <contour>
        <pt x="180" y="1028" on="0"/>
        <pt x="180" y="1127" on="1"/>
        <pt x="180" y="1202" on="1"/>
        <pt x="180" y="1254" on="0"/>
        <pt x="245" y="1315" on="1"/>
        <pt x="311" y="1376" on="1"/>
        <pt x="442" y="1500" on="0"/>
        <pt x="474" y="1500" on="1"/>
        <pt x="511" y="1500" on="0"/>
        <pt x="619" y="1388" on="1"/>
        <pt x="673" y="1332" on="1"/>
        <pt x="700" y="1303" on="0"/>
        <pt x="730" y="1303" on="1"/>
        <pt x="755" y="1303" on="0"/>
        <pt x="781" y="1332" on="1"/>
        <pt x="831" y="1388" on="1"/>
        <pt x="932" y="1500" on="0"/>
        <pt x="968" y="1500" on="1"/>
        <pt x="1003" y="1500" on="0"/>
        <pt x="1060" y="1438" on="1"/>
        <pt x="1178" y="1313" on="1"/>
        <pt x="1213" y="1276" on="0"/>
        <pt x="1249" y="1276" on="1"/>
        <pt x="1275" y="1276" on="0"/>
        <pt x="1300" y="1294" on="1"/>
        <pt x="1230" y="1127" on="0"/>
        <pt x="1165" y="1127" on="1"/>
        <pt x="1097" y="1127" on="0"/>
        <pt x="1061" y="1166" on="1"/>
        <pt x="983" y="1247" on="1"/>
        <pt x="943" y="1288" on="0"/>
        <pt x="910" y="1288" on="1"/>
        <pt x="867" y="1288" on="0"/>
        <pt x="809" y="1208" on="1"/>
        <pt x="750" y="1127" on="0"/>
        <pt x="700" y="1127" on="1"/>
        <pt x="628" y="1127" on="0"/>
        <pt x="542" y="1208" on="1"/>
        <pt x="498" y="1248" on="1"/>
        <pt x="455" y="1288" on="0"/>
        <pt x="417" y="1288" on="1"/>
        <pt x="374" y="1288" on="0"/>
        <pt x="352" y="1251" on="1"/>
        <pt x="330" y="1214" on="0"/>
        <pt x="330" y="1178" on="1"/>
        <pt x="330" y="1128" on="0"/>
        <pt x="467" y="1058" on="1"/>
        <pt x="338" y="967" on="1"/>
      </contour>
    </TTGlyph>
    <TTGlyph name="uni1780_17B6" xMin="180" yMin="0" xMax="1912" yMax="1500">
      <contour>
        <pt x="1012" y="0" on="1"/>
        <pt x="1012" y="750" on="1"/>
        <pt x="1012" y="808" on="0"/>
        <pt x="934" y="857" on="1"/>
        <pt x="856" y="906" on="0"/>
        <pt x="750" y="906" on="1"/>
        <pt x="700" y="906" on="1"/>
        <pt x="594" y="906" on="0"/>
        <pt x="516" y="857" on="1"/>
        <pt x="438" y="808" on="0"/>
        <pt x="438" y="750" on="1"/>
        <pt x="438" y="0" on="1"/>
        <pt x="250" y="0" on="1"/>
        <pt x="250" y="750" on="1"/>
        <pt x="250" y="850" on="0"/>
        <pt x="375" y="950" on="1"/>
        <pt x="500" y="1050" on="0"/>
        <pt x="700" y="1050" on="1"/>
        <pt x="750" y="1050" on="1"/>
        <pt x="950" y="1050" on="0"/>
        <pt x="1075" y="950" on="1"/>
        <pt x="1200" y="850" on="0"/>
        <pt x="1200" y="750" on="1"/>
        <pt x="1200" y="0" on="1"/>
      </contour>
      <contour>
        <pt x="180" y="1127" on="1"/>
        <pt x="180" y="1202" on="1"/>
        <pt x="180" y="1254" on="0"/>
        <pt x="280" y="1315" on="1"/>
        <pt x="382" y="1376" on="1"/>
        <pt x="585" y="1500" on="0"/>
        <pt x="634" y="1500" on="1"/>
        <pt x="687" y="1500" on="0"/>
        <pt x="850" y="1388" on="1"/>
        <pt x="933" y="1332" on="1"/>
        <pt x="976" y="1303" on="0"/>
        <pt x="1022" y="1303" on="1"/>
        <pt x="1069" y="1303" on="0"/>
        <pt x="1109" y="1332" on="1"/>
        <pt x="1186" y="1388" on="1"/>
        <pt x="1342" y="1500" on="0"/>
        <pt x="1396" y="1500" on="1"/>
        <pt x="1449" y="1500" on="0"/>
        <pt x="1565" y="1420" on="1"/>
        <pt x="1767" y="1280" on="1"/>
        <pt x="1912" y="1180" on="0"/>
        <pt x="1912" y="1000" on="1"/>
        <pt x="1912" y="0" on="1"/>
        <pt x="1724" y="0" on="1"/>
        <pt x="1724" y="1000" on="1"/>
        <pt x="1724" y="1081" on="0"/>
        <pt x="1661" y="1122" on="1"/>
        <pt x="1597" y="1167" on="1"/>
        <pt x="1452" y="1267" on="1"/>
        <pt x="1395" y="1308" on="0"/>
        <pt x="1338" y="1308" on="1"/>
        <pt x="1272" y="1308" on="0"/>
        <pt x="1152" y="1208" on="1"/>
        <pt x="1061" y="1127" on="0"/>
        <pt x="984" y="1127" on="1"/>
        <pt x="899" y="1127" on="0"/>
        <pt x="774" y="1212" on="1"/>
        <pt x="701" y="1262" on="1"/>
        <pt x="633" y="1308" on="0"/>
        <pt x="571" y="1308" on="1"/>
        <pt x="508" y="1308" on="0"/>
        <pt x="438" y="1261" on="1"/>
        <pt x="368" y="1214" on="0"/>
        <pt x="368" y="1178" on="1"/>
        <pt x="368" y="1128" on="0"/>
        <pt x="535" y="1065" on="1"/>
        <pt x="360" y="989" on="1"/>
        <pt x="180" y="1028" on="0"/>
      </contour>
    </TTGlyph>
    <TTGlyph name="uni1780_17C5" xMin="180" yMin="0" xMax="1962" yMax="1900">
      <contour>
        <pt x="1012" y="0" on="1"/>
        <pt x="1012" y="750" on="1"/>
        <pt x="1012" y="808" on="0"/>
        <pt x="934" y="857" on="1"/>
        <pt x="856" y="906" on="0"/>
        <pt x="750" y="906" on="1"/>
        <pt x="700" y="906" on="1"/>
        <pt x="594" y="906" on="0"/>
        <pt x="516" y="857" on="1"/>
        <pt x="438" y="808" on="0"/>
        <pt x="438" y="750" on="1"/>
        <pt x="438" y="0" on="1"/>
        <pt x="250" y="0" on="1"/>
        <pt x="250" y="750" on="1"/>
        <pt x="250" y="850" on="0"/>
        <pt x="375" y="950" on="1"/>
        <pt x="500" y="1050" on="0"/>
        <pt x="700" y="1050" on="1"/>
        <pt x="750" y="1050" on="1"/>
        <pt x="950" y="1050" on="0"/>
        <pt x="1075" y="950" on="1"/>
        <pt x="1200" y="850" on="0"/>
        <pt x="1200" y="750" on="1"/>
        <pt x="1200" y="0" on="1"/>
      </contour>
      <contour>
        <pt x="1891" y="1126" on="1"/>
        <pt x="1912" y="1069" on="0"/>
        <pt x="1912" y="1000" on="1"/>
        <pt x="1912" y="0" on="1"/>
        <pt x="1724" y="0" on="1"/>
        <pt x="1724" y="1000" on="1"/>
        <pt x="1724" y="1081" on="0"/>
        <pt x="1661" y="1122" on="1"/>
        <pt x="1597" y="1167" on="1"/>
        <pt x="1452" y="1267" on="1"/>
        <pt x="1395" y="1308" on="0"/>
        <pt x="1338" y="1308" on="1"/>
        <pt x="1272" y="1308" on="0"/>
        <pt x="1152" y="1208" on="1"/>
        <pt x="1061" y="1127" on="0"/>
        <pt x="984" y="1127" on="1"/>
        <pt x="899" y="1127" on="0"/>
        <pt x="774" y="1212" on="1"/>
        <pt x="701" y="1262" on="1"/>
        <pt x="633" y="1308" on="0"/>
        <pt x="571" y="1308" on="1"/>
        <pt x="508" y="1308" on="0"/>
        <pt x="438" y="1261" on="1"/>
        <pt x="368" y="1214" on="0"/>
        <pt x="368" y="1178" on="1"/>
        <pt x="368" y="1128" on="0"/>
        <pt x="535" y="1065" on="1"/>
        <pt x="360" y="989" on="1"/>
        <pt x="180" y="1028" on="0"/>
        <pt x="180" y="1127" on="1"/>
        <pt x="180" y="1202" on="1"/>
        <pt x="180" y="1254" on="0"/>
        <pt x="280" y="1315" on="1"/>
        <pt x="382" y="1376" on="1"/>
        <pt x="585" y="1500" on="0"/>
        <pt x="634" y="1500" on="1"/>
        <pt x="687" y="1500" on="0"/>
        <pt x="850" y="1388" on="1"/>
        <pt x="933" y="1332" on="1"/>
        <pt x="976" y="1303" on="0"/>
        <pt x="1022" y="1303" on="1"/>
        <pt x="1069" y="1303" on="0"/>
        <pt x="1109" y="1332" on="1"/>
        <pt x="1186" y="1388" on="1"/>
        <pt x="1342" y="1500" on="0"/>
        <pt x="1396" y="1500" on="1"/>
        <pt x="1449" y="1500" on="0"/>
        <pt x="1565" y="1420" on="1"/>
        <pt x="1767" y="1280" on="1"/>
        <pt x="1771" y="1278" on="0"/>
        <pt x="1774" y="1275" on="1"/>
        <pt x="1774" y="1700" on="1"/>
        <pt x="1774" y="1800" on="0"/>
        <pt x="1674" y="1800" on="1"/>
        <pt x="1674" y="1900" on="0"/>
        <pt x="1799" y="1900" on="1"/>
        <pt x="1962" y="1900" on="0"/>
        <pt x="1962" y="1700" on="1"/>
        <pt x="1962" y="1300" on="1"/>
        <pt x="1962" y="1234" on="0"/>
      </contour>
    </TTGlyph>
    <TTGlyph name="uni1781" xMin="250" yMin="0" xMax="1200" yMax="1500">
      <contour>
        <pt x="438" y="1025" on="1"/>
        <pt x="438" y="950" on="1"/>
        <pt x="486" y="950" on="0"/>
        <pt x="486" y="1000" on="1"/>
        <pt x="486" y="1012" on="0"/>
        <pt x="473" y="1019" on="1"/>
        <pt x="461" y="1025" on="0"/>
      </contour>
      <contour>
        <pt x="1012" y="943" on="0"/>
        <pt x="1012" y="1050" on="1"/>
        <pt x="1012" y="1200" on="1"/>
        <pt x="1012" y="1258" on="0"/>
        <pt x="934" y="1307" on="1"/>
        <pt x="856" y="1356" on="0"/>
        <pt x="750" y="1356" on="1"/>
        <pt x="700" y="1356" on="1"/>
        <pt x="594" y="1356" on="0"/>
        <pt x="516" y="1307" on="1"/>
        <pt x="438" y="1258" on="0"/>
        <pt x="438" y="1200" on="1"/>
        <pt x="438" y="1125" on="1"/>
        <pt x="512" y="1125" on="0"/>
        <pt x="549" y="1094" on="1"/>
        <pt x="586" y="1062" on="0"/>
        <pt x="586" y="1000" on="1"/>
        <pt x="586" y="850" on="0"/>
        <pt x="438" y="850" on="1"/>
        <pt x="250" y="850" on="0"/>
        <pt x="250" y="950" on="1"/>
        <pt x="250" y="1200" on="1"/>
        <pt x="250" y="1300" on="0"/>
        <pt x="375" y="1400" on="1"/>
        <pt x="500" y="1500" on="0"/>
        <pt x="700" y="1500" on="1"/>
        <pt x="750" y="1500" on="1"/>
        <pt x="950" y="1500" on="0"/>
        <pt x="1075" y="1400" on="1"/>
        <pt x="1200" y="1300" on="0"/>
        <pt x="1200" y="1200" on="1"/>
        <pt x="1200" y="1050" on="1"/>
        <pt x="1200" y="878" on="0"/>
        <pt x="819" y="681" on="1"/>
        <pt x="438" y="485" on="1"/>
        <pt x="438" y="300" on="1"/>
        <pt x="438" y="242" on="0"/>
        <pt x="516" y="193" on="1"/>
        <pt x="594" y="144" on="0"/>
        <pt x="700" y="144" on="1"/>
        <pt x="750" y="144" on="1"/>
        <pt x="856" y="144" on="0"/>
        <pt x="934" y="193" on="1"/>
        <pt x="1012" y="242" on="0"/>
        <pt x="1012" y="300" on="1"/>
        <pt x="1012" y="600" on="1"/>
        <pt x="1200" y="700" on="1"/>
        <pt x="1200" y="300" on="1"/>
        <pt x="1200" y="200" on="0"/>
        <pt x="1075" y="100" on="1"/>
        <pt x="950" y="0" on="0"/>
        <pt x="750" y="0" on="1"/>
        <pt x="700" y="0" on="1"/>
        <pt x="500" y="0" on="0"/>
        <pt x="375" y="100" on="1"/>
        <pt x="250" y="200" on="0"/>
        <pt x="250" y="300" on="1"/>
        <pt x="250" y="550" on="1"/>
        <pt x="726" y="795" on="1"/>
      </contour>
    </TTGlyph>
    <TTGlyph name="uni1781_17B6" xMin="250" yMin="0" xMax="1912" yMax="1500">
      <contour>
        <pt x="438" y="1025" on="1"/>
        <pt x="438" y="950" on="1"/>
        <pt x="486" y="950" on="0"/>
        <pt x="486" y="1000" on="1"/>
        <pt x="486" y="1012" on="0"/>
        <pt x="473" y="1019" on="1"/>
        <pt x="461" y="1025" on="0"/>
      </contour>
      <contour>
        <pt x="1200" y="1203" on="1"/>
        <pt x="1200" y="1050" on="1"/>
        <pt x="1200" y="878" on="0"/>
        <pt x="819" y="681" on="1"/>
        <pt x="438" y="485" on="1"/>
        <pt x="438" y="300" on="1"/>
        <pt x="438" y="242" on="0"/>
        <pt x="516" y="193" on="1"/>
        <pt x="594" y="144" on="0"/>
        <pt x="700" y="144" on="1"/>
        <pt x="750" y="144" on="1"/>
        <pt x="856" y="144" on="0"/>
        <pt x="934" y="193" on="1"/>
        <pt x="1012" y="242" on="0"/>
        <pt x="1012" y="300" on="1"/>
        <pt x="1012" y="600" on="1"/>
        <pt x="1200" y="700" on="1"/>
        <pt x="1200" y="300" on="1"/>
        <pt x="1200" y="200" on="0"/>
        <pt x="1075" y="100" on="1"/>
        <pt x="950" y="0" on="0"/>
        <pt x="750" y="0" on="1"/>
        <pt x="700" y="0" on="1"/>
        <pt x="500" y="0" on="0"/>
        <pt x="375" y="100" on="1"/>
        <pt x="250" y="200" on="0"/>
        <pt x="250" y="300" on="1"/>
        <pt x="250" y="550" on="1"/>
        <pt x="726" y="795" on="1"/>
        <pt x="1012" y="943" on="0"/>
        <pt x="1012" y="1050" on="1"/>
        <pt x="1012" y="1200" on="1"/>
        <pt x="1012" y="1258" on="0"/>
        <pt x="934" y="1307" on="1"/>
        <pt x="856" y="1356" on="0"/>
        <pt x="750" y="1356" on="1"/>
        <pt x="700" y="1356" on="1"/>
        <pt x="594" y="1356" on="0"/>
        <pt x="516" y="1307" on="1"/>
        <pt x="438" y="1258" on="0"/>
        <pt x="438" y="1200" on="1"/>
        <pt x="438" y="1125" on="1"/>
        <pt x="512" y="1125" on="0"/>
        <pt x="549" y="1094" on="1"/>
        <pt x="586" y="1062" on="0"/>
        <pt x="586" y="1000" on="1"/>
        <pt x="586" y="850" on="0"/>
        <pt x="438" y="850" on="1"/>
        <pt x="250" y="850" on="0"/>
        <pt x="250" y="950" on="1"/>
        <pt x="250" y="1200" on="1"/>
        <pt x="250" y="1300" on="0"/>
        <pt x="375" y="1400" on="1"/>
        <pt x="500" y="1500" on="0"/>
        <pt x="700" y="1500" on="1"/>
        <pt x="750" y="1500" on="1"/>
        <pt x="950" y="1500" on="0"/>
        <pt x="1075" y="1400" on="1"/>
        <pt x="1113" y="1369" on="0"/>
        <pt x="1140" y="1339" on="1"/>
        <pt x="1248" y="1413" on="1"/>
        <pt x="1376" y="1500" on="0"/>
        <pt x="1467" y="1500" on="1"/>
        <pt x="1556" y="1500" on="0"/>
        <pt x="1642" y="1433" on="1"/>
        <pt x="1834" y="1282" on="1"/>
        <pt x="1912" y="1223" on="0"/>
        <pt x="1912" y="1128" on="1"/>
        <pt x="1912" y="0" on="1"/>
        <pt x="1724" y="0" on="1"/>
        <pt x="1724" y="1128" on="1"/>
        <pt x="1487" y="1319" on="1"/>
        <pt x="1465" y="1336" on="0"/>
        <pt x="1437" y="1336" on="1"/>
        <pt x="1390" y="1336" on="0"/>
        <pt x="1327" y="1291" on="1"/>
        <pt x="1262" y="1246" on="1"/>
      </contour>
    </TTGlyph>
    <TTGlyph name="uni1781_17C5" xMin="250" yMin="0" xMax="1962" yMax="1900">
      <contour>
        <pt x="438" y="1025" on="1"/>
        <pt x="438" y="950" on="1"/>
        <pt x="486" y="950" on="0"/>
        <pt x="486" y="1000" on="1"/>
        <pt x="486" y="1012" on="0"/>
        <pt x="473" y="1019" on="1"/>
        <pt x="461" y="1025" on="0"/>
      </contour>
      <contour>
        <pt x="1910" y="1157" on="1"/>
        <pt x="1912" y="1143" on="0"/>
        <pt x="1912" y="1128" on="1"/>
        <pt x="1912" y="0" on="1"/>
        <pt x="1724" y="0" on="1"/>
        <pt x="1724" y="1128" on="1"/>
        <pt x="1487" y="1319" on="1"/>
        <pt x="1465" y="1336" on="0"/>
        <pt x="1437" y="1336" on="1"/>
        <pt x="1390" y="1336" on="0"/>
        <pt x="1327" y="1291" on="1"/>
        <pt x="1262" y="1246" on="1"/>
        <pt x="1200" y="1203" on="1"/>
        <pt x="1200" y="1050" on="1"/>
        <pt x="1200" y="878" on="0"/>
        <pt x="819" y="681" on="1"/>
        <pt x="438" y="485" on="1"/>
        <pt x="438" y="300" on="1"/>
        <pt x="438" y="242" on="0"/>
        <pt x="516" y="193" on="1"/>
        <pt x="594" y="144" on="0"/>
        <pt x="700" y="144" on="1"/>
        <pt x="750" y="144" on="1"/>
        <pt x="856" y="144" on="0"/>
        <pt x="934" y="193" on="1"/>
        <pt x="1012" y="242" on="0"/>
        <pt x="1012" y="300" on="1"/>
        <pt x="1012" y="600" on="1"/>
        <pt x="1200" y="700" on="1"/>
        <pt x="1200" y="300" on="1"/>
        <pt x="1200" y="200" on="0"/>
        <pt x="1075" y="100" on="1"/>
        <pt x="950" y="0" on="0"/>
        <pt x="750" y="0" on="1"/>
        <pt x="700" y="0" on="1"/>
        <pt x="500" y="0" on="0"/>
        <pt x="375" y="100" on="1"/>
        <pt x="250" y="200" on="0"/>
        <pt x="250" y="300" on="1"/>
        <pt x="250" y="550" on="1"/>
        <pt x="726" y="795" on="1"/>
        <pt x="1012" y="943" on="0"/>
        <pt x="1012" y="1050" on="1"/>
        <pt x="1012" y="1200" on="1"/>
        <pt x="1012" y="1258" on="0"/>
        <pt x="934" y="1307" on="1"/>
        <pt x="856" y="1356" on="0"/>
        <pt x="750" y="1356" on="1"/>
        <pt x="700" y="1356" on="1"/>
        <pt x="594" y="1356" on="0"/>
        <pt x="516" y="1307" on="1"/>
        <pt x="438" y="1258" on="0"/>
        <pt x="438" y="1200" on="1"/>
        <pt x="438" y="1125" on="1"/>
        <pt x="512" y="1125" on="0"/>
        <pt x="549" y="1094" on="1"/>
        <pt x="586" y="1062" on="0"/>
        <pt x="586" y="1000" on="1"/>
        <pt x="586" y="850" on="0"/>
        <pt x="438" y="850" on="1"/>
        <pt x="250" y="850" on="0"/>
        <pt x="250" y="950" on="1"/>
        <pt x="250" y="1200" on="1"/>
        <pt x="250" y="1300" on="0"/>
        <pt x="375" y="1400" on="1"/>
        <pt x="500" y="1500" on="0"/>
        <pt x="700" y="1500" on="1"/>
        <pt x="750" y="1500" on="1"/>
        <pt x="950" y="1500" on="0"/>
        <pt x="1075" y="1400" on="1"/>
        <pt x="1113" y="1369" on="0"/>
        <pt x="1140" y="1339" on="1"/>
        <pt x="1248" y="1413" on="1"/>
        <pt x="1376" y="1500" on="0"/>
        <pt x="1467" y="1500" on="1"/>
        <pt x="1556" y="1500" on="0"/>
        <pt x="1642" y="1433" on="1"/>
        <pt x="1774" y="1329" on="1"/>
        <pt x="1774" y="1700" on="1"/>
        <pt x="1774" y="1800" on="0"/>
        <pt x="1674" y="1800" on="1"/>
        <pt x="1674" y="1900" on="0"/>
        <pt x="1799" y="1900" on="1"/>
        <pt x="1962" y="1900" on="0"/>
        <pt x="1962" y="1700" on="1"/>
        <pt x="1962" y="1300" on="1"/>
        <pt x="1962" y="1244" on="0"/>
      </contour>
    </TTGlyph>
    <TTGlyph name="uni1782" xMin="180" yMin="0" xMax="1300" yMax="1500">
      <contour>
        <pt x="180" y="1028" on="0"/>
        <pt x="180" y="1127" on="1"/>
        <pt x="180" y="1202" on="1"/>
        <pt x="180" y="1254" on="0"/>
        <pt x="245" y="1315" on="1"/>
        <pt x="311" y="1376" on="1"/>
        <pt x="442" y="1500" on="0"/>
        <pt x="474" y="1500" on="1"/>
        <pt x="511" y="1500" on="0"/>
        <pt x="619" y="1388" on="1"/>
        <pt x="673" y="1332" on="1"/>
        <pt x="700" y="1303" on="0"/>
        <pt x="730" y="1303" on="1"/>
        <pt x="755" y="1303" on="0"/>
        <pt x="781" y="1332" on="1"/>
        <pt x="831" y="1388" on="1"/>
        <pt x="932" y="1500" on="0"/>
        <pt x="968" y="1500" on="1"/>
        <pt x="1003" y="1500" on="0"/>
        <pt x="1060" y="1438" on="1"/>
        <pt x="1178" y="1313" on="1"/>
        <pt x="1213" y="1276" on="0"/>
        <pt x="1249" y="1276" on="1"/>
        <pt x="1275" y="1276" on="0"/>
        <pt x="1300" y="1294" on="1"/>
        <pt x="1230" y="1127" on="0"/>
        <pt x="1165" y="1127" on="1"/>
        <pt x="1097" y="1127" on="0"/>
        <pt x="1061" y="1166" on="1"/>
        <pt x="983" y="1247" on="1"/>
        <pt x="943" y="1288" on="0"/>
        <pt x="910" y="1288" on="1"/>
        <pt x="867" y="1288" on="0"/>
        <pt x="809" y="1208" on="1"/>
        <pt x="750" y="1127" on="0"/>
        <pt x="700" y="1127" on="1"/>
        <pt x="628" y="1127" on="0"/>
        <pt x="542" y="1208" on="1"/>
        <pt x="498" y="1248" on="1"/>
        <pt x="455" y="1288" on="0"/>
        <pt x="417" y="1288" on="1"/>
        <pt x="374" y="1288" on="0"/>
        <pt x="352" y="1251" on="1"/>
        <pt x="330" y="1214" on="0"/>
        <pt x="330" y="1178" on="1"/>
        <pt x="330" y="1128" on="0"/>
        <pt x="467" y="1058" on="1"/>
        <pt x="338" y="967" on="1"/>
      </contour>
      <contour>
        <pt x="438" y="67" on="1"/>
        <pt x="418" y="0" on="1"/>
        <pt x="250" y="0" on="1"/>
        <pt x="250" y="750" on="1"/>
        <pt x="250" y="850" on="0"/>
        <pt x="375" y="950" on="1"/>
        <pt x="500" y="1050" on="0"/>
        <pt x="700" y="1050" on="1"/>
        <pt x="750" y="1050" on="1"/>
        <pt x="950" y="1050" on="0"/>
        <pt x="1075" y="950" on="1"/>
        <pt x="1200" y="850" on="0"/>
        <pt x="1200" y="750" on="1"/>
        <pt x="1200" y="0" on="1"/>
        <pt x="1012" y="0" on="1"/>
        <pt x="1012" y="750" on="1"/>
        <pt x="1012" y="808" on="0"/>
        <pt x="934" y="857" on="1"/>
        <pt x="856" y="906" on="0"/>
        <pt x="750" y="906" on="1"/>
        <pt x="700" y="906" on="1"/>
        <pt x="594" y="906" on="0"/>
        <pt x="516" y="857" on="1"/>
        <pt x="438" y="808" on="0"/>
        <pt x="438" y="750" on="1"/>
        <pt x="438" y="300" on="1"/>
        <pt x="483" y="372" on="1"/>
        <pt x="562" y="500" on="0"/>
        <pt x="662" y="500" on="1"/>
        <pt x="800" y="500" on="0"/>
        <pt x="800" y="380" on="1"/>
        <pt x="800" y="300" on="0"/>
        <pt x="723" y="300" on="1"/>
        <pt x="666" y="300" on="0"/>
        <pt x="666" y="333" on="1"/>
        <pt x="666" y="366" on="0"/>
        <pt x="642" y="366" on="1"/>
        <pt x="618" y="366" on="0"/>
        <pt x="568" y="283" on="1"/>
        <pt x="519" y="201" on="1"/>
      </contour>
    </TTGlyph>
    <TTGlyph name="uni1782_17B6" xMin="180" yMin="0" xMax="1912" yMax="1500">
      <contour>
        <pt x="180" y="1127" on="1"/>
        <pt x="180" y="1202" on="1"/>
        <pt x="180" y="1254" on="0"/>
        <pt x="280" y="1315" on="1"/>
        <pt x="382" y="1376" on="1"/>
        <pt x="585" y="1500" on="0"/>
        <pt x="634" y="1500" on="1"/>
        <pt x="687" y="1500" on="0"/>
        <pt x="850" y="1388" on="1"/>
        <pt x="933" y="1332" on="1"/>
        <pt x="976" y="1303" on="0"/>
        <pt x="1022" y="1303" on="1"/>
        <pt x="1069" y="1303" on="0"/>
        <pt x="1109" y="1332" on="1"/>
        <pt x="1186" y="1388" on="1"/>
        <pt x="1342" y="1500" on="0"/>
        <pt x="1396" y="1500" on="1"/>
        <pt x="1449" y="1500" on="0"/>
        <pt x="1565" y="1420" on="1"/>
        <pt x="1767" y="1280" on="1"/>
        <pt x="1912" y="1180" on="0"/>
        <pt x="1912" y="1000" on="1"/>
        <pt x="1912" y="0" on="1"/>
        <pt x="1724" y="0" on="1"/>
        <pt x="1724" y="1000" on="1"/>
        <pt x="1724" y="1081" on="0"/>
        <pt x="1661" y="1122" on="1"/>
        <pt x="1597" y="1167" on="1"/>
        <pt x="1452" y="1267" on="1"/>
        <pt x="1395" y="1308" on="0"/>
        <pt x="1338" y="1308" on="1"/>
        <pt x="1272" y="1308" on="0"/>
        <pt x="1152" y="1208" on="1"/>
        <pt x="1061" y="1127" on="0"/>
        <pt x="984" y="1127" on="1"/>
        <pt x="899" y="1127" on="0"/>
        <pt x="774" y="1212" on="1"/>
        <pt x="701" y="1262" on="1"/>
        <pt x="633" y="1308" on="0"/>
        <pt x="571" y="1308" on="1"/>
        <pt x="508" y="1308" on="0"/>
        <pt x="438" y="1261" on="1"/>
        <pt x="368" y="1214" on="0"/>
        <pt x="368" y="1178" on="1"/>
        <pt x="368" y="1128" on="0"/>
        <pt x="535" y="1065" on="1"/>
        <pt x="360" y="989" on="1"/>
        <pt x="180" y="1028" on="0"/>
      </contour>
      <contour>
        <pt x="438" y="67" on="1"/>
        <pt x="418" y="0" on="1"/>
        <pt x="250" y="0" on="1"/>
        <pt x="250" y="750" on="1"/>
        <pt x="250" y="850" on="0"/>
        <pt x="375" y="950" on="1"/>
        <pt x="500" y="1050" on="0"/>
        <pt x="700" y="1050" on="1"/>
        <pt x="750" y="1050" on="1"/>
        <pt x="950" y="1050" on="0"/>
        <pt x="1075" y="950" on="1"/>
        <pt x="1200" y="850" on="0"/>
        <pt x="1200" y="750" on="1"/>
        <pt x="1200" y="0" on="1"/>
        <pt x="1012" y="0" on="1"/>
        <pt x="1012" y="750" on="1"/>
        <pt x="1012" y="808" on="0"/>
        <pt x="934" y="857" on="1"/>
        <pt x="856" y="906" on="0"/>
        <pt x="750" y="906" on="1"/>
        <pt x="700" y="906" on="1"/>
        <pt x="594" y="906" on="0"/>
        <pt x="516" y="857" on="1"/>
        <pt x="438" y="808" on="0"/>
        <pt x="438" y="750" on="1"/>
        <pt x="438" y="300" on="1"/>
        <pt x="483" y="372" on="1"/>
        <pt x="562" y="500" on="0"/>
        <pt x="662" y="500" on="1"/>
        <pt x="800" y="500" on="0"/>
        <pt x="800" y="380" on="1"/>
        <pt x="800" y="300" on="0"/>
        <pt x="723" y="300" on="1"/>
        <pt x="666" y="300" on="0"/>
        <pt x="666" y="333" on="1"/>
        <pt x="666" y="366" on="0"/>
        <pt x="642" y="366" on="1"/>
        <pt x="618" y="366" on="0"/>
        <pt x="568" y="283" on="1"/>
        <pt x="519" y="201" on="1"/>
      </contour>
    </TTGlyph>
    <TTGlyph name="uni1782_17C5" xMin="180" yMin="0" xMax="1962" yMax="1900">
      <contour>
        <pt x="438" y="67" on="1"/>
        <pt x="418" y="0" on="1"/>
        <pt x="250" y="0" on="1"/>
        <pt x="250" y="750" on="1"/>
        <pt x="250" y="850" on="0"/>
        <pt x="375" y="950" on="1"/>
        <pt x="500" y="1050" on="0"/>
        <pt x="700" y="1050" on="1"/>
        <pt x="750" y="1050" on="1"/>
        <pt x="950" y="1050" on="0"/>
        <pt x="1075" y="950" on="1"/>
        <pt x="1200" y="850" on="0"/>
        <pt x="1200" y="750" on="1"/>
        <pt x="1200" y="0" on="1"/>
        <pt x="1012" y="0" on="1"/>
        <pt x="1012" y="750" on="1"/>
        <pt x="1012" y="808" on="0"/>
        <pt x="934" y="857" on="1"/>
        <pt x="856" y="906" on="0"/>
        <pt x="750" y="906" on="1"/>
        <pt x="700" y="906" on="1"/>
        <pt x="594" y="906" on="0"/>
        <pt x="516" y="857" on="1"/>
        <pt x="438" y="808" on="0"/>
        <pt x="438" y="750" on="1"/>
        <pt x="438" y="300" on="1"/>
        <pt x="483" y="372" on="1"/>
        <pt x="562" y="500" on="0"/>
        <pt x="662" y="500" on="1"/>
        <pt x="800" y="500" on="0"/>
        <pt x="800" y="380" on="1"/>
        <pt x="800" y="300" on="0"/>
        <pt x="723" y="300" on="1"/>
        <pt x="666" y="300" on="0"/>
        <pt x="666" y="333" on="1"/>
        <pt x="666" y="366" on="0"/>
        <pt x="642" y="366" on="1"/>
        <pt x="618" y="366" on="0"/>
        <pt x="568" y="283" on="1"/>
        <pt x="519" y="201" on="1"/>
      </contour>
      <contour>
        <pt x="1891" y="1126" on="1"/>
        <pt x="1912" y="1069" on="0"/>
        <pt x="1912" y="1000" on="1"/>
        <pt x="1912" y="0" on="1"/>
        <pt x="1724" y="0" on="1"/>
        <pt x="1724" y="1000" on="1"/>
        <pt x="1724" y="1081" on="0"/>
        <pt x="1661" y="1122" on="1"/>
        <pt x="1597" y="1167" on="1"/>
        <pt x="1452" y="1267" on="1"/>
        <pt x="1395" y="1308" on="0"/>
        <pt x="1338" y="1308" on="1"/>
        <pt x="1272" y="1308" on="0"/>
        <pt x="1152" y="1208" on="1"/>
        <pt x="1061" y="1127" on="0"/>
        <pt x="984" y="1127" on="1"/>
        <pt x="899" y="1127" on="0"/>
        <pt x="774" y="1212" on="1"/>
        <pt x="701" y="1262" on="1"/>
        <pt x="633" y="1308" on="0"/>
        <pt x="571" y="1308" on="1"/>
        <pt x="508" y="1308" on="0"/>
        <pt x="438" y="1261" on="1"/>
        <pt x="368" y="1214" on="0"/>
        <pt x="368" y="1178" on="1"/>
        <pt x="368" y="1128" on="0"/>
        <pt x="535" y="1065" on="1"/>
        <pt x="360" y="989" on="1"/>
        <pt x="180" y="1028" on="0"/>
        <pt x="180" y="1127" on="1"/>
        <pt x="180" y="1202" on="1"/>
        <pt x="180" y="1254" on="0"/>
        <pt x="280" y="1315" on="1"/>
        <pt x="382" y="1376" on="1"/>
        <pt x="585" y="1500" on="0"/>
        <pt x="634" y="1500" on="1"/>
        <pt x="687" y="1500" on="0"/>
        <pt x="850" y="1388" on="1"/>
        <pt x="933" y="1332" on="1"/>
        <pt x="976" y="1303" on="0"/>
        <pt x="1022" y="1303" on="1"/>
        <pt x="1069" y="1303" on="0"/>
        <pt x="1109" y="1332" on="1"/>
        <pt x="1186" y="1388" on="1"/>
        <pt x="1342" y="1500" on="0"/>
        <pt x="1396" y="1500" on="1"/>
        <pt x="1449" y="1500" on="0"/>
        <pt x="1565" y="1420" on="1"/>
        <pt x="1767" y="1280" on="1"/>
        <pt x="1771" y="1278" on="0"/>
        <pt x="1774" y="1275" on="1"/>
        <pt x="1774" y="1700" on="1"/>
        <pt x="1774" y="1800" on="0"/>
        <pt x="1674" y="1800" on="1"/>
        <pt x="1674" y="1900" on="0"/>
        <pt x="1799" y="1900" on="1"/>
        <pt x="1962" y="1900" on="0"/>
        <pt x="1962" y="1700" on="1"/>
        <pt x="1962" y="1300" on="1"/>
        <pt x="1962" y="1234" on="0"/>
      </contour>
    </TTGlyph>
    <TTGlyph name="uni1783" xMin="100" yMin="0" xMax="2037" yMax="1500">
      <contour>
        <pt x="275" y="1266" on="1"/>
        <pt x="225" y="1216" on="0"/>
        <pt x="225" y="1185" on="1"/>
        <pt x="225" y="1160" on="0"/>
        <pt x="240" y="1149" on="1"/>
        <pt x="255" y="1139" on="0"/>
        <pt x="275" y="1139" on="1"/>
      </contour>
      <contour>
        <pt x="275" y="1000" on="1"/>
        <pt x="175" y="1000" on="0"/>
        <pt x="138" y="1050" on="1"/>
        <pt x="100" y="1100" on="0"/>
        <pt x="100" y="1155" on="1"/>
        <pt x="100" y="1212" on="0"/>
        <pt x="122" y="1261" on="1"/>
        <pt x="144" y="1311" on="0"/>
        <pt x="210" y="1406" on="1"/>
        <pt x="275" y="1500" on="0"/>
        <pt x="339" y="1500" on="1"/>
        <pt x="463" y="1500" on="0"/>
        <pt x="463" y="1400" on="1"/>
        <pt x="463" y="300" on="1"/>
        <pt x="463" y="242" on="0"/>
        <pt x="541" y="193" on="1"/>
        <pt x="619" y="144" on="0"/>
        <pt x="725" y="144" on="1"/>
        <pt x="831" y="144" on="0"/>
        <pt x="909" y="193" on="1"/>
        <pt x="987" y="242" on="0"/>
        <pt x="987" y="300" on="1"/>
        <pt x="987" y="993" on="1"/>
        <pt x="900" y="1046" on="1"/>
        <pt x="812" y="1099" on="0"/>
        <pt x="812" y="1131" on="1"/>
        <pt x="812" y="1162" on="0"/>
        <pt x="868" y="1247" on="1"/>
        <pt x="1036" y="1500" on="1"/>
        <pt x="1144" y="1438" on="1"/>
        <pt x="1198" y="1406" on="1"/>
        <pt x="1245" y="1379" on="0"/>
        <pt x="1278" y="1379" on="1"/>
        <pt x="1284" y="1379" on="0"/>
        <pt x="1289" y="1380" on="1"/>
        <pt x="1325" y="1385" on="1"/>
        <pt x="1325" y="1350" on="0"/>
        <pt x="1243" y="1222" on="0"/>
        <pt x="1202" y="1216" on="1"/>
        <pt x="1196" y="1215" on="0"/>
        <pt x="1189" y="1215" on="1"/>
        <pt x="1151" y="1215" on="0"/>
        <pt x="1094" y="1249" on="1"/>
        <pt x="1026" y="1288" on="1"/>
        <pt x="983" y="1213" on="1"/>
        <pt x="1175" y="1100" on="1"/>
        <pt x="1175" y="300" on="1"/>
        <pt x="1175" y="242" on="0"/>
        <pt x="1253" y="193" on="1"/>
        <pt x="1331" y="144" on="0"/>
        <pt x="1437" y="144" on="1"/>
        <pt x="1543" y="144" on="0"/>
        <pt x="1621" y="193" on="1"/>
        <pt x="1699" y="242" on="0"/>
        <pt x="1699" y="300" on="1"/>
        <pt x="1699" y="993" on="1"/>
        <pt x="1612" y="1046" on="1"/>
        <pt x="1524" y="1099" on="0"/>
        <pt x="1524" y="1131" on="1"/>
        <pt x="1524" y="1162" on="0"/>
        <pt x="1580" y="1247" on="1"/>
        <pt x="1748" y="1500" on="1"/>
        <pt x="1856" y="1438" on="1"/>
        <pt x="1910" y="1406" on="1"/>
        <pt x="1957" y="1379" on="0"/>
        <pt x="1990" y="1379" on="1"/>
        <pt x="1996" y="1379" on="0"/>
        <pt x="2001" y="1380" on="1"/>
        <pt x="2037" y="1385" on="1"/>
        <pt x="2037" y="1350" on="0"/>
        <pt x="1955" y="1222" on="0"/>
        <pt x="1914" y="1216" on="1"/>
        <pt x="1908" y="1215" on="0"/>
        <pt x="1901" y="1215" on="1"/>
        <pt x="1863" y="1215" on="0"/>
        <pt x="1806" y="1249" on="1"/>
        <pt x="1738" y="1288" on="1"/>
        <pt x="1695" y="1213" on="1"/>
        <pt x="1887" y="1100" on="1"/>
        <pt x="1887" y="300" on="1"/>
        <pt x="1887" y="200" on="0"/>
        <pt x="1762" y="100" on="1"/>
        <pt x="1637" y="0" on="0"/>
        <pt x="1437" y="0" on="1"/>
        <pt x="1237" y="0" on="0"/>
        <pt x="1112" y="100" on="1"/>
        <pt x="1095" y="113" on="0"/>
        <pt x="1081" y="127" on="1"/>
        <pt x="1067" y="113" on="0"/>
        <pt x="1050" y="100" on="1"/>
        <pt x="925" y="0" on="0"/>
        <pt x="725" y="0" on="1"/>
        <pt x="525" y="0" on="0"/>
        <pt x="400" y="100" on="1"/>
        <pt x="275" y="200" on="0"/>
        <pt x="275" y="300" on="1"/>
      </contour>
    </TTGlyph>
    <TTGlyph name="uni1783_17B6" xMin="100" yMin="0" xMax="2599" yMax="1500">
      <contour>
        <pt x="275" y="1266" on="1"/>
        <pt x="225" y="1216" on="0"/>
        <pt x="225" y="1185" on="1"/>
        <pt x="225" y="1160" on="0"/>
        <pt x="240" y="1149" on="1"/>
        <pt x="255" y="1139" on="0"/>
        <pt x="275" y="1139" on="1"/>
      </contour>
      <contour>
        <pt x="1887" y="300" on="1"/>
        <pt x="1887" y="200" on="0"/>
        <pt x="1762" y="100" on="1"/>
        <pt x="1637" y="0" on="0"/>
        <pt x="1437" y="0" on="1"/>
        <pt x="1237" y="0" on="0"/>
        <pt x="1112" y="100" on="1"/>
        <pt x="1095" y="113" on="0"/>
        <pt x="1081" y="127" on="1"/>
        <pt x="1067" y="113" on="0"/>
        <pt x="1050" y="100" on="1"/>
        <pt x="925" y="0" on="0"/>
        <pt x="725" y="0" on="1"/>
        <pt x="525" y="0" on="0"/>
        <pt x="400" y="100" on="1"/>
        <pt x="275" y="200" on="0"/>
        <pt x="275" y="300" on="1"/>
        <pt x="275" y="1000" on="1"/>
        <pt x="175" y="1000" on="0"/>
        <pt x="138" y="1050" on="1"/>
        <pt x="100" y="1100" on="0"/>
        <pt x="100" y="1155" on="1"/>
        <pt x="100" y="1212" on="0"/>
        <pt x="122" y="1261" on="1"/>
        <pt x="144" y="1311" on="0"/>
        <pt x="210" y="1406" on="1"/>
        <pt x="275" y="1500" on="0"/>
        <pt x="339" y="1500" on="1"/>
        <pt x="463" y="1500" on="0"/>
        <pt x="463" y="1400" on="1"/>
        <pt x="463" y="300" on="1"/>
        <pt x="463" y="242" on="0"/>
        <pt x="541" y="193" on="1"/>
        <pt x="619" y="144" on="0"/>
        <pt x="725" y="144" on="1"/>
        <pt x="831" y="144" on="0"/>
        <pt x="909" y="193" on="1"/>
        <pt x="987" y="242" on="0"/>
        <pt x="987" y="300" on="1"/>
        <pt x="987" y="993" on="1"/>
        <pt x="900" y="1046" on="1"/>
        <pt x="812" y="1099" on="0"/>
        <pt x="812" y="1131" on="1"/>
        <pt x="812" y="1162" on="0"/>
        <pt x="868" y="1247" on="1"/>
        <pt x="1036" y="1500" on="1"/>
        <pt x="1144" y="1438" on="1"/>
        <pt x="1198" y="1406" on="1"/>
        <pt x="1245" y="1379" on="0"/>
        <pt x="1278" y="1379" on="1"/>
        <pt x="1284" y="1379" on="0"/>
        <pt x="1289" y="1380" on="1"/>
        <pt x="1325" y="1385" on="1"/>
        <pt x="1325" y="1350" on="0"/>
        <pt x="1243" y="1222" on="0"/>
        <pt x="1202" y="1216" on="1"/>
        <pt x="1196" y="1215" on="0"/>
        <pt x="1189" y="1215" on="1"/>
        <pt x="1151" y="1215" on="0"/>
        <pt x="1094" y="1249" on="1"/>
        <pt x="1026" y="1288" on="1"/>
        <pt x="983" y="1213" on="1"/>
        <pt x="1175" y="1100" on="1"/>
        <pt x="1175" y="300" on="1"/>
        <pt x="1175" y="242" on="0"/>
        <pt x="1253" y="193" on="1"/>
        <pt x="1331" y="144" on="0"/>
        <pt x="1437" y="144" on="1"/>
        <pt x="1543" y="144" on="0"/>
        <pt x="1621" y="193" on="1"/>
        <pt x="1699" y="242" on="0"/>
        <pt x="1699" y="300" on="1"/>
        <pt x="1699" y="993" on="1"/>
        <pt x="1612" y="1046" on="1"/>
        <pt x="1524" y="1099" on="0"/>
        <pt x="1524" y="1131" on="1"/>
        <pt x="1524" y="1162" on="0"/>
        <pt x="1605" y="1247" on="1"/>
        <pt x="1725" y="1373" on="1"/>
        <pt x="1846" y="1500" on="0"/>
        <pt x="1939" y="1500" on="1"/>
        <pt x="2022" y="1500" on="0"/>
        <pt x="2094" y="1467" on="1"/>
        <pt x="2491" y="1285" on="1"/>
        <pt x="2599" y="1235" on="0"/>
        <pt x="2599" y="1114" on="1"/>
        <pt x="2599" y="0" on="1"/>
        <pt x="2411" y="0" on="1"/>
        <pt x="2411" y="1114" on="1"/>
        <pt x="2016" y="1296" on="1"/>
        <pt x="1959" y="1322" on="0"/>
        <pt x="1928" y="1322" on="1"/>
        <pt x="1857" y="1322" on="0"/>
        <pt x="1740" y="1186" on="1"/>
        <pt x="1887" y="1100" on="1"/>
      </contour>
    </TTGlyph>
    <TTGlyph name="uni1783_17C5" xMin="100" yMin="0" xMax="2649" yMax="1900">
      <contour>
        <pt x="275" y="1266" on="1"/>
        <pt x="225" y="1216" on="0"/>
        <pt x="225" y="1185" on="1"/>
        <pt x="225" y="1160" on="0"/>
        <pt x="240" y="1149" on="1"/>
        <pt x="255" y="1139" on="0"/>
        <pt x="275" y="1139" on="1"/>
      </contour>
      <contour>
        <pt x="2596" y="1155" on="1"/>
        <pt x="2599" y="1135" on="0"/>
        <pt x="2599" y="1114" on="1"/>
        <pt x="2599" y="0" on="1"/>
        <pt x="2411" y="0" on="1"/>
        <pt x="2411" y="1114" on="1"/>
        <pt x="2016" y="1296" on="1"/>
        <pt x="1959" y="1322" on="0"/>
        <pt x="1928" y="1322" on="1"/>
        <pt x="1857" y="1322" on="0"/>
        <pt x="1740" y="1186" on="1"/>
        <pt x="1887" y="1100" on="1"/>
        <pt x="1887" y="300" on="1"/>
        <pt x="1887" y="200" on="0"/>
        <pt x="1762" y="100" on="1"/>
        <pt x="1637" y="0" on="0"/>
        <pt x="1437" y="0" on="1"/>
        <pt x="1237" y="0" on="0"/>
        <pt x="1112" y="100" on="1"/>
        <pt x="1095" y="113" on="0"/>
        <pt x="1081" y="127" on="1"/>
        <pt x="1067" y="113" on="0"/>
        <pt x="1050" y="100" on="1"/>
        <pt x="925" y="0" on="0"/>
        <pt x="725" y="0" on="1"/>
        <pt x="525" y="0" on="0"/>
        <pt x="400" y="100" on="1"/>
        <pt x="275" y="200" on="0"/>
        <pt x="275" y="300" on="1"/>
        <pt x="275" y="1000" on="1"/>
        <pt x="175" y="1000" on="0"/>
        <pt x="138" y="1050" on="1"/>
        <pt x="100" y="1100" on="0"/>
        <pt x="100" y="1155" on="1"/>
        <pt x="100" y="1212" on="0"/>
        <pt x="122" y="1261" on="1"/>
        <pt x="144" y="1311" on="0"/>
        <pt x="210" y="1406" on="1"/>
        <pt x="275" y="1500" on="0"/>
        <pt x="339" y="1500" on="1"/>
        <pt x="463" y="1500" on="0"/>
        <pt x="463" y="1400" on="1"/>
        <pt x="463" y="300" on="1"/>
        <pt x="463" y="242" on="0"/>
        <pt x="541" y="193" on="1"/>
        <pt x="619" y="144" on="0"/>
        <pt x="725" y="144" on="1"/>
        <pt x="831" y="144" on="0"/>
        <pt x="909" y="193" on="1"/>
        <pt x="987" y="242" on="0"/>
        <pt x="987" y="300" on="1"/>
        <pt x="987" y="993" on="1"/>
        <pt x="900" y="1046" on="1"/>
        <pt x="812" y="1099" on="0"/>
        <pt x="812" y="1131" on="1"/>
        <pt x="812" y="1162" on="0"/>
        <pt x="868" y="1247" on="1"/>
        <pt x="1036" y="1500" on="1"/>
        <pt x="1144" y="1438" on="1"/>
        <pt x="1198" y="1406" on="1"/>
        <pt x="1245" y="1379" on="0"/>
        <pt x="1278" y="1379" on="1"/>
        <pt x="1284" y="1379" on="0"/>
        <pt x="1289" y="1380" on="1"/>
        <pt x="1325" y="1385" on="1"/>
        <pt x="1325" y="1350" on="0"/>
        <pt x="1243" y="1222" on="0"/>
        <pt x="1202" y="1216" on="1"/>
        <pt x="1196" y="1215" on="0"/>
        <pt x="1189" y="1215" on="1"/>
        <pt x="1151" y="1215" on="0"/>
        <pt x="1094" y="1249" on="1"/>
        <pt x="1026" y="1288" on="1"/>
        <pt x="983" y="1213" on="1"/>
        <pt x="1175" y="1100" on="1"/>
        <pt x="1175" y="300" on="1"/>
        <pt x="1175" y="242" on="0"/>
        <pt x="1253" y="193" on="1"/>
        <pt x="1331" y="144" on="0"/>
        <pt x="1437" y="144" on="1"/>
        <pt x="1543" y="144" on="0"/>
        <pt x="1621" y="193" on="1"/>
        <pt x="1699" y="242" on="0"/>
        <pt x="1699" y="300" on="1"/>
        <pt x="1699" y="993" on="1"/>
        <pt x="1612" y="1046" on="1"/>
        <pt x="1524" y="1099" on="0"/>
        <pt x="1524" y="1131" on="1"/>
        <pt x="1524" y="1162" on="0"/>
        <pt x="1605" y="1247" on="1"/>
        <pt x="1725" y="1373" on="1"/>
        <pt x="1846" y="1500" on="0"/>
        <pt x="1939" y="1500" on="1"/>
        <pt x="2022" y="1500" on="0"/>
        <pt x="2094" y="1467" on="1"/>
        <pt x="2461" y="1299" on="1"/>
        <pt x="2461" y="1700" on="1"/>
        <pt x="2461" y="1800" on="0"/>
        <pt x="2361" y="1800" on="1"/>
        <pt x="2361" y="1900" on="0"/>
        <pt x="2486" y="1900" on="1"/>
        <pt x="2649" y="1900" on="0"/>
        <pt x="2649" y="1700" on="1"/>
        <pt x="2649" y="1300" on="1"/>
        <pt x="2649" y="1243" on="0"/>
      </contour>
    </TTGlyph>
    <TTGlyph name="uni1784" xMin="100" yMin="0" xMax="1200" yMax="1700">
      <contour>
        <pt x="250" y="639" on="1"/>
        <pt x="250" y="736" on="1"/>
        <pt x="210" y="716" on="0"/>
        <pt x="210" y="685" on="1"/>
        <pt x="210" y="660" on="0"/>
        <pt x="220" y="650" on="1"/>
        <pt x="230" y="639" on="0"/>
      </contour>
      <contour>
        <pt x="930" y="1320" on="1"/>
        <pt x="930" y="1366" on="0"/>
        <pt x="880" y="1366" on="1"/>
        <pt x="830" y="1366" on="0"/>
        <pt x="830" y="1320" on="1"/>
        <pt x="830" y="1286" on="0"/>
        <pt x="888" y="1248" on="1"/>
        <pt x="930" y="1273" on="0"/>
      </contour>
      <contour>
        <pt x="438" y="186" on="1"/>
        <pt x="725" y="423" on="1"/>
        <pt x="1012" y="186" on="1"/>
        <pt x="1012" y="899" on="1"/>
        <pt x="1012" y="1007" on="0"/>
        <pt x="968" y="1041" on="1"/>
        <pt x="924" y="1065" on="0"/>
        <pt x="888" y="1089" on="1"/>
        <pt x="746" y="1000" on="0"/>
        <pt x="580" y="1000" on="1"/>
        <pt x="422" y="1000" on="0"/>
        <pt x="339" y="1069" on="1"/>
        <pt x="250" y="1144" on="0"/>
        <pt x="250" y="1260" on="1"/>
        <pt x="250" y="1325" on="0"/>
        <pt x="300" y="1460" on="0"/>
        <pt x="300" y="1530" on="1"/>
        <pt x="300" y="1600" on="0"/>
        <pt x="200" y="1600" on="1"/>
        <pt x="200" y="1700" on="0"/>
        <pt x="300" y="1700" on="1"/>
        <pt x="488" y="1700" on="0"/>
        <pt x="488" y="1530" on="1"/>
        <pt x="488" y="1445" on="0"/>
        <pt x="438" y="1330" on="0"/>
        <pt x="438" y="1260" on="1"/>
        <pt x="438" y="1191" on="0"/>
        <pt x="520" y="1144" on="0"/>
        <pt x="580" y="1144" on="1"/>
        <pt x="694" y="1144" on="0"/>
        <pt x="767" y="1173" on="1"/>
        <pt x="690" y="1244" on="0"/>
        <pt x="690" y="1320" on="1"/>
        <pt x="690" y="1500" on="0"/>
        <pt x="880" y="1500" on="1"/>
        <pt x="1070" y="1500" on="0"/>
        <pt x="1070" y="1320" on="1"/>
        <pt x="1070" y="1243" on="0"/>
        <pt x="992" y="1172" on="1"/>
        <pt x="1013" y="1161" on="0"/>
        <pt x="1035" y="1150" on="1"/>
        <pt x="1200" y="1062" on="0"/>
        <pt x="1200" y="899" on="1"/>
        <pt x="1200" y="0" on="1"/>
        <pt x="1012" y="0" on="1"/>
        <pt x="725" y="236" on="1"/>
        <pt x="438" y="0" on="1"/>
        <pt x="250" y="0" on="1"/>
        <pt x="250" y="500" on="1"/>
        <pt x="170" y="500" on="0"/>
        <pt x="100" y="600" on="0"/>
        <pt x="100" y="655" on="1"/>
        <pt x="100" y="712" on="0"/>
        <pt x="139" y="801" on="0"/>
        <pt x="250" y="900" on="0"/>
        <pt x="344" y="900" on="1"/>
        <pt x="438" y="900" on="0"/>
        <pt x="438" y="800" on="1"/>
      </contour>
    </TTGlyph>
    <TTGlyph name="uni1784_17B6" xMin="100" yMin="0" xMax="1912" yMax="1700">
      <contour>
        <pt x="250" y="639" on="1"/>
        <pt x="250" y="736" on="1"/>
        <pt x="210" y="716" on="0"/>
        <pt x="210" y="685" on="1"/>
        <pt x="210" y="660" on="0"/>
        <pt x="220" y="650" on="1"/>
        <pt x="230" y="639" on="0"/>
      </contour>
      <contour>
        <pt x="930" y="1320" on="1"/>
        <pt x="930" y="1366" on="0"/>
        <pt x="880" y="1366" on="1"/>
        <pt x="830" y="1366" on="0"/>
        <pt x="830" y="1320" on="1"/>
        <pt x="830" y="1286" on="0"/>
        <pt x="888" y="1248" on="1"/>
        <pt x="930" y="1273" on="0"/>
      </contour>
      <contour>
        <pt x="1081" y="1122" on="1"/>
        <pt x="1200" y="1038" on="0"/>
        <pt x="1200" y="899" on="1"/>
        <pt x="1200" y="0" on="1"/>
        <pt x="1012" y="0" on="1"/>
        <pt x="725" y="236" on="1"/>
        <pt x="438" y="0" on="1"/>
        <pt x="250" y="0" on="1"/>
        <pt x="250" y="500" on="1"/>
        <pt x="170" y="500" on="0"/>
        <pt x="100" y="600" on="0"/>
        <pt x="100" y="655" on="1"/>
        <pt x="100" y="712" on="0"/>
        <pt x="139" y="801" on="0"/>
        <pt x="250" y="900" on="0"/>
        <pt x="344" y="900" on="1"/>
        <pt x="438" y="900" on="0"/>
        <pt x="438" y="800" on="1"/>
        <pt x="438" y="186" on="1"/>
        <pt x="725" y="423" on="1"/>
        <pt x="1012" y="186" on="1"/>
        <pt x="1012" y="899" on="1"/>
        <pt x="1012" y="1007" on="0"/>
        <pt x="968" y="1041" on="1"/>
        <pt x="924" y="1065" on="0"/>
        <pt x="888" y="1089" on="1"/>
        <pt x="746" y="1000" on="0"/>
        <pt x="580" y="1000" on="1"/>
        <pt x="422" y="1000" on="0"/>
        <pt x="339" y="1069" on="1"/>
        <pt x="250" y="1144" on="0"/>
        <pt x="250" y="1260" on="1"/>
        <pt x="250" y="1325" on="0"/>
        <pt x="300" y="1460" on="0"/>
        <pt x="300" y="1530" on="1"/>
        <pt x="300" y="1600" on="0"/>
        <pt x="200" y="1600" on="1"/>
        <pt x="200" y="1700" on="0"/>
        <pt x="300" y="1700" on="1"/>
        <pt x="488" y="1700" on="0"/>
        <pt x="488" y="1530" on="1"/>
        <pt x="488" y="1445" on="0"/>
        <pt x="438" y="1330" on="0"/>
        <pt x="438" y="1260" on="1"/>
        <pt x="438" y="1191" on="0"/>
        <pt x="520" y="1144" on="0"/>
        <pt x="580" y="1144" on="1"/>
        <pt x="694" y="1144" on="0"/>
        <pt x="767" y="1173" on="1"/>
        <pt x="690" y="1244" on="0"/>
        <pt x="690" y="1320" on="1"/>
        <pt x="690" y="1500" on="0"/>
        <pt x="880" y="1500" on="1"/>
        <pt x="1070" y="1500" on="0"/>
        <pt x="1070" y="1320" on="1"/>
        <pt x="1070" y="1304" on="0"/>
        <pt x="1067" y="1289" on="1"/>
        <pt x="1248" y="1413" on="1"/>
        <pt x="1376" y="1500" on="0"/>
        <pt x="1467" y="1500" on="1"/>
        <pt x="1556" y="1500" on="0"/>
        <pt x="1642" y="1433" on="1"/>
        <pt x="1834" y="1282" on="1"/>
        <pt x="1912" y="1223" on="0"/>
        <pt x="1912" y="1128" on="1"/>
        <pt x="1912" y="0" on="1"/>
        <pt x="1724" y="0" on="1"/>
        <pt x="1724" y="1128" on="1"/>
        <pt x="1487" y="1319" on="1"/>
        <pt x="1465" y="1336" on="0"/>
        <pt x="1437" y="1336" on="1"/>
        <pt x="1390" y="1336" on="0"/>
        <pt x="1327" y="1291" on="1"/>
      </contour>
    </TTGlyph>
    <TTGlyph name="uni1784_17C5" xMin="100" yMin="0" xMax="1962" yMax="1900">
      <contour>
        <pt x="250" y="639" on="1"/>
        <pt x="250" y="736" on="1"/>
        <pt x="210" y="716" on="0"/>
        <pt x="210" y="685" on="1"/>
        <pt x="210" y="660" on="0"/>
        <pt x="220" y="650" on="1"/>
        <pt x="230" y="639" on="0"/>
      </contour>
      <contour>
        <pt x="930" y="1320" on="1"/>
        <pt x="930" y="1366" on="0"/>
        <pt x="880" y="1366" on="1"/>
        <pt x="830" y="1366" on="0"/>
        <pt x="830" y="1320" on="1"/>
        <pt x="830" y="1286" on="0"/>
        <pt x="888" y="1248" on="1"/>
        <pt x="930" y="1273" on="0"/>
      </contour>
      <contour>
        <pt x="1910" y="1157" on="1"/>
        <pt x="1912" y="1143" on="0"/>
        <pt x="1912" y="1128" on="1"/>
        <pt x="1912" y="0" on="1"/>
        <pt x="1724" y="0" on="1"/>
        <pt x="1724" y="1128" on="1"/>
        <pt x="1487" y="1319" on="1"/>
        <pt x="1465" y="1336" on="0"/>
        <pt x="1437" y="1336" on="1"/>
        <pt x="1390" y="1336" on="0"/>
        <pt x="1327" y="1291" on="1"/>
        <pt x="1081" y="1122" on="1"/>
        <pt x="1200" y="1038" on="0"/>
        <pt x="1200" y="899" on="1"/>
        <pt x="1200" y="0" on="1"/>
        <pt x="1012" y="0" on="1"/>
        <pt x="725" y="236" on="1"/>
        <pt x="438" y="0" on="1"/>
        <pt x="250" y="0" on="1"/>
        <pt x="250" y="500" on="1"/>
        <pt x="170" y="500" on="0"/>
        <pt x="100" y="600" on="0"/>
        <pt x="100" y="655" on="1"/>
        <pt x="100" y="712" on="0"/>
        <pt x="139" y="801" on="0"/>
        <pt x="250" y="900" on="0"/>
        <pt x="344" y="900" on="1"/>
        <pt x="438" y="900" on="0"/>
        <pt x="438" y="800" on="1"/>
        <pt x="438" y="186" on="1"/>
        <pt x="725" y="423" on="1"/>
        <pt x="1012" y="186" on="1"/>
        <pt x="1012" y="899" on="1"/>
        <pt x="1012" y="1007" on="0"/>
        <pt x="968" y="1041" on="1"/>
        <pt x="924" y="1065" on="0"/>
        <pt x="888" y="1089" on="1"/>
        <pt x="746" y="1000" on="0"/>
        <pt x="580" y="1000" on="1"/>
        <pt x="422" y="1000" on="0"/>
        <pt x="339" y="1069" on="1"/>
        <pt x="250" y="1144" on="0"/>
        <pt x="250" y="1260" on="1"/>
        <pt x="250" y="1325" on="0"/>
        <pt x="300" y="1460" on="0"/>
        <pt x="300" y="1530" on="1"/>
        <pt x="300" y="1600" on="0"/>
        <pt x="200" y="1600" on="1"/>
        <pt x="200" y="1700" on="0"/>
        <pt x="300" y="1700" on="1"/>
        <pt x="488" y="1700" on="0"/>
        <pt x="488" y="1530" on="1"/>
        <pt x="488" y="1445" on="0"/>
        <pt x="438" y="1330" on="0"/>
        <pt x="438" y="1260" on="1"/>
        <pt x="438" y="1191" on="0"/>
        <pt x="520" y="1144" on="0"/>
        <pt x="580" y="1144" on="1"/>
        <pt x="694" y="1144" on="0"/>
        <pt x="767" y="1173" on="1"/>
        <pt x="690" y="1244" on="0"/>
        <pt x="690" y="1320" on="1"/>
        <pt x="690" y="1500" on="0"/>
        <pt x="880" y="1500" on="1"/>
        <pt x="1070" y="1500" on="0"/>
        <pt x="1070" y="1320" on="1"/>
        <pt x="1070" y="1304" on="0"/>
        <pt x="1067" y="1289" on="1"/>
        <pt x="1248" y="1413" on="1"/>
        <pt x="1376" y="1500" on="0"/>
        <pt x="1467" y="1500" on="1"/>
        <pt x="1556" y="1500" on="0"/>
        <pt x="1642" y="1433" on="1"/>
        <pt x="1774" y="1329" on="1"/>
        <pt x="1774" y="1700" on="1"/>
        <pt x="1774" y="1800" on="0"/>
        <pt x="1674" y="1800" on="1"/>
        <pt x="1674" y="1900" on="0"/>
        <pt x="1799" y="1900" on="1"/>
        <pt x="1962" y="1900" on="0"/>
        <pt x="1962" y="1700" on="1"/>
        <pt x="1962" y="1300" on="1"/>
        <pt x="1962" y="1244" on="0"/>
      </contour>
    </TTGlyph>
    <TTGlyph name="uni1785" xMin="150" yMin="0" xMax="1300" yMax="1500">
      <contour>
        <pt x="1012" y="739" on="1"/>
        <pt x="1012" y="836" on="1"/>
        <pt x="972" y="816" on="0"/>
        <pt x="972" y="785" on="1"/>
        <pt x="972" y="760" on="0"/>
        <pt x="982" y="750" on="1"/>
        <pt x="992" y="739" on="0"/>
      </contour>
      <contour>
        <pt x="438" y="300" on="1"/>
        <pt x="438" y="242" on="0"/>
        <pt x="516" y="193" on="1"/>
        <pt x="594" y="144" on="0"/>
        <pt x="700" y="144" on="1"/>
        <pt x="750" y="144" on="1"/>
        <pt x="856" y="144" on="0"/>
        <pt x="934" y="193" on="1"/>
        <pt x="1012" y="242" on="0"/>
        <pt x="1012" y="300" on="1"/>
        <pt x="1012" y="600" on="1"/>
        <pt x="932" y="600" on="0"/>
        <pt x="862" y="700" on="0"/>
        <pt x="862" y="755" on="1"/>
        <pt x="862" y="812" on="0"/>
        <pt x="901" y="901" on="0"/>
        <pt x="1012" y="1000" on="0"/>
        <pt x="1106" y="1000" on="1"/>
        <pt x="1200" y="1000" on="0"/>
        <pt x="1200" y="900" on="1"/>
        <pt x="1200" y="300" on="1"/>
        <pt x="1200" y="200" on="0"/>
        <pt x="1075" y="100" on="1"/>
        <pt x="950" y="0" on="0"/>
        <pt x="750" y="0" on="1"/>
        <pt x="700" y="0" on="1"/>
        <pt x="500" y="0" on="0"/>
        <pt x="375" y="100" on="1"/>
        <pt x="250" y="200" on="0"/>
        <pt x="250" y="300" on="1"/>
        <pt x="250" y="1010" on="1"/>
        <pt x="180" y="1076" on="0"/>
        <pt x="150" y="1127" on="0"/>
        <pt x="150" y="1165" on="1"/>
        <pt x="150" y="1202" on="0"/>
        <pt x="180" y="1254" on="0"/>
        <pt x="246" y="1316" on="1"/>
        <pt x="311" y="1377" on="1"/>
        <pt x="442" y="1500" on="0"/>
        <pt x="474" y="1500" on="1"/>
        <pt x="511" y="1500" on="0"/>
        <pt x="619" y="1388" on="1"/>
        <pt x="673" y="1332" on="1"/>
        <pt x="700" y="1303" on="0"/>
        <pt x="730" y="1303" on="1"/>
        <pt x="755" y="1303" on="0"/>
        <pt x="781" y="1332" on="1"/>
        <pt x="831" y="1388" on="1"/>
        <pt x="932" y="1500" on="0"/>
        <pt x="968" y="1500" on="1"/>
        <pt x="1003" y="1500" on="0"/>
        <pt x="1060" y="1438" on="1"/>
        <pt x="1178" y="1313" on="1"/>
        <pt x="1213" y="1276" on="0"/>
        <pt x="1249" y="1276" on="1"/>
        <pt x="1275" y="1276" on="0"/>
        <pt x="1300" y="1294" on="1"/>
        <pt x="1230" y="1127" on="0"/>
        <pt x="1165" y="1127" on="1"/>
        <pt x="1097" y="1127" on="0"/>
        <pt x="1061" y="1166" on="1"/>
        <pt x="983" y="1247" on="1"/>
        <pt x="943" y="1288" on="0"/>
        <pt x="910" y="1288" on="1"/>
        <pt x="867" y="1288" on="0"/>
        <pt x="809" y="1208" on="1"/>
        <pt x="750" y="1127" on="0"/>
        <pt x="700" y="1127" on="1"/>
        <pt x="628" y="1127" on="0"/>
        <pt x="542" y="1208" on="1"/>
        <pt x="498" y="1248" on="1"/>
        <pt x="455" y="1288" on="0"/>
        <pt x="417" y="1288" on="1"/>
        <pt x="394" y="1288" on="0"/>
        <pt x="375" y="1266" on="1"/>
        <pt x="336" y="1222" on="1"/>
        <pt x="328" y="1213" on="0"/>
        <pt x="328" y="1203" on="1"/>
        <pt x="328" y="1187" on="0"/>
        <pt x="347" y="1167" on="1"/>
        <pt x="377" y="1134" on="1"/>
        <pt x="438" y="1068" on="1"/>
      </contour>
    </TTGlyph>
    <TTGlyph name="uni1785_17B6" xMin="150" yMin="0" xMax="1912" yMax="1500">
      <contour>
        <pt x="1012" y="739" on="1"/>
        <pt x="1012" y="836" on="1"/>
        <pt x="972" y="816" on="0"/>
        <pt x="972" y="785" on="1"/>
        <pt x="972" y="760" on="0"/>
        <pt x="982" y="750" on="1"/>
        <pt x="992" y="739" on="0"/>
      </contour>
      <contour>
        <pt x="438" y="300" on="1"/>
        <pt x="438" y="242" on="0"/>
        <pt x="516" y="193" on="1"/>
        <pt x="594" y="144" on="0"/>
        <pt x="700" y="144" on="1"/>
        <pt x="750" y="144" on="1"/>
        <pt x="856" y="144" on="0"/>
        <pt x="934" y="193" on="1"/>
        <pt x="1012" y="242" on="0"/>
        <pt x="1012" y="300" on="1"/>
        <pt x="1012" y="600" on="1"/>
        <pt x="932" y="600" on="0"/>
        <pt x="862" y="700" on="0"/>
        <pt x="862" y="755" on="1"/>
        <pt x="862" y="812" on="0"/>
        <pt x="901" y="901" on="0"/>
        <pt x="1012" y="1000" on="0"/>
        <pt x="1106" y="1000" on="1"/>
        <pt x="1200" y="1000" on="0"/>
        <pt x="1200" y="900" on="1"/>
        <pt x="1200" y="300" on="1"/>
        <pt x="1200" y="200" on="0"/>
        <pt x="1075" y="100" on="1"/>
        <pt x="950" y="0" on="0"/>
        <pt x="750" y="0" on="1"/>
        <pt x="700" y="0" on="1"/>
        <pt x="500" y="0" on="0"/>
        <pt x="375" y="100" on="1"/>
        <pt x="250" y="200" on="0"/>
        <pt x="250" y="300" on="1"/>
        <pt x="250" y="1010" on="1"/>
        <pt x="180" y="1076" on="0"/>
        <pt x="150" y="1127" on="0"/>
        <pt x="150" y="1165" on="1"/>
        <pt x="150" y="1202" on="0"/>
        <pt x="180" y="1254" on="0"/>
        <pt x="281" y="1316" on="1"/>
        <pt x="383" y="1377" on="1"/>
        <pt x="585" y="1500" on="0"/>
        <pt x="634" y="1500" on="1"/>
        <pt x="687" y="1500" on="0"/>
        <pt x="850" y="1388" on="1"/>
        <pt x="933" y="1332" on="1"/>
        <pt x="976" y="1303" on="0"/>
        <pt x="1022" y="1303" on="1"/>
        <pt x="1069" y="1303" on="0"/>
        <pt x="1109" y="1332" on="1"/>
        <pt x="1186" y="1388" on="1"/>
        <pt x="1342" y="1500" on="0"/>
        <pt x="1396" y="1500" on="1"/>
        <pt x="1449" y="1500" on="0"/>
        <pt x="1565" y="1420" on="1"/>
        <pt x="1767" y="1280" on="1"/>
        <pt x="1912" y="1180" on="0"/>
        <pt x="1912" y="1000" on="1"/>
        <pt x="1912" y="0" on="1"/>
        <pt x="1724" y="0" on="1"/>
        <pt x="1724" y="1000" on="1"/>
        <pt x="1724" y="1081" on="0"/>
        <pt x="1661" y="1122" on="1"/>
        <pt x="1597" y="1167" on="1"/>
        <pt x="1452" y="1267" on="1"/>
        <pt x="1395" y="1308" on="0"/>
        <pt x="1338" y="1308" on="1"/>
        <pt x="1272" y="1308" on="0"/>
        <pt x="1152" y="1208" on="1"/>
        <pt x="1061" y="1127" on="0"/>
        <pt x="984" y="1127" on="1"/>
        <pt x="899" y="1127" on="0"/>
        <pt x="774" y="1212" on="1"/>
        <pt x="701" y="1262" on="1"/>
        <pt x="633" y="1308" on="0"/>
        <pt x="571" y="1308" on="1"/>
        <pt x="508" y="1308" on="0"/>
        <pt x="412" y="1254" on="1"/>
        <pt x="364" y="1227" on="1"/>
        <pt x="335" y="1211" on="0"/>
        <pt x="335" y="1192" on="1"/>
        <pt x="335" y="1180" on="0"/>
        <pt x="347" y="1167" on="1"/>
        <pt x="377" y="1134" on="1"/>
        <pt x="438" y="1068" on="1"/>
      </contour>
    </TTGlyph>
    <TTGlyph name="uni1785_17C5" xMin="150" yMin="0" xMax="1962" yMax="1900">
      <contour>
        <pt x="1012" y="739" on="1"/>
        <pt x="1012" y="836" on="1"/>
        <pt x="972" y="816" on="0"/>
        <pt x="972" y="785" on="1"/>
        <pt x="972" y="760" on="0"/>
        <pt x="982" y="750" on="1"/>
        <pt x="992" y="739" on="0"/>
      </contour>
      <contour>
        <pt x="1891" y="1126" on="1"/>
        <pt x="1912" y="1069" on="0"/>
        <pt x="1912" y="1000" on="1"/>
        <pt x="1912" y="0" on="1"/>
        <pt x="1724" y="0" on="1"/>
        <pt x="1724" y="1000" on="1"/>
        <pt x="1724" y="1081" on="0"/>
        <pt x="1661" y="1122" on="1"/>
        <pt x="1597" y="1167" on="1"/>
        <pt x="1452" y="1267" on="1"/>
        <pt x="1395" y="1308" on="0"/>
        <pt x="1338" y="1308" on="1"/>
        <pt x="1272" y="1308" on="0"/>
        <pt x="1152" y="1208" on="1"/>
        <pt x="1061" y="1127" on="0"/>
        <pt x="984" y="1127" on="1"/>
        <pt x="899" y="1127" on="0"/>
        <pt x="774" y="1212" on="1"/>
        <pt x="701" y="1262" on="1"/>
        <pt x="633" y="1308" on="0"/>
        <pt x="571" y="1308" on="1"/>
        <pt x="508" y="1308" on="0"/>
        <pt x="412" y="1254" on="1"/>
        <pt x="364" y="1227" on="1"/>
        <pt x="335" y="1211" on="0"/>
        <pt x="335" y="1192" on="1"/>
        <pt x="335" y="1180" on="0"/>
        <pt x="347" y="1167" on="1"/>
        <pt x="377" y="1134" on="1"/>
        <pt x="438" y="1068" on="1"/>
        <pt x="438" y="300" on="1"/>
        <pt x="438" y="242" on="0"/>
        <pt x="516" y="193" on="1"/>
        <pt x="594" y="144" on="0"/>
        <pt x="700" y="144" on="1"/>
        <pt x="750" y="144" on="1"/>
        <pt x="856" y="144" on="0"/>
        <pt x="934" y="193" on="1"/>
        <pt x="1012" y="242" on="0"/>
        <pt x="1012" y="300" on="1"/>
        <pt x="1012" y="600" on="1"/>
        <pt x="932" y="600" on="0"/>
        <pt x="862" y="700" on="0"/>
        <pt x="862" y="755" on="1"/>
        <pt x="862" y="812" on="0"/>
        <pt x="901" y="901" on="0"/>
        <pt x="1012" y="1000" on="0"/>
        <pt x="1106" y="1000" on="1"/>
        <pt x="1200" y="1000" on="0"/>
        <pt x="1200" y="900" on="1"/>
        <pt x="1200" y="300" on="1"/>
        <pt x="1200" y="200" on="0"/>
        <pt x="1075" y="100" on="1"/>
        <pt x="950" y="0" on="0"/>
        <pt x="750" y="0" on="1"/>
        <pt x="700" y="0" on="1"/>
        <pt x="500" y="0" on="0"/>
        <pt x="375" y="100" on="1"/>
        <pt x="250" y="200" on="0"/>
        <pt x="250" y="300" on="1"/>
        <pt x="250" y="1010" on="1"/>
        <pt x="180" y="1076" on="0"/>
        <pt x="150" y="1127" on="0"/>
        <pt x="150" y="1165" on="1"/>
        <pt x="150" y="1202" on="0"/>
        <pt x="180" y="1254" on="0"/>
        <pt x="281" y="1316" on="1"/>
        <pt x="383" y="1377" on="1"/>
        <pt x="585" y="1500" on="0"/>
        <pt x="634" y="1500" on="1"/>
        <pt x="687" y="1500" on="0"/>
        <pt x="850" y="1388" on="1"/>
        <pt x="933" y="1332" on="1"/>
        <pt x="976" y="1303" on="0"/>
        <pt x="1022" y="1303" on="1"/>
        <pt x="1069" y="1303" on="0"/>
        <pt x="1109" y="1332" on="1"/>
        <pt x="1186" y="1388" on="1"/>
        <pt x="1342" y="1500" on="0"/>
        <pt x="1396" y="1500" on="1"/>
        <pt x="1449" y="1500" on="0"/>
        <pt x="1565" y="1420" on="1"/>
        <pt x="1767" y="1280" on="1"/>
        <pt x="1771" y="1278" on="0"/>
        <pt x="1774" y="1275" on="1"/>
        <pt x="1774" y="1700" on="1"/>
        <pt x="1774" y="1800" on="0"/>
        <pt x="1674" y="1800" on="1"/>
        <pt x="1674" y="1900" on="0"/>
        <pt x="1799" y="1900" on="1"/>
        <pt x="1962" y="1900" on="0"/>
        <pt x="1962" y="1700" on="1"/>
        <pt x="1962" y="1300" on="1"/>
        <pt x="1962" y="1234" on="0"/>
      </contour>
    </TTGlyph>
    <TTGlyph name="uni1786" xMin="100" yMin="0" xMax="1300" yMax="1500">
      <contour>
        <pt x="1012" y="739" on="1"/>
        <pt x="1012" y="836" on="1"/>
        <pt x="972" y="816" on="0"/>
        <pt x="972" y="785" on="1"/>
        <pt x="972" y="760" on="0"/>
        <pt x="982" y="750" on="1"/>
        <pt x="992" y="739" on="0"/>
      </contour>
      <contour>
        <pt x="250" y="366" on="1"/>
        <pt x="230" y="366" on="0"/>
        <pt x="210" y="345" on="0"/>
        <pt x="210" y="315" on="1"/>
        <pt x="210" y="284" on="0"/>
        <pt x="250" y="234" on="1"/>
      </contour>
      <contour>
        <pt x="438" y="500" on="1"/>
        <pt x="744" y="500" on="0"/>
        <pt x="744" y="250" on="1"/>
        <pt x="744" y="144" on="0"/>
        <pt x="900" y="144" on="1"/>
        <pt x="1012" y="144" on="0"/>
        <pt x="1012" y="250" on="1"/>
        <pt x="1012" y="600" on="1"/>
        <pt x="932" y="600" on="0"/>
        <pt x="862" y="700" on="0"/>
        <pt x="862" y="755" on="1"/>
        <pt x="862" y="812" on="0"/>
        <pt x="901" y="901" on="0"/>
        <pt x="1012" y="1000" on="0"/>
        <pt x="1106" y="1000" on="1"/>
        <pt x="1200" y="1000" on="0"/>
        <pt x="1200" y="900" on="1"/>
        <pt x="1200" y="250" on="1"/>
        <pt x="1200" y="0" on="0"/>
        <pt x="900" y="0" on="1"/>
        <pt x="600" y="0" on="0"/>
        <pt x="600" y="250" on="1"/>
        <pt x="600" y="366" on="0"/>
        <pt x="438" y="366" on="1"/>
        <pt x="438" y="0" on="1"/>
        <pt x="250" y="0" on="1"/>
        <pt x="175" y="124" on="1"/>
        <pt x="100" y="248" on="0"/>
        <pt x="100" y="345" on="1"/>
        <pt x="100" y="410" on="0"/>
        <pt x="180" y="500" on="0"/>
        <pt x="250" y="500" on="1"/>
        <pt x="250" y="1010" on="1"/>
        <pt x="180" y="1076" on="0"/>
        <pt x="150" y="1127" on="0"/>
        <pt x="150" y="1165" on="1"/>
        <pt x="150" y="1202" on="0"/>
        <pt x="180" y="1254" on="0"/>
        <pt x="246" y="1316" on="1"/>
        <pt x="311" y="1377" on="1"/>
        <pt x="442" y="1500" on="0"/>
        <pt x="474" y="1500" on="1"/>
        <pt x="511" y="1500" on="0"/>
        <pt x="619" y="1388" on="1"/>
        <pt x="673" y="1332" on="1"/>
        <pt x="700" y="1303" on="0"/>
        <pt x="730" y="1303" on="1"/>
        <pt x="755" y="1303" on="0"/>
        <pt x="781" y="1332" on="1"/>
        <pt x="831" y="1388" on="1"/>
        <pt x="932" y="1500" on="0"/>
        <pt x="968" y="1500" on="1"/>
        <pt x="1003" y="1500" on="0"/>
        <pt x="1060" y="1438" on="1"/>
        <pt x="1178" y="1313" on="1"/>
        <pt x="1213" y="1276" on="0"/>
        <pt x="1249" y="1276" on="1"/>
        <pt x="1275" y="1276" on="0"/>
        <pt x="1300" y="1294" on="1"/>
        <pt x="1230" y="1127" on="0"/>
        <pt x="1165" y="1127" on="1"/>
        <pt x="1097" y="1127" on="0"/>
        <pt x="1061" y="1166" on="1"/>
        <pt x="983" y="1247" on="1"/>
        <pt x="943" y="1288" on="0"/>
        <pt x="910" y="1288" on="1"/>
        <pt x="867" y="1288" on="0"/>
        <pt x="809" y="1208" on="1"/>
        <pt x="750" y="1127" on="0"/>
        <pt x="700" y="1127" on="1"/>
        <pt x="628" y="1127" on="0"/>
        <pt x="542" y="1208" on="1"/>
        <pt x="498" y="1248" on="1"/>
        <pt x="455" y="1288" on="0"/>
        <pt x="417" y="1288" on="1"/>
        <pt x="394" y="1288" on="0"/>
        <pt x="375" y="1266" on="1"/>
        <pt x="336" y="1222" on="1"/>
        <pt x="328" y="1213" on="0"/>
        <pt x="328" y="1203" on="1"/>
        <pt x="328" y="1187" on="0"/>
        <pt x="347" y="1167" on="1"/>
        <pt x="377" y="1134" on="1"/>
        <pt x="438" y="1068" on="1"/>
      </contour>
    </TTGlyph>
    <TTGlyph name="uni1786_17B6" xMin="100" yMin="0" xMax="1912" yMax="1500">
      <contour>
        <pt x="1012" y="739" on="1"/>
        <pt x="1012" y="836" on="1"/>
        <pt x="972" y="816" on="0"/>
        <pt x="972" y="785" on="1"/>
        <pt x="972" y="760" on="0"/>
        <pt x="982" y="750" on="1"/>
        <pt x="992" y="739" on="0"/>
      </contour>
      <contour>
        <pt x="250" y="366" on="1"/>
        <pt x="230" y="366" on="0"/>
        <pt x="210" y="345" on="0"/>
        <pt x="210" y="315" on="1"/>
        <pt x="210" y="284" on="0"/>
        <pt x="250" y="234" on="1"/>
      </contour>
      <contour>
        <pt x="438" y="500" on="1"/>
        <pt x="744" y="500" on="0"/>
        <pt x="744" y="250" on="1"/>
        <pt x="744" y="144" on="0"/>
        <pt x="900" y="144" on="1"/>
        <pt x="1012" y="144" on="0"/>
        <pt x="1012" y="250" on="1"/>
        <pt x="1012" y="600" on="1"/>
        <pt x="932" y="600" on="0"/>
        <pt x="862" y="700" on="0"/>
        <pt x="862" y="755" on="1"/>
        <pt x="862" y="812" on="0"/>
        <pt x="901" y="901" on="0"/>
        <pt x="1012" y="1000" on="0"/>
        <pt x="1106" y="1000" on="1"/>
        <pt x="1200" y="1000" on="0"/>
        <pt x="1200" y="900" on="1"/>
        <pt x="1200" y="250" on="1"/>
        <pt x="1200" y="0" on="0"/>
        <pt x="900" y="0" on="1"/>
        <pt x="600" y="0" on="0"/>
        <pt x="600" y="250" on="1"/>
        <pt x="600" y="366" on="0"/>
        <pt x="438" y="366" on="1"/>
        <pt x="438" y="0" on="1"/>
        <pt x="250" y="0" on="1"/>
        <pt x="175" y="124" on="1"/>
        <pt x="100" y="248" on="0"/>
        <pt x="100" y="345" on="1"/>
        <pt x="100" y="410" on="0"/>
        <pt x="180" y="500" on="0"/>
        <pt x="250" y="500" on="1"/>
        <pt x="250" y="1010" on="1"/>
        <pt x="180" y="1076" on="0"/>
        <pt x="150" y="1127" on="0"/>
        <pt x="150" y="1165" on="1"/>
        <pt x="150" y="1202" on="0"/>
        <pt x="180" y="1254" on="0"/>
        <pt x="281" y="1316" on="1"/>
        <pt x="383" y="1377" on="1"/>
        <pt x="585" y="1500" on="0"/>
        <pt x="634" y="1500" on="1"/>
        <pt x="687" y="1500" on="0"/>
        <pt x="850" y="1388" on="1"/>
        <pt x="933" y="1332" on="1"/>
        <pt x="976" y="1303" on="0"/>
        <pt x="1022" y="1303" on="1"/>
        <pt x="1069" y="1303" on="0"/>
        <pt x="1109" y="1332" on="1"/>
        <pt x="1186" y="1388" on="1"/>
        <pt x="1342" y="1500" on="0"/>
        <pt x="1396" y="1500" on="1"/>
        <pt x="1449" y="1500" on="0"/>
        <pt x="1565" y="1420" on="1"/>
        <pt x="1767" y="1280" on="1"/>
        <pt x="1912" y="1180" on="0"/>
        <pt x="1912" y="1000" on="1"/>
        <pt x="1912" y="0" on="1"/>
        <pt x="1724" y="0" on="1"/>
        <pt x="1724" y="1000" on="1"/>
        <pt x="1724" y="1081" on="0"/>
        <pt x="1661" y="1122" on="1"/>
        <pt x="1597" y="1167" on="1"/>
        <pt x="1452" y="1267" on="1"/>
        <pt x="1395" y="1308" on="0"/>
        <pt x="1338" y="1308" on="1"/>
        <pt x="1272" y="1308" on="0"/>
        <pt x="1152" y="1208" on="1"/>
        <pt x="1061" y="1127" on="0"/>
        <pt x="984" y="1127" on="1"/>
        <pt x="899" y="1127" on="0"/>
        <pt x="774" y="1212" on="1"/>
        <pt x="701" y="1262" on="1"/>
        <pt x="633" y="1308" on="0"/>
        <pt x="571" y="1308" on="1"/>
        <pt x="508" y="1308" on="0"/>
        <pt x="412" y="1254" on="1"/>
        <pt x="364" y="1227" on="1"/>
        <pt x="335" y="1211" on="0"/>
        <pt x="335" y="1192" on="1"/>
        <pt x="335" y="1180" on="0"/>
        <pt x="347" y="1167" on="1"/>
        <pt x="377" y="1134" on="1"/>
        <pt x="438" y="1068" on="1"/>
      </contour>
    </TTGlyph>
    <TTGlyph name="uni1786_17C5" xMin="100" yMin="0" xMax="1962" yMax="1900">
      <contour>
        <pt x="1012" y="739" on="1"/>
        <pt x="1012" y="836" on="1"/>
        <pt x="972" y="816" on="0"/>
        <pt x="972" y="785" on="1"/>
        <pt x="972" y="760" on="0"/>
        <pt x="982" y="750" on="1"/>
        <pt x="992" y="739" on="0"/>
      </contour>
      <contour>
        <pt x="250" y="366" on="1"/>
        <pt x="230" y="366" on="0"/>
        <pt x="210" y="345" on="0"/>
        <pt x="210" y="315" on="1"/>
        <pt x="210" y="284" on="0"/>
        <pt x="250" y="234" on="1"/>
      </contour>
      <contour>
        <pt x="1891" y="1126" on="1"/>
        <pt x="1912" y="1069" on="0"/>
        <pt x="1912" y="1000" on="1"/>
        <pt x="1912" y="0" on="1"/>
        <pt x="1724" y="0" on="1"/>
        <pt x="1724" y="1000" on="1"/>
        <pt x="1724" y="1081" on="0"/>
        <pt x="1661" y="1122" on="1"/>
        <pt x="1597" y="1167" on="1"/>
        <pt x="1452" y="1267" on="1"/>
        <pt x="1395" y="1308" on="0"/>
        <pt x="1338" y="1308" on="1"/>
        <pt x="1272" y="1308" on="0"/>
        <pt x="1152" y="1208" on="1"/>
        <pt x="1061" y="1127" on="0"/>
        <pt x="984" y="1127" on="1"/>
        <pt x="899" y="1127" on="0"/>
        <pt x="774" y="1212" on="1"/>
        <pt x="701" y="1262" on="1"/>
        <pt x="633" y="1308" on="0"/>
        <pt x="571" y="1308" on="1"/>
        <pt x="508" y="1308" on="0"/>
        <pt x="412" y="1254" on="1"/>
        <pt x="364" y="1227" on="1"/>
        <pt x="335" y="1211" on="0"/>
        <pt x="335" y="1192" on="1"/>
        <pt x="335" y="1180" on="0"/>
        <pt x="347" y="1167" on="1"/>
        <pt x="377" y="1134" on="1"/>
        <pt x="438" y="1068" on="1"/>
        <pt x="438" y="500" on="1"/>
        <pt x="744" y="500" on="0"/>
        <pt x="744" y="250" on="1"/>
        <pt x="744" y="144" on="0"/>
        <pt x="900" y="144" on="1"/>
        <pt x="1012" y="144" on="0"/>
        <pt x="1012" y="250" on="1"/>
        <pt x="1012" y="600" on="1"/>
        <pt x="932" y="600" on="0"/>
        <pt x="862" y="700" on="0"/>
        <pt x="862" y="755" on="1"/>
        <pt x="862" y="812" on="0"/>
        <pt x="901" y="901" on="0"/>
        <pt x="1012" y="1000" on="0"/>
        <pt x="1106" y="1000" on="1"/>
        <pt x="1200" y="1000" on="0"/>
        <pt x="1200" y="900" on="1"/>
        <pt x="1200" y="250" on="1"/>
        <pt x="1200" y="0" on="0"/>
        <pt x="900" y="0" on="1"/>
        <pt x="600" y="0" on="0"/>
        <pt x="600" y="250" on="1"/>
        <pt x="600" y="366" on="0"/>
        <pt x="438" y="366" on="1"/>
        <pt x="438" y="0" on="1"/>
        <pt x="250" y="0" on="1"/>
        <pt x="175" y="124" on="1"/>
        <pt x="100" y="248" on="0"/>
        <pt x="100" y="345" on="1"/>
        <pt x="100" y="410" on="0"/>
        <pt x="180" y="500" on="0"/>
        <pt x="250" y="500" on="1"/>
        <pt x="250" y="1010" on="1"/>
        <pt x="180" y="1076" on="0"/>
        <pt x="150" y="1127" on="0"/>
        <pt x="150" y="1165" on="1"/>
        <pt x="150" y="1202" on="0"/>
        <pt x="180" y="1254" on="0"/>
        <pt x="281" y="1316" on="1"/>
        <pt x="383" y="1377" on="1"/>
        <pt x="585" y="1500" on="0"/>
        <pt x="634" y="1500" on="1"/>
        <pt x="687" y="1500" on="0"/>
        <pt x="850" y="1388" on="1"/>
        <pt x="933" y="1332" on="1"/>
        <pt x="976" y="1303" on="0"/>
        <pt x="1022" y="1303" on="1"/>
        <pt x="1069" y="1303" on="0"/>
        <pt x="1109" y="1332" on="1"/>
        <pt x="1186" y="1388" on="1"/>
        <pt x="1342" y="1500" on="0"/>
        <pt x="1396" y="1500" on="1"/>
        <pt x="1449" y="1500" on="0"/>
        <pt x="1565" y="1420" on="1"/>
        <pt x="1767" y="1280" on="1"/>
        <pt x="1771" y="1278" on="0"/>
        <pt x="1774" y="1275" on="1"/>
        <pt x="1774" y="1700" on="1"/>
        <pt x="1774" y="1800" on="0"/>
        <pt x="1674" y="1800" on="1"/>
        <pt x="1674" y="1900" on="0"/>
        <pt x="1799" y="1900" on="1"/>
        <pt x="1962" y="1900" on="0"/>
        <pt x="1962" y="1700" on="1"/>
        <pt x="1962" y="1300" on="1"/>
        <pt x="1962" y="1234" on="0"/>
      </contour>
    </TTGlyph>
    <TTGlyph name="uni1787" xMin="150" yMin="0" xMax="1200" yMax="1700">
      <contour>
        <pt x="438" y="186" on="1"/>
        <pt x="725" y="423" on="1"/>
        <pt x="1012" y="186" on="1"/>
        <pt x="1012" y="1000" on="1"/>
        <pt x="1200" y="1000" on="1"/>
        <pt x="1200" y="0" on="1"/>
        <pt x="1012" y="0" on="1"/>
        <pt x="725" y="236" on="1"/>
        <pt x="438" y="0" on="1"/>
        <pt x="250" y="0" on="1"/>
        <pt x="250" y="1010" on="1"/>
        <pt x="180" y="1076" on="0"/>
        <pt x="150" y="1127" on="0"/>
        <pt x="150" y="1165" on="1"/>
        <pt x="150" y="1202" on="0"/>
        <pt x="180" y="1254" on="0"/>
        <pt x="245" y="1315" on="1"/>
        <pt x="311" y="1376" on="1"/>
        <pt x="442" y="1500" on="0"/>
        <pt x="471" y="1500" on="1"/>
        <pt x="500" y="1500" on="0"/>
        <pt x="652" y="1388" on="1"/>
        <pt x="808" y="1280" on="0"/>
        <pt x="890" y="1280" on="1"/>
        <pt x="982" y="1280" on="0"/>
        <pt x="1024" y="1315" on="1"/>
        <pt x="1066" y="1350" on="0"/>
        <pt x="1066" y="1420" on="1"/>
        <pt x="1066" y="1522" on="0"/>
        <pt x="920" y="1522" on="1"/>
        <pt x="820" y="1522" on="0"/>
        <pt x="820" y="1611" on="1"/>
        <pt x="820" y="1700" on="0"/>
        <pt x="920" y="1700" on="1"/>
        <pt x="1050" y="1700" on="0"/>
        <pt x="1125" y="1619" on="1"/>
        <pt x="1200" y="1538" on="0"/>
        <pt x="1200" y="1420" on="1"/>
        <pt x="1200" y="1278" on="0"/>
        <pt x="1115" y="1202" on="1"/>
        <pt x="1029" y="1126" on="0"/>
        <pt x="890" y="1126" on="1"/>
        <pt x="699" y="1126" on="0"/>
        <pt x="562" y="1224" on="1"/>
        <pt x="498" y="1269" on="1"/>
        <pt x="463" y="1296" on="0"/>
        <pt x="436" y="1296" on="1"/>
        <pt x="430" y="1296" on="0"/>
        <pt x="425" y="1295" on="1"/>
        <pt x="394" y="1288" on="0"/>
        <pt x="362" y="1251" on="1"/>
        <pt x="339" y="1226" on="1"/>
        <pt x="329" y="1215" on="0"/>
        <pt x="329" y="1203" on="1"/>
        <pt x="329" y="1186" on="0"/>
        <pt x="347" y="1167" on="1"/>
        <pt x="377" y="1134" on="1"/>
        <pt x="438" y="1068" on="1"/>
      </contour>
    </TTGlyph>
    <TTGlyph name="uni1787_17B6" xMin="150" yMin="0" xMax="1912" yMax="1700">
      <contour>
        <pt x="1117" y="1204" on="1"/>
        <pt x="1029" y="1126" on="0"/>
        <pt x="890" y="1126" on="1"/>
        <pt x="699" y="1126" on="0"/>
        <pt x="562" y="1224" on="1"/>
        <pt x="498" y="1269" on="1"/>
        <pt x="463" y="1296" on="0"/>
        <pt x="436" y="1296" on="1"/>
        <pt x="430" y="1296" on="0"/>
        <pt x="425" y="1295" on="1"/>
        <pt x="394" y="1288" on="0"/>
        <pt x="362" y="1251" on="1"/>
        <pt x="339" y="1226" on="1"/>
        <pt x="329" y="1215" on="0"/>
        <pt x="329" y="1203" on="1"/>
        <pt x="329" y="1186" on="0"/>
        <pt x="347" y="1167" on="1"/>
        <pt x="377" y="1134" on="1"/>
        <pt x="438" y="1068" on="1"/>
        <pt x="438" y="186" on="1"/>
        <pt x="725" y="423" on="1"/>
        <pt x="1012" y="186" on="1"/>
        <pt x="1012" y="1000" on="1"/>
        <pt x="1200" y="1000" on="1"/>
        <pt x="1200" y="0" on="1"/>
        <pt x="1012" y="0" on="1"/>
        <pt x="725" y="236" on="1"/>
        <pt x="438" y="0" on="1"/>
        <pt x="250" y="0" on="1"/>
        <pt x="250" y="1010" on="1"/>
        <pt x="180" y="1076" on="0"/>
        <pt x="150" y="1127" on="0"/>
        <pt x="150" y="1165" on="1"/>
        <pt x="150" y="1202" on="0"/>
        <pt x="180" y="1254" on="0"/>
        <pt x="245" y="1315" on="1"/>
        <pt x="311" y="1376" on="1"/>
        <pt x="442" y="1500" on="0"/>
        <pt x="471" y="1500" on="1"/>
        <pt x="500" y="1500" on="0"/>
        <pt x="652" y="1388" on="1"/>
        <pt x="808" y="1280" on="0"/>
        <pt x="890" y="1280" on="1"/>
        <pt x="982" y="1280" on="0"/>
        <pt x="1024" y="1315" on="1"/>
        <pt x="1066" y="1350" on="0"/>
        <pt x="1066" y="1420" on="1"/>
        <pt x="1066" y="1522" on="0"/>
        <pt x="920" y="1522" on="1"/>
        <pt x="820" y="1522" on="0"/>
        <pt x="820" y="1611" on="1"/>
        <pt x="820" y="1700" on="0"/>
        <pt x="920" y="1700" on="1"/>
        <pt x="1050" y="1700" on="0"/>
        <pt x="1125" y="1619" on="1"/>
        <pt x="1200" y="1538" on="0"/>
        <pt x="1200" y="1420" on="1"/>
        <pt x="1200" y="1413" on="1"/>
        <pt x="1214" y="1420" on="1"/>
        <pt x="1255" y="1440" on="1"/>
        <pt x="1376" y="1500" on="0"/>
        <pt x="1467" y="1500" on="1"/>
        <pt x="1556" y="1500" on="0"/>
        <pt x="1642" y="1433" on="1"/>
        <pt x="1834" y="1282" on="1"/>
        <pt x="1912" y="1223" on="0"/>
        <pt x="1912" y="1128" on="1"/>
        <pt x="1912" y="0" on="1"/>
        <pt x="1724" y="0" on="1"/>
        <pt x="1724" y="1128" on="1"/>
        <pt x="1487" y="1319" on="1"/>
        <pt x="1467" y="1334" on="0"/>
        <pt x="1434" y="1334" on="1"/>
        <pt x="1372" y="1334" on="0"/>
        <pt x="1265" y="1280" on="1"/>
      </contour>
    </TTGlyph>
    <TTGlyph name="uni1787_17C5" xMin="150" yMin="0" xMax="1962" yMax="1900">
      <contour>
        <pt x="1910" y="1157" on="1"/>
        <pt x="1912" y="1143" on="0"/>
        <pt x="1912" y="1128" on="1"/>
        <pt x="1912" y="0" on="1"/>
        <pt x="1724" y="0" on="1"/>
        <pt x="1724" y="1128" on="1"/>
        <pt x="1487" y="1319" on="1"/>
        <pt x="1467" y="1334" on="0"/>
        <pt x="1434" y="1334" on="1"/>
        <pt x="1372" y="1334" on="0"/>
        <pt x="1265" y="1280" on="1"/>
        <pt x="1117" y="1204" on="1"/>
        <pt x="1029" y="1126" on="0"/>
        <pt x="890" y="1126" on="1"/>
        <pt x="699" y="1126" on="0"/>
        <pt x="562" y="1224" on="1"/>
        <pt x="498" y="1269" on="1"/>
        <pt x="463" y="1296" on="0"/>
        <pt x="436" y="1296" on="1"/>
        <pt x="430" y="1296" on="0"/>
        <pt x="425" y="1295" on="1"/>
        <pt x="394" y="1288" on="0"/>
        <pt x="362" y="1251" on="1"/>
        <pt x="339" y="1226" on="1"/>
        <pt x="329" y="1215" on="0"/>
        <pt x="329" y="1203" on="1"/>
        <pt x="329" y="1186" on="0"/>
        <pt x="347" y="1167" on="1"/>
        <pt x="377" y="1134" on="1"/>
        <pt x="438" y="1068" on="1"/>
        <pt x="438" y="186" on="1"/>
        <pt x="725" y="423" on="1"/>
        <pt x="1012" y="186" on="1"/>
        <pt x="1012" y="1000" on="1"/>
        <pt x="1200" y="1000" on="1"/>
        <pt x="1200" y="0" on="1"/>
        <pt x="1012" y="0" on="1"/>
        <pt x="725" y="236" on="1"/>
        <pt x="438" y="0" on="1"/>
        <pt x="250" y="0" on="1"/>
        <pt x="250" y="1010" on="1"/>
        <pt x="180" y="1076" on="0"/>
        <pt x="150" y="1127" on="0"/>
        <pt x="150" y="1165" on="1"/>
        <pt x="150" y="1202" on="0"/>
        <pt x="180" y="1254" on="0"/>
        <pt x="245" y="1315" on="1"/>
        <pt x="311" y="1376" on="1"/>
        <pt x="442" y="1500" on="0"/>
        <pt x="471" y="1500" on="1"/>
        <pt x="500" y="1500" on="0"/>
        <pt x="652" y="1388" on="1"/>
        <pt x="808" y="1280" on="0"/>
        <pt x="890" y="1280" on="1"/>
        <pt x="982" y="1280" on="0"/>
        <pt x="1024" y="1315" on="1"/>
        <pt x="1066" y="1350" on="0"/>
        <pt x="1066" y="1420" on="1"/>
        <pt x="1066" y="1522" on="0"/>
        <pt x="920" y="1522" on="1"/>
        <pt x="820" y="1522" on="0"/>
        <pt x="820" y="1611" on="1"/>
        <pt x="820" y="1700" on="0"/>
        <pt x="920" y="1700" on="1"/>
        <pt x="1050" y="1700" on="0"/>
        <pt x="1125" y="1619" on="1"/>
        <pt x="1200" y="1538" on="0"/>
        <pt x="1200" y="1420" on="1"/>
        <pt x="1200" y="1413" on="1"/>
        <pt x="1214" y="1420" on="1"/>
        <pt x="1255" y="1440" on="1"/>
        <pt x="1376" y="1500" on="0"/>
        <pt x="1467" y="1500" on="1"/>
        <pt x="1556" y="1500" on="0"/>
        <pt x="1642" y="1433" on="1"/>
        <pt x="1774" y="1329" on="1"/>
        <pt x="1774" y="1700" on="1"/>
        <pt x="1774" y="1800" on="0"/>
        <pt x="1674" y="1800" on="1"/>
        <pt x="1674" y="1900" on="0"/>
        <pt x="1799" y="1900" on="1"/>
        <pt x="1962" y="1900" on="0"/>
        <pt x="1962" y="1700" on="1"/>
        <pt x="1962" y="1300" on="1"/>
        <pt x="1962" y="1244" on="0"/>
      </contour>
    </TTGlyph>
    <TTGlyph name="uni1788" xMin="140" yMin="0" xMax="2774" yMax="1500">
      <contour>
        <pt x="438" y="222" on="1"/>
        <pt x="536" y="312" on="0"/>
        <pt x="536" y="389" on="1"/>
        <pt x="536" y="429" on="0"/>
        <pt x="509" y="448" on="1"/>
        <pt x="482" y="466" on="0"/>
        <pt x="438" y="466" on="1"/>
      </contour>
      <contour>
        <pt x="438" y="600" on="1"/>
        <pt x="583" y="600" on="0"/>
        <pt x="627" y="541" on="1"/>
        <pt x="670" y="481" on="0"/>
        <pt x="670" y="415" on="1"/>
        <pt x="670" y="337" on="0"/>
        <pt x="630" y="250" on="1"/>
        <pt x="590" y="162" on="0"/>
        <pt x="514" y="81" on="1"/>
        <pt x="438" y="0" on="1"/>
        <pt x="250" y="0" on="1"/>
        <pt x="250" y="1008" on="1"/>
        <pt x="188" y="1046" on="1"/>
        <pt x="140" y="1075" on="0"/>
        <pt x="140" y="1140" on="1"/>
        <pt x="140" y="1205" on="0"/>
        <pt x="240" y="1279" on="1"/>
        <pt x="377" y="1381" on="1"/>
        <pt x="538" y="1500" on="0"/>
        <pt x="640" y="1500" on="1"/>
        <pt x="798" y="1500" on="0"/>
        <pt x="878" y="1447" on="1"/>
        <pt x="1092" y="1297" on="1"/>
        <pt x="1200" y="1225" on="0"/>
        <pt x="1200" y="1050" on="1"/>
        <pt x="1200" y="300" on="1"/>
        <pt x="1200" y="242" on="0"/>
        <pt x="1278" y="193" on="1"/>
        <pt x="1356" y="144" on="0"/>
        <pt x="1462" y="144" on="1"/>
        <pt x="1568" y="144" on="0"/>
        <pt x="1646" y="193" on="1"/>
        <pt x="1724" y="242" on="0"/>
        <pt x="1724" y="300" on="1"/>
        <pt x="1724" y="993" on="1"/>
        <pt x="1637" y="1046" on="1"/>
        <pt x="1549" y="1099" on="0"/>
        <pt x="1549" y="1131" on="1"/>
        <pt x="1549" y="1162" on="0"/>
        <pt x="1605" y="1247" on="1"/>
        <pt x="1773" y="1500" on="1"/>
        <pt x="1881" y="1438" on="1"/>
        <pt x="1935" y="1406" on="1"/>
        <pt x="1982" y="1379" on="0"/>
        <pt x="2015" y="1379" on="1"/>
        <pt x="2021" y="1379" on="0"/>
        <pt x="2026" y="1380" on="1"/>
        <pt x="2062" y="1385" on="1"/>
        <pt x="2062" y="1350" on="0"/>
        <pt x="1980" y="1222" on="0"/>
        <pt x="1939" y="1216" on="1"/>
        <pt x="1933" y="1215" on="0"/>
        <pt x="1926" y="1215" on="1"/>
        <pt x="1888" y="1215" on="0"/>
        <pt x="1831" y="1249" on="1"/>
        <pt x="1763" y="1288" on="1"/>
        <pt x="1720" y="1213" on="1"/>
        <pt x="1912" y="1100" on="1"/>
        <pt x="1912" y="300" on="1"/>
        <pt x="1912" y="242" on="0"/>
        <pt x="1990" y="193" on="1"/>
        <pt x="2068" y="144" on="0"/>
        <pt x="2174" y="144" on="1"/>
        <pt x="2280" y="144" on="0"/>
        <pt x="2358" y="193" on="1"/>
        <pt x="2436" y="242" on="0"/>
        <pt x="2436" y="300" on="1"/>
        <pt x="2436" y="993" on="1"/>
        <pt x="2349" y="1046" on="1"/>
        <pt x="2261" y="1099" on="0"/>
        <pt x="2261" y="1131" on="1"/>
        <pt x="2261" y="1162" on="0"/>
        <pt x="2317" y="1247" on="1"/>
        <pt x="2485" y="1500" on="1"/>
        <pt x="2593" y="1438" on="1"/>
        <pt x="2647" y="1406" on="1"/>
        <pt x="2694" y="1379" on="0"/>
        <pt x="2727" y="1379" on="1"/>
        <pt x="2733" y="1379" on="0"/>
        <pt x="2738" y="1380" on="1"/>
        <pt x="2774" y="1385" on="1"/>
        <pt x="2774" y="1350" on="0"/>
        <pt x="2692" y="1222" on="0"/>
        <pt x="2651" y="1216" on="1"/>
        <pt x="2645" y="1215" on="0"/>
        <pt x="2638" y="1215" on="1"/>
        <pt x="2600" y="1215" on="0"/>
        <pt x="2543" y="1249" on="1"/>
        <pt x="2475" y="1288" on="1"/>
        <pt x="2432" y="1213" on="1"/>
        <pt x="2624" y="1100" on="1"/>
        <pt x="2624" y="300" on="1"/>
        <pt x="2624" y="200" on="0"/>
        <pt x="2499" y="100" on="1"/>
        <pt x="2374" y="0" on="0"/>
        <pt x="2174" y="0" on="1"/>
        <pt x="1974" y="0" on="0"/>
        <pt x="1849" y="100" on="1"/>
        <pt x="1832" y="113" on="0"/>
        <pt x="1818" y="127" on="1"/>
        <pt x="1804" y="113" on="0"/>
        <pt x="1787" y="100" on="1"/>
        <pt x="1662" y="0" on="0"/>
        <pt x="1462" y="0" on="1"/>
        <pt x="1262" y="0" on="0"/>
        <pt x="1137" y="100" on="1"/>
        <pt x="1012" y="200" on="0"/>
        <pt x="1012" y="300" on="1"/>
        <pt x="1012" y="1050" on="1"/>
        <pt x="1012" y="1126" on="0"/>
        <pt x="973" y="1154" on="1"/>
        <pt x="766" y="1296" on="1"/>
        <pt x="729" y="1322" on="0"/>
        <pt x="640" y="1322" on="1"/>
        <pt x="536" y="1322" on="0"/>
        <pt x="468" y="1271" on="1"/>
        <pt x="339" y="1173" on="1"/>
        <pt x="377" y="1148" on="1"/>
        <pt x="438" y="1110" on="0"/>
        <pt x="438" y="1050" on="1"/>
      </contour>
    </TTGlyph>
    <TTGlyph name="uni1788_17B6" xMin="140" yMin="0" xMax="3336" yMax="1500">
      <contour>
        <pt x="438" y="222" on="1"/>
        <pt x="536" y="312" on="0"/>
        <pt x="536" y="389" on="1"/>
        <pt x="536" y="429" on="0"/>
        <pt x="509" y="448" on="1"/>
        <pt x="482" y="466" on="0"/>
        <pt x="438" y="466" on="1"/>
      </contour>
      <contour>
        <pt x="2624" y="300" on="1"/>
        <pt x="2624" y="200" on="0"/>
        <pt x="2499" y="100" on="1"/>
        <pt x="2374" y="0" on="0"/>
        <pt x="2174" y="0" on="1"/>
        <pt x="1974" y="0" on="0"/>
        <pt x="1849" y="100" on="1"/>
        <pt x="1832" y="113" on="0"/>
        <pt x="1818" y="127" on="1"/>
        <pt x="1804" y="113" on="0"/>
        <pt x="1787" y="100" on="1"/>
        <pt x="1662" y="0" on="0"/>
        <pt x="1462" y="0" on="1"/>
        <pt x="1262" y="0" on="0"/>
        <pt x="1137" y="100" on="1"/>
        <pt x="1012" y="200" on="0"/>
        <pt x="1012" y="300" on="1"/>
        <pt x="1012" y="1050" on="1"/>
        <pt x="1012" y="1126" on="0"/>
        <pt x="973" y="1154" on="1"/>
        <pt x="766" y="1296" on="1"/>
        <pt x="729" y="1322" on="0"/>
        <pt x="640" y="1322" on="1"/>
        <pt x="536" y="1322" on="0"/>
        <pt x="468" y="1271" on="1"/>
        <pt x="339" y="1173" on="1"/>
        <pt x="377" y="1148" on="1"/>
        <pt x="438" y="1110" on="0"/>
        <pt x="438" y="1050" on="1"/>
        <pt x="438" y="600" on="1"/>
        <pt x="583" y="600" on="0"/>
        <pt x="627" y="541" on="1"/>
        <pt x="670" y="481" on="0"/>
        <pt x="670" y="415" on="1"/>
        <pt x="670" y="337" on="0"/>
        <pt x="630" y="250" on="1"/>
        <pt x="590" y="162" on="0"/>
        <pt x="514" y="81" on="1"/>
        <pt x="438" y="0" on="1"/>
        <pt x="250" y="0" on="1"/>
        <pt x="250" y="1008" on="1"/>
        <pt x="188" y="1046" on="1"/>
        <pt x="140" y="1075" on="0"/>
        <pt x="140" y="1140" on="1"/>
        <pt x="140" y="1205" on="0"/>
        <pt x="240" y="1279" on="1"/>
        <pt x="377" y="1381" on="1"/>
        <pt x="538" y="1500" on="0"/>
        <pt x="640" y="1500" on="1"/>
        <pt x="798" y="1500" on="0"/>
        <pt x="878" y="1447" on="1"/>
        <pt x="1092" y="1297" on="1"/>
        <pt x="1200" y="1225" on="0"/>
        <pt x="1200" y="1050" on="1"/>
        <pt x="1200" y="300" on="1"/>
        <pt x="1200" y="242" on="0"/>
        <pt x="1278" y="193" on="1"/>
        <pt x="1356" y="144" on="0"/>
        <pt x="1462" y="144" on="1"/>
        <pt x="1568" y="144" on="0"/>
        <pt x="1646" y="193" on="1"/>
        <pt x="1724" y="242" on="0"/>
        <pt x="1724" y="300" on="1"/>
        <pt x="1724" y="993" on="1"/>
        <pt x="1637" y="1046" on="1"/>
        <pt x="1549" y="1099" on="0"/>
        <pt x="1549" y="1131" on="1"/>
        <pt x="1549" y="1162" on="0"/>
        <pt x="1605" y="1247" on="1"/>
        <pt x="1773" y="1500" on="1"/>
        <pt x="1881" y="1438" on="1"/>
        <pt x="1935" y="1406" on="1"/>
        <pt x="1982" y="1379" on="0"/>
        <pt x="2015" y="1379" on="1"/>
        <pt x="2021" y="1379" on="0"/>
        <pt x="2026" y="1380" on="1"/>
        <pt x="2062" y="1385" on="1"/>
        <pt x="2062" y="1350" on="0"/>
        <pt x="1980" y="1222" on="0"/>
        <pt x="1939" y="1216" on="1"/>
        <pt x="1933" y="1215" on="0"/>
        <pt x="1926" y="1215" on="1"/>
        <pt x="1888" y="1215" on="0"/>
        <pt x="1831" y="1249" on="1"/>
        <pt x="1763" y="1288" on="1"/>
        <pt x="1720" y="1213" on="1"/>
        <pt x="1912" y="1100" on="1"/>
        <pt x="1912" y="300" on="1"/>
        <pt x="1912" y="242" on="0"/>
        <pt x="1990" y="193" on="1"/>
        <pt x="2068" y="144" on="0"/>
        <pt x="2174" y="144" on="1"/>
        <pt x="2280" y="144" on="0"/>
        <pt x="2358" y="193" on="1"/>
        <pt x="2436" y="242" on="0"/>
        <pt x="2436" y="300" on="1"/>
        <pt x="2436" y="993" on="1"/>
        <pt x="2349" y="1046" on="1"/>
        <pt x="2261" y="1099" on="0"/>
        <pt x="2261" y="1131" on="1"/>
        <pt x="2261" y="1162" on="0"/>
        <pt x="2342" y="1247" on="1"/>
        <pt x="2462" y="1373" on="1"/>
        <pt x="2583" y="1500" on="0"/>
        <pt x="2676" y="1500" on="1"/>
        <pt x="2759" y="1500" on="0"/>
        <pt x="2831" y="1467" on="1"/>
        <pt x="3228" y="1285" on="1"/>
        <pt x="3336" y="1235" on="0"/>
        <pt x="3336" y="1114" on="1"/>
        <pt x="3336" y="0" on="1"/>
        <pt x="3148" y="0" on="1"/>
        <pt x="3148" y="1114" on="1"/>
        <pt x="2753" y="1296" on="1"/>
        <pt x="2696" y="1322" on="0"/>
        <pt x="2665" y="1322" on="1"/>
        <pt x="2594" y="1322" on="0"/>
        <pt x="2477" y="1186" on="1"/>
        <pt x="2624" y="1100" on="1"/>
      </contour>
    </TTGlyph>
    <TTGlyph name="uni1788_17C5" xMin="140" yMin="0" xMax="3386" yMax="1900">
      <contour>
        <pt x="438" y="222" on="1"/>
        <pt x="536" y="312" on="0"/>
        <pt x="536" y="389" on="1"/>
        <pt x="536" y="429" on="0"/>
        <pt x="509" y="448" on="1"/>
        <pt x="482" y="466" on="0"/>
        <pt x="438" y="466" on="1"/>
      </contour>
      <contour>
        <pt x="3333" y="1155" on="1"/>
        <pt x="3336" y="1135" on="0"/>
        <pt x="3336" y="1114" on="1"/>
        <pt x="3336" y="0" on="1"/>
        <pt x="3148" y="0" on="1"/>
        <pt x="3148" y="1114" on="1"/>
        <pt x="2753" y="1296" on="1"/>
        <pt x="2696" y="1322" on="0"/>
        <pt x="2665" y="1322" on="1"/>
        <pt x="2594" y="1322" on="0"/>
        <pt x="2477" y="1186" on="1"/>
        <pt x="2624" y="1100" on="1"/>
        <pt x="2624" y="300" on="1"/>
        <pt x="2624" y="200" on="0"/>
        <pt x="2499" y="100" on="1"/>
        <pt x="2374" y="0" on="0"/>
        <pt x="2174" y="0" on="1"/>
        <pt x="1974" y="0" on="0"/>
        <pt x="1849" y="100" on="1"/>
        <pt x="1832" y="113" on="0"/>
        <pt x="1818" y="127" on="1"/>
        <pt x="1804" y="113" on="0"/>
        <pt x="1787" y="100" on="1"/>
        <pt x="1662" y="0" on="0"/>
        <pt x="1462" y="0" on="1"/>
        <pt x="1262" y="0" on="0"/>
        <pt x="1137" y="100" on="1"/>
        <pt x="1012" y="200" on="0"/>
        <pt x="1012" y="300" on="1"/>
        <pt x="1012" y="1050" on="1"/>
        <pt x="1012" y="1126" on="0"/>
        <pt x="973" y="1154" on="1"/>
        <pt x="766" y="1296" on="1"/>
        <pt x="729" y="1322" on="0"/>
        <pt x="640" y="1322" on="1"/>
        <pt x="536" y="1322" on="0"/>
        <pt x="468" y="1271" on="1"/>
        <pt x="339" y="1173" on="1"/>
        <pt x="377" y="1148" on="1"/>
        <pt x="438" y="1110" on="0"/>
        <pt x="438" y="1050" on="1"/>
        <pt x="438" y="600" on="1"/>
        <pt x="583" y="600" on="0"/>
        <pt x="627" y="541" on="1"/>
        <pt x="670" y="481" on="0"/>
        <pt x="670" y="415" on="1"/>
        <pt x="670" y="337" on="0"/>
        <pt x="630" y="250" on="1"/>
        <pt x="590" y="162" on="0"/>
        <pt x="514" y="81" on="1"/>
        <pt x="438" y="0" on="1"/>
        <pt x="250" y="0" on="1"/>
        <pt x="250" y="1008" on="1"/>
        <pt x="188" y="1046" on="1"/>
        <pt x="140" y="1075" on="0"/>
        <pt x="140" y="1140" on="1"/>
        <pt x="140" y="1205" on="0"/>
        <pt x="240" y="1279" on="1"/>
        <pt x="377" y="1381" on="1"/>
        <pt x="538" y="1500" on="0"/>
        <pt x="640" y="1500" on="1"/>
        <pt x="798" y="1500" on="0"/>
        <pt x="878" y="1447" on="1"/>
        <pt x="1092" y="1297" on="1"/>
        <pt x="1200" y="1225" on="0"/>
        <pt x="1200" y="1050" on="1"/>
        <pt x="1200" y="300" on="1"/>
        <pt x="1200" y="242" on="0"/>
        <pt x="1278" y="193" on="1"/>
        <pt x="1356" y="144" on="0"/>
        <pt x="1462" y="144" on="1"/>
        <pt x="1568" y="144" on="0"/>
        <pt x="1646" y="193" on="1"/>
        <pt x="1724" y="242" on="0"/>
        <pt x="1724" y="300" on="1"/>
        <pt x="1724" y="993" on="1"/>
        <pt x="1637" y="1046" on="1"/>
        <pt x="1549" y="1099" on="0"/>
        <pt x="1549" y="1131" on="1"/>
        <pt x="1549" y="1162" on="0"/>
        <pt x="1605" y="1247" on="1"/>
        <pt x="1773" y="1500" on="1"/>
        <pt x="1881" y="1438" on="1"/>
        <pt x="1935" y="1406" on="1"/>
        <pt x="1982" y="1379" on="0"/>
        <pt x="2015" y="1379" on="1"/>
        <pt x="2021" y="1379" on="0"/>
        <pt x="2026" y="1380" on="1"/>
        <pt x="2062" y="1385" on="1"/>
        <pt x="2062" y="1350" on="0"/>
        <pt x="1980" y="1222" on="0"/>
        <pt x="1939" y="1216" on="1"/>
        <pt x="1933" y="1215" on="0"/>
        <pt x="1926" y="1215" on="1"/>
        <pt x="1888" y="1215" on="0"/>
        <pt x="1831" y="1249" on="1"/>
        <pt x="1763" y="1288" on="1"/>
        <pt x="1720" y="1213" on="1"/>
        <pt x="1912" y="1100" on="1"/>
        <pt x="1912" y="300" on="1"/>
        <pt x="1912" y="242" on="0"/>
        <pt x="1990" y="193" on="1"/>
        <pt x="2068" y="144" on="0"/>
        <pt x="2174" y="144" on="1"/>
        <pt x="2280" y="144" on="0"/>
        <pt x="2358" y="193" on="1"/>
        <pt x="2436" y="242" on="0"/>
        <pt x="2436" y="300" on="1"/>
        <pt x="2436" y="993" on="1"/>
        <pt x="2349" y="1046" on="1"/>
        <pt x="2261" y="1099" on="0"/>
        <pt x="2261" y="1131" on="1"/>
        <pt x="2261" y="1162" on="0"/>
        <pt x="2342" y="1247" on="1"/>
        <pt x="2462" y="1373" on="1"/>
        <pt x="2583" y="1500" on="0"/>
        <pt x="2676" y="1500" on="1"/>
        <pt x="2759" y="1500" on="0"/>
        <pt x="2831" y="1467" on="1"/>
        <pt x="3198" y="1299" on="1"/>
        <pt x="3198" y="1700" on="1"/>
        <pt x="3198" y="1800" on="0"/>
        <pt x="3098" y="1800" on="1"/>
        <pt x="3098" y="1900" on="0"/>
        <pt x="3223" y="1900" on="1"/>
        <pt x="3386" y="1900" on="0"/>
        <pt x="3386" y="1700" on="1"/>
        <pt x="3386" y="1300" on="1"/>
        <pt x="3386" y="1243" on="0"/>
      </contour>
    </TTGlyph>
    <TTGlyph name="uni1789" xMin="150" yMin="-600" xMax="1912" yMax="1500">
      <contour>
        <pt x="438" y="222" on="1"/>
        <pt x="536" y="312" on="0"/>
        <pt x="536" y="389" on="1"/>
        <pt x="536" y="429" on="0"/>
        <pt x="509" y="448" on="1"/>
        <pt x="482" y="466" on="0"/>
        <pt x="438" y="466" on="1"/>
      </contour>
      <contour>
        <pt x="1200" y="0" on="1"/>
        <pt x="1012" y="0" on="1"/>
        <pt x="1012" y="1169" on="1"/>
        <pt x="1012" y="1245" on="0"/>
        <pt x="978" y="1266" on="1"/>
        <pt x="910" y="1307" on="1"/>
        <pt x="899" y="1313" on="0"/>
        <pt x="888" y="1313" on="1"/>
        <pt x="864" y="1313" on="0"/>
        <pt x="840" y="1285" on="1"/>
        <pt x="785" y="1225" on="1"/>
        <pt x="729" y="1165" on="0"/>
        <pt x="671" y="1165" on="1"/>
        <pt x="592" y="1166" on="0"/>
        <pt x="537" y="1215" on="1"/>
        <pt x="464" y="1283" on="1"/>
        <pt x="439" y="1307" on="0"/>
        <pt x="419" y="1307" on="1"/>
        <pt x="406" y="1307" on="0"/>
        <pt x="395" y="1298" on="1"/>
        <pt x="351" y="1260" on="1"/>
        <pt x="345" y="1254" on="0"/>
        <pt x="345" y="1245" on="1"/>
        <pt x="345" y="1211" on="0"/>
        <pt x="438" y="1134" on="1"/>
        <pt x="438" y="600" on="1"/>
        <pt x="583" y="600" on="0"/>
        <pt x="627" y="541" on="1"/>
        <pt x="670" y="481" on="0"/>
        <pt x="670" y="415" on="1"/>
        <pt x="670" y="337" on="0"/>
        <pt x="630" y="250" on="1"/>
        <pt x="590" y="162" on="0"/>
        <pt x="514" y="81" on="1"/>
        <pt x="438" y="0" on="1"/>
        <pt x="250" y="0" on="1"/>
        <pt x="250" y="1062" on="1"/>
        <pt x="150" y="1169" on="0"/>
        <pt x="150" y="1212" on="1"/>
        <pt x="150" y="1255" on="0"/>
        <pt x="283" y="1378" on="1"/>
        <pt x="415" y="1500" on="0"/>
        <pt x="461" y="1500" on="1"/>
        <pt x="509" y="1500" on="0"/>
        <pt x="604" y="1412" on="1"/>
        <pt x="678" y="1340" on="1"/>
        <pt x="684" y="1335" on="0"/>
        <pt x="692" y="1335" on="1"/>
        <pt x="712" y="1335" on="0"/>
        <pt x="742" y="1367" on="1"/>
        <pt x="783" y="1412" on="1"/>
        <pt x="866" y="1500" on="0"/>
        <pt x="918" y="1500" on="1"/>
        <pt x="955" y="1500" on="0"/>
        <pt x="1016" y="1462" on="1"/>
        <pt x="1078" y="1423" on="1"/>
        <pt x="1117" y="1398" on="0"/>
        <pt x="1144" y="1363" on="1"/>
        <pt x="1155" y="1374" on="0"/>
        <pt x="1167" y="1385" on="1"/>
        <pt x="1292" y="1500" on="0"/>
        <pt x="1462" y="1500" on="1"/>
        <pt x="1662" y="1500" on="0"/>
        <pt x="1912" y="1270" on="0"/>
        <pt x="1912" y="1150" on="1"/>
        <pt x="1912" y="0" on="1"/>
        <pt x="1724" y="0" on="1"/>
        <pt x="1724" y="1150" on="1"/>
        <pt x="1724" y="1228" on="0"/>
        <pt x="1568" y="1356" on="0"/>
        <pt x="1462" y="1356" on="1"/>
        <pt x="1366" y="1356" on="0"/>
        <pt x="1200" y="1228" on="0"/>
        <pt x="1200" y="1150" on="1"/>
      </contour>
      <contour>
        <pt x="1615" y="-200" on="1"/>
        <pt x="1615" y="-150" on="0"/>
        <pt x="1645" y="-125" on="1"/>
        <pt x="1676" y="-100" on="0"/>
        <pt x="1739" y="-100" on="1"/>
        <pt x="1825" y="-100" on="0"/>
        <pt x="1868" y="-150" on="1"/>
        <pt x="1912" y="-200" on="0"/>
        <pt x="1912" y="-300" on="1"/>
        <pt x="1912" y="-450" on="0"/>
        <pt x="1698" y="-600" on="0"/>
        <pt x="1525" y="-600" on="1"/>
        <pt x="1390" y="-600" on="0"/>
        <pt x="1277" y="-562" on="1"/>
        <pt x="1166" y="-525" on="0"/>
        <pt x="1046" y="-437" on="1"/>
        <pt x="927" y="-350" on="0"/>
        <pt x="803" y="-300" on="1"/>
        <pt x="680" y="-250" on="0"/>
        <pt x="593" y="-250" on="1"/>
        <pt x="502" y="-250" on="0"/>
        <pt x="413" y="-272" on="1"/>
        <pt x="324" y="-295" on="0"/>
        <pt x="250" y="-340" on="1"/>
        <pt x="250" y="-280" on="0"/>
        <pt x="286" y="-237" on="1"/>
        <pt x="324" y="-195" on="0"/>
        <pt x="492" y="-100" on="0"/>
        <pt x="633" y="-100" on="1"/>
        <pt x="792" y="-100" on="0"/>
        <pt x="1048" y="-194" on="0"/>
        <pt x="1181" y="-291" on="1"/>
        <pt x="1313" y="-388" on="0"/>
        <pt x="1463" y="-466" on="0"/>
        <pt x="1545" y="-466" on="1"/>
        <pt x="1615" y="-466" on="0"/>
        <pt x="1724" y="-400" on="0"/>
        <pt x="1724" y="-300" on="1"/>
        <pt x="1724" y="-285" on="0"/>
        <pt x="1722" y="-273" on="1"/>
        <pt x="1707" y="-281" on="0"/>
        <pt x="1691" y="-281" on="1"/>
        <pt x="1672" y="-281" on="0"/>
        <pt x="1635" y="-259" on="0"/>
        <pt x="1615" y="-221" on="0"/>
      </contour>
    </TTGlyph>
    <TTGlyph name="uni1789.a" xMin="150" yMin="0" xMax="1912" yMax="1500">
      <contour>
        <pt x="438" y="222" on="1"/>
        <pt x="536" y="312" on="0"/>
        <pt x="536" y="389" on="1"/>
        <pt x="536" y="429" on="0"/>
        <pt x="509" y="448" on="1"/>
        <pt x="482" y="466" on="0"/>
        <pt x="438" y="466" on="1"/>
      </contour>
      <contour>
        <pt x="1200" y="0" on="1"/>
        <pt x="1012" y="0" on="1"/>
        <pt x="1012" y="1169" on="1"/>
        <pt x="1012" y="1245" on="0"/>
        <pt x="978" y="1266" on="1"/>
        <pt x="910" y="1307" on="1"/>
        <pt x="899" y="1313" on="0"/>
        <pt x="888" y="1313" on="1"/>
        <pt x="864" y="1313" on="0"/>
        <pt x="840" y="1285" on="1"/>
        <pt x="785" y="1225" on="1"/>
        <pt x="729" y="1165" on="0"/>
        <pt x="671" y="1165" on="1"/>
        <pt x="592" y="1166" on="0"/>
        <pt x="537" y="1215" on="1"/>
        <pt x="464" y="1283" on="1"/>
        <pt x="439" y="1307" on="0"/>
        <pt x="419" y="1307" on="1"/>
        <pt x="406" y="1307" on="0"/>
        <pt x="395" y="1298" on="1"/>
        <pt x="351" y="1260" on="1"/>
        <pt x="345" y="1254" on="0"/>
        <pt x="345" y="1245" on="1"/>
        <pt x="345" y="1211" on="0"/>
        <pt x="438" y="1134" on="1"/>
        <pt x="438" y="600" on="1"/>
        <pt x="583" y="600" on="0"/>
        <pt x="627" y="541" on="1"/>
        <pt x="670" y="481" on="0"/>
        <pt x="670" y="415" on="1"/>
        <pt x="670" y="337" on="0"/>
        <pt x="630" y="250" on="1"/>
        <pt x="590" y="162" on="0"/>
        <pt x="514" y="81" on="1"/>
        <pt x="438" y="0" on="1"/>
        <pt x="250" y="0" on="1"/>
        <pt x="250" y="1062" on="1"/>
        <pt x="150" y="1169" on="0"/>
        <pt x="150" y="1212" on="1"/>
        <pt x="150" y="1255" on="0"/>
        <pt x="283" y="1378" on="1"/>
        <pt x="415" y="1500" on="0"/>
        <pt x="461" y="1500" on="1"/>
        <pt x="509" y="1500" on="0"/>
        <pt x="604" y="1412" on="1"/>
        <pt x="678" y="1340" on="1"/>
        <pt x="684" y="1335" on="0"/>
        <pt x="692" y="1335" on="1"/>
        <pt x="712" y="1335" on="0"/>
        <pt x="742" y="1367" on="1"/>
        <pt x="783" y="1412" on="1"/>
        <pt x="866" y="1500" on="0"/>
        <pt x="918" y="1500" on="1"/>
        <pt x="955" y="1500" on="0"/>
        <pt x="1016" y="1462" on="1"/>
        <pt x="1078" y="1423" on="1"/>
        <pt x="1117" y="1398" on="0"/>
        <pt x="1144" y="1363" on="1"/>
        <pt x="1155" y="1374" on="0"/>
        <pt x="1167" y="1385" on="1"/>
        <pt x="1292" y="1500" on="0"/>
        <pt x="1462" y="1500" on="1"/>
        <pt x="1662" y="1500" on="0"/>
        <pt x="1912" y="1270" on="0"/>
        <pt x="1912" y="1150" on="1"/>
        <pt x="1912" y="0" on="1"/>
        <pt x="1724" y="0" on="1"/>
        <pt x="1724" y="1150" on="1"/>
        <pt x="1724" y="1228" on="0"/>
        <pt x="1568" y="1356" on="0"/>
        <pt x="1462" y="1356" on="1"/>
        <pt x="1366" y="1356" on="0"/>
        <pt x="1200" y="1228" on="0"/>
        <pt x="1200" y="1150" on="1"/>
      </contour>
    </TTGlyph>
    <TTGlyph name="uni178917C917B617C6" xMin="150" yMin="-1156" xMax="2624" yMax="2250">
      <contour>
        <pt x="2000" y="2025" on="1"/>
        <pt x="2000" y="1975" on="0"/>
        <pt x="2040" y="1925" on="0"/>
        <pt x="2080" y="1925" on="1"/>
        <pt x="2120" y="1925" on="0"/>
        <pt x="2160" y="1975" on="0"/>
        <pt x="2160" y="2025" on="1"/>
        <pt x="2160" y="2075" on="0"/>
        <pt x="2120" y="2125" on="0"/>
        <pt x="2080" y="2125" on="1"/>
        <pt x="2040" y="2125" on="0"/>
        <pt x="2000" y="2075" on="0"/>
      </contour>
      <contour>
        <pt x="2305" y="2025" on="1"/>
        <pt x="2305" y="1912" on="0"/>
        <pt x="2249" y="1856" on="1"/>
        <pt x="2193" y="1800" on="0"/>
        <pt x="2080" y="1800" on="1"/>
        <pt x="1967" y="1800" on="0"/>
        <pt x="1911" y="1856" on="1"/>
        <pt x="1855" y="1912" on="0"/>
        <pt x="1855" y="2025" on="1"/>
        <pt x="1855" y="2138" on="0"/>
        <pt x="1911" y="2194" on="1"/>
        <pt x="1967" y="2250" on="0"/>
        <pt x="2080" y="2250" on="1"/>
        <pt x="2193" y="2250" on="0"/>
        <pt x="2249" y="2194" on="1"/>
        <pt x="2305" y="2138" on="0"/>
      </contour>
      <contour>
        <pt x="1707" y="-1156" on="1"/>
        <pt x="1557" y="-1156" on="1"/>
        <pt x="1557" y="-773" on="1"/>
        <pt x="1507" y="-755" on="0"/>
        <pt x="1507" y="-693" on="1"/>
        <pt x="1507" y="-606" on="0"/>
        <pt x="1607" y="-606" on="1"/>
        <pt x="1707" y="-606" on="0"/>
        <pt x="1707" y="-693" on="1"/>
      </contour>
      <contour>
        <pt x="1615" y="-200" on="1"/>
        <pt x="1615" y="-150" on="0"/>
        <pt x="1645" y="-125" on="1"/>
        <pt x="1676" y="-100" on="0"/>
        <pt x="1739" y="-100" on="1"/>
        <pt x="1825" y="-100" on="0"/>
        <pt x="1868" y="-150" on="1"/>
        <pt x="1912" y="-200" on="0"/>
        <pt x="1912" y="-300" on="1"/>
        <pt x="1912" y="-450" on="0"/>
        <pt x="1698" y="-600" on="0"/>
        <pt x="1525" y="-600" on="1"/>
        <pt x="1390" y="-600" on="0"/>
        <pt x="1277" y="-562" on="1"/>
        <pt x="1166" y="-525" on="0"/>
        <pt x="1046" y="-437" on="1"/>
        <pt x="927" y="-350" on="0"/>
        <pt x="803" y="-300" on="1"/>
        <pt x="680" y="-250" on="0"/>
        <pt x="593" y="-250" on="1"/>
        <pt x="502" y="-250" on="0"/>
        <pt x="413" y="-272" on="1"/>
        <pt x="324" y="-295" on="0"/>
        <pt x="250" y="-340" on="1"/>
        <pt x="250" y="-280" on="0"/>
        <pt x="286" y="-237" on="1"/>
        <pt x="324" y="-195" on="0"/>
        <pt x="492" y="-100" on="0"/>
        <pt x="633" y="-100" on="1"/>
        <pt x="792" y="-100" on="0"/>
        <pt x="1048" y="-194" on="0"/>
        <pt x="1181" y="-291" on="1"/>
        <pt x="1313" y="-388" on="0"/>
        <pt x="1463" y="-466" on="0"/>
        <pt x="1545" y="-466" on="1"/>
        <pt x="1615" y="-466" on="0"/>
        <pt x="1724" y="-400" on="0"/>
        <pt x="1724" y="-300" on="1"/>
        <pt x="1724" y="-285" on="0"/>
        <pt x="1722" y="-273" on="1"/>
        <pt x="1707" y="-281" on="0"/>
        <pt x="1691" y="-281" on="1"/>
        <pt x="1672" y="-281" on="0"/>
        <pt x="1635" y="-259" on="0"/>
        <pt x="1615" y="-221" on="0"/>
      </contour>
      <contour>
        <pt x="438" y="222" on="1"/>
        <pt x="536" y="312" on="0"/>
        <pt x="536" y="389" on="1"/>
        <pt x="536" y="429" on="0"/>
        <pt x="509" y="448" on="1"/>
        <pt x="482" y="466" on="0"/>
        <pt x="438" y="466" on="1"/>
      </contour>
      <contour>
        <pt x="1907" y="1200" on="1"/>
        <pt x="1912" y="1175" on="0"/>
        <pt x="1912" y="1150" on="1"/>
        <pt x="1912" y="0" on="1"/>
        <pt x="1724" y="0" on="1"/>
        <pt x="1724" y="1150" on="1"/>
        <pt x="1724" y="1228" on="0"/>
        <pt x="1568" y="1356" on="0"/>
        <pt x="1462" y="1356" on="1"/>
        <pt x="1366" y="1356" on="0"/>
        <pt x="1200" y="1228" on="0"/>
        <pt x="1200" y="1150" on="1"/>
        <pt x="1200" y="0" on="1"/>
        <pt x="1012" y="0" on="1"/>
        <pt x="1012" y="1169" on="1"/>
        <pt x="1012" y="1245" on="0"/>
        <pt x="978" y="1266" on="1"/>
        <pt x="910" y="1307" on="1"/>
        <pt x="899" y="1313" on="0"/>
        <pt x="888" y="1313" on="1"/>
        <pt x="864" y="1313" on="0"/>
        <pt x="840" y="1285" on="1"/>
        <pt x="785" y="1225" on="1"/>
        <pt x="729" y="1165" on="0"/>
        <pt x="671" y="1165" on="1"/>
        <pt x="592" y="1166" on="0"/>
        <pt x="537" y="1215" on="1"/>
        <pt x="464" y="1283" on="1"/>
        <pt x="439" y="1307" on="0"/>
        <pt x="419" y="1307" on="1"/>
        <pt x="406" y="1307" on="0"/>
        <pt x="395" y="1298" on="1"/>
        <pt x="351" y="1260" on="1"/>
        <pt x="345" y="1254" on="0"/>
        <pt x="345" y="1245" on="1"/>
        <pt x="345" y="1211" on="0"/>
        <pt x="438" y="1134" on="1"/>
        <pt x="438" y="600" on="1"/>
        <pt x="583" y="600" on="0"/>
        <pt x="627" y="541" on="1"/>
        <pt x="670" y="481" on="0"/>
        <pt x="670" y="415" on="1"/>
        <pt x="670" y="337" on="0"/>
        <pt x="630" y="250" on="1"/>
        <pt x="590" y="162" on="0"/>
        <pt x="514" y="81" on="1"/>
        <pt x="438" y="0" on="1"/>
        <pt x="250" y="0" on="1"/>
        <pt x="250" y="1062" on="1"/>
        <pt x="150" y="1169" on="0"/>
        <pt x="150" y="1212" on="1"/>
        <pt x="150" y="1255" on="0"/>
        <pt x="283" y="1378" on="1"/>
        <pt x="415" y="1500" on="0"/>
        <pt x="461" y="1500" on="1"/>
        <pt x="509" y="1500" on="0"/>
        <pt x="604" y="1412" on="1"/>
        <pt x="678" y="1340" on="1"/>
        <pt x="684" y="1335" on="0"/>
        <pt x="692" y="1335" on="1"/>
        <pt x="712" y="1335" on="0"/>
        <pt x="742" y="1367" on="1"/>
        <pt x="783" y="1412" on="1"/>
        <pt x="866" y="1500" on="0"/>
        <pt x="918" y="1500" on="1"/>
        <pt x="955" y="1500" on="0"/>
        <pt x="1016" y="1462" on="1"/>
        <pt x="1078" y="1423" on="1"/>
        <pt x="1117" y="1398" on="0"/>
        <pt x="1144" y="1363" on="1"/>
        <pt x="1155" y="1374" on="0"/>
        <pt x="1167" y="1385" on="1"/>
        <pt x="1292" y="1500" on="0"/>
        <pt x="1462" y="1500" on="1"/>
        <pt x="1662" y="1500" on="0"/>
        <pt x="1787" y="1385" on="1"/>
        <pt x="1817" y="1358" on="0"/>
        <pt x="1839" y="1330" on="1"/>
        <pt x="1960" y="1413" on="1"/>
        <pt x="2088" y="1500" on="0"/>
        <pt x="2179" y="1500" on="1"/>
        <pt x="2268" y="1500" on="0"/>
        <pt x="2354" y="1433" on="1"/>
        <pt x="2546" y="1282" on="1"/>
        <pt x="2624" y="1223" on="0"/>
        <pt x="2624" y="1128" on="1"/>
        <pt x="2624" y="0" on="1"/>
        <pt x="2436" y="0" on="1"/>
        <pt x="2436" y="1128" on="1"/>
        <pt x="2199" y="1319" on="1"/>
        <pt x="2177" y="1336" on="0"/>
        <pt x="2149" y="1336" on="1"/>
        <pt x="2102" y="1336" on="0"/>
        <pt x="2039" y="1291" on="1"/>
        <pt x="1974" y="1246" on="1"/>
      </contour>
    </TTGlyph>
    <TTGlyph name="uni1789_17B6" xMin="150" yMin="-600" xMax="2624" yMax="1500">
      <contour>
        <pt x="1615" y="-200" on="1"/>
        <pt x="1615" y="-150" on="0"/>
        <pt x="1645" y="-125" on="1"/>
        <pt x="1676" y="-100" on="0"/>
        <pt x="1739" y="-100" on="1"/>
        <pt x="1825" y="-100" on="0"/>
        <pt x="1868" y="-150" on="1"/>
        <pt x="1912" y="-200" on="0"/>
        <pt x="1912" y="-300" on="1"/>
        <pt x="1912" y="-450" on="0"/>
        <pt x="1698" y="-600" on="0"/>
        <pt x="1525" y="-600" on="1"/>
        <pt x="1390" y="-600" on="0"/>
        <pt x="1277" y="-562" on="1"/>
        <pt x="1166" y="-525" on="0"/>
        <pt x="1046" y="-437" on="1"/>
        <pt x="927" y="-350" on="0"/>
        <pt x="803" y="-300" on="1"/>
        <pt x="680" y="-250" on="0"/>
        <pt x="593" y="-250" on="1"/>
        <pt x="502" y="-250" on="0"/>
        <pt x="413" y="-272" on="1"/>
        <pt x="324" y="-295" on="0"/>
        <pt x="250" y="-340" on="1"/>
        <pt x="250" y="-280" on="0"/>
        <pt x="286" y="-237" on="1"/>
        <pt x="324" y="-195" on="0"/>
        <pt x="492" y="-100" on="0"/>
        <pt x="633" y="-100" on="1"/>
        <pt x="792" y="-100" on="0"/>
        <pt x="1048" y="-194" on="0"/>
        <pt x="1181" y="-291" on="1"/>
        <pt x="1313" y="-388" on="0"/>
        <pt x="1463" y="-466" on="0"/>
        <pt x="1545" y="-466" on="1"/>
        <pt x="1615" y="-466" on="0"/>
        <pt x="1724" y="-400" on="0"/>
        <pt x="1724" y="-300" on="1"/>
        <pt x="1724" y="-285" on="0"/>
        <pt x="1722" y="-273" on="1"/>
        <pt x="1707" y="-281" on="0"/>
        <pt x="1691" y="-281" on="1"/>
        <pt x="1672" y="-281" on="0"/>
        <pt x="1635" y="-259" on="0"/>
        <pt x="1615" y="-221" on="0"/>
      </contour>
      <contour>
        <pt x="438" y="222" on="1"/>
        <pt x="536" y="312" on="0"/>
        <pt x="536" y="389" on="1"/>
        <pt x="536" y="429" on="0"/>
        <pt x="509" y="448" on="1"/>
        <pt x="482" y="466" on="0"/>
        <pt x="438" y="466" on="1"/>
      </contour>
      <contour>
        <pt x="1907" y="1200" on="1"/>
        <pt x="1912" y="1175" on="0"/>
        <pt x="1912" y="1150" on="1"/>
        <pt x="1912" y="0" on="1"/>
        <pt x="1724" y="0" on="1"/>
        <pt x="1724" y="1150" on="1"/>
        <pt x="1724" y="1228" on="0"/>
        <pt x="1568" y="1356" on="0"/>
        <pt x="1462" y="1356" on="1"/>
        <pt x="1366" y="1356" on="0"/>
        <pt x="1200" y="1228" on="0"/>
        <pt x="1200" y="1150" on="1"/>
        <pt x="1200" y="0" on="1"/>
        <pt x="1012" y="0" on="1"/>
        <pt x="1012" y="1169" on="1"/>
        <pt x="1012" y="1245" on="0"/>
        <pt x="978" y="1266" on="1"/>
        <pt x="910" y="1307" on="1"/>
        <pt x="899" y="1313" on="0"/>
        <pt x="888" y="1313" on="1"/>
        <pt x="864" y="1313" on="0"/>
        <pt x="840" y="1285" on="1"/>
        <pt x="785" y="1225" on="1"/>
        <pt x="729" y="1165" on="0"/>
        <pt x="671" y="1165" on="1"/>
        <pt x="592" y="1166" on="0"/>
        <pt x="537" y="1215" on="1"/>
        <pt x="464" y="1283" on="1"/>
        <pt x="439" y="1307" on="0"/>
        <pt x="419" y="1307" on="1"/>
        <pt x="406" y="1307" on="0"/>
        <pt x="395" y="1298" on="1"/>
        <pt x="351" y="1260" on="1"/>
        <pt x="345" y="1254" on="0"/>
        <pt x="345" y="1245" on="1"/>
        <pt x="345" y="1211" on="0"/>
        <pt x="438" y="1134" on="1"/>
        <pt x="438" y="600" on="1"/>
        <pt x="583" y="600" on="0"/>
        <pt x="627" y="541" on="1"/>
        <pt x="670" y="481" on="0"/>
        <pt x="670" y="415" on="1"/>
        <pt x="670" y="337" on="0"/>
        <pt x="630" y="250" on="1"/>
        <pt x="590" y="162" on="0"/>
        <pt x="514" y="81" on="1"/>
        <pt x="438" y="0" on="1"/>
        <pt x="250" y="0" on="1"/>
        <pt x="250" y="1062" on="1"/>
        <pt x="150" y="1169" on="0"/>
        <pt x="150" y="1212" on="1"/>
        <pt x="150" y="1255" on="0"/>
        <pt x="283" y="1378" on="1"/>
        <pt x="415" y="1500" on="0"/>
        <pt x="461" y="1500" on="1"/>
        <pt x="509" y="1500" on="0"/>
        <pt x="604" y="1412" on="1"/>
        <pt x="678" y="1340" on="1"/>
        <pt x="684" y="1335" on="0"/>
        <pt x="692" y="1335" on="1"/>
        <pt x="712" y="1335" on="0"/>
        <pt x="742" y="1367" on="1"/>
        <pt x="783" y="1412" on="1"/>
        <pt x="866" y="1500" on="0"/>
        <pt x="918" y="1500" on="1"/>
        <pt x="955" y="1500" on="0"/>
        <pt x="1016" y="1462" on="1"/>
        <pt x="1078" y="1423" on="1"/>
        <pt x="1117" y="1398" on="0"/>
        <pt x="1144" y="1363" on="1"/>
        <pt x="1155" y="1374" on="0"/>
        <pt x="1167" y="1385" on="1"/>
        <pt x="1292" y="1500" on="0"/>
        <pt x="1462" y="1500" on="1"/>
        <pt x="1662" y="1500" on="0"/>
        <pt x="1787" y="1385" on="1"/>
        <pt x="1817" y="1358" on="0"/>
        <pt x="1839" y="1330" on="1"/>
        <pt x="1960" y="1413" on="1"/>
        <pt x="2088" y="1500" on="0"/>
        <pt x="2179" y="1500" on="1"/>
        <pt x="2268" y="1500" on="0"/>
        <pt x="2354" y="1433" on="1"/>
        <pt x="2546" y="1282" on="1"/>
        <pt x="2624" y="1223" on="0"/>
        <pt x="2624" y="1128" on="1"/>
        <pt x="2624" y="0" on="1"/>
        <pt x="2436" y="0" on="1"/>
        <pt x="2436" y="1128" on="1"/>
        <pt x="2199" y="1319" on="1"/>
        <pt x="2177" y="1336" on="0"/>
        <pt x="2149" y="1336" on="1"/>
        <pt x="2102" y="1336" on="0"/>
        <pt x="2039" y="1291" on="1"/>
        <pt x="1974" y="1246" on="1"/>
      </contour>
    </TTGlyph>
    <TTGlyph name="uni1789_17B6.alt" xMin="150" yMin="0" xMax="2624" yMax="1500">
      <contour>
        <pt x="438" y="222" on="1"/>
        <pt x="536" y="312" on="0"/>
        <pt x="536" y="389" on="1"/>
        <pt x="536" y="429" on="0"/>
        <pt x="509" y="448" on="1"/>
        <pt x="482" y="466" on="0"/>
        <pt x="438" y="466" on="1"/>
      </contour>
      <contour>
        <pt x="1907" y="1200" on="1"/>
        <pt x="1912" y="1175" on="0"/>
        <pt x="1912" y="1150" on="1"/>
        <pt x="1912" y="0" on="1"/>
        <pt x="1724" y="0" on="1"/>
        <pt x="1724" y="1150" on="1"/>
        <pt x="1724" y="1228" on="0"/>
        <pt x="1568" y="1356" on="0"/>
        <pt x="1462" y="1356" on="1"/>
        <pt x="1366" y="1356" on="0"/>
        <pt x="1200" y="1228" on="0"/>
        <pt x="1200" y="1150" on="1"/>
        <pt x="1200" y="0" on="1"/>
        <pt x="1012" y="0" on="1"/>
        <pt x="1012" y="1169" on="1"/>
        <pt x="1012" y="1245" on="0"/>
        <pt x="978" y="1266" on="1"/>
        <pt x="910" y="1307" on="1"/>
        <pt x="899" y="1313" on="0"/>
        <pt x="888" y="1313" on="1"/>
        <pt x="864" y="1313" on="0"/>
        <pt x="840" y="1285" on="1"/>
        <pt x="785" y="1225" on="1"/>
        <pt x="729" y="1165" on="0"/>
        <pt x="671" y="1165" on="1"/>
        <pt x="592" y="1166" on="0"/>
        <pt x="537" y="1215" on="1"/>
        <pt x="464" y="1283" on="1"/>
        <pt x="439" y="1307" on="0"/>
        <pt x="419" y="1307" on="1"/>
        <pt x="406" y="1307" on="0"/>
        <pt x="395" y="1298" on="1"/>
        <pt x="351" y="1260" on="1"/>
        <pt x="345" y="1254" on="0"/>
        <pt x="345" y="1245" on="1"/>
        <pt x="345" y="1211" on="0"/>
        <pt x="438" y="1134" on="1"/>
        <pt x="438" y="600" on="1"/>
        <pt x="583" y="600" on="0"/>
        <pt x="627" y="541" on="1"/>
        <pt x="670" y="481" on="0"/>
        <pt x="670" y="415" on="1"/>
        <pt x="670" y="337" on="0"/>
        <pt x="630" y="250" on="1"/>
        <pt x="590" y="162" on="0"/>
        <pt x="514" y="81" on="1"/>
        <pt x="438" y="0" on="1"/>
        <pt x="250" y="0" on="1"/>
        <pt x="250" y="1062" on="1"/>
        <pt x="150" y="1169" on="0"/>
        <pt x="150" y="1212" on="1"/>
        <pt x="150" y="1255" on="0"/>
        <pt x="283" y="1378" on="1"/>
        <pt x="415" y="1500" on="0"/>
        <pt x="461" y="1500" on="1"/>
        <pt x="509" y="1500" on="0"/>
        <pt x="604" y="1412" on="1"/>
        <pt x="678" y="1340" on="1"/>
        <pt x="684" y="1335" on="0"/>
        <pt x="692" y="1335" on="1"/>
        <pt x="712" y="1335" on="0"/>
        <pt x="742" y="1367" on="1"/>
        <pt x="783" y="1412" on="1"/>
        <pt x="866" y="1500" on="0"/>
        <pt x="918" y="1500" on="1"/>
        <pt x="955" y="1500" on="0"/>
        <pt x="1016" y="1462" on="1"/>
        <pt x="1078" y="1423" on="1"/>
        <pt x="1117" y="1398" on="0"/>
        <pt x="1144" y="1363" on="1"/>
        <pt x="1155" y="1374" on="0"/>
        <pt x="1167" y="1385" on="1"/>
        <pt x="1292" y="1500" on="0"/>
        <pt x="1462" y="1500" on="1"/>
        <pt x="1662" y="1500" on="0"/>
        <pt x="1787" y="1385" on="1"/>
        <pt x="1817" y="1358" on="0"/>
        <pt x="1839" y="1330" on="1"/>
        <pt x="1960" y="1413" on="1"/>
        <pt x="2088" y="1500" on="0"/>
        <pt x="2179" y="1500" on="1"/>
        <pt x="2268" y="1500" on="0"/>
        <pt x="2354" y="1433" on="1"/>
        <pt x="2546" y="1282" on="1"/>
        <pt x="2624" y="1223" on="0"/>
        <pt x="2624" y="1128" on="1"/>
        <pt x="2624" y="0" on="1"/>
        <pt x="2436" y="0" on="1"/>
        <pt x="2436" y="1128" on="1"/>
        <pt x="2199" y="1319" on="1"/>
        <pt x="2177" y="1336" on="0"/>
        <pt x="2149" y="1336" on="1"/>
        <pt x="2102" y="1336" on="0"/>
        <pt x="2039" y="1291" on="1"/>
        <pt x="1974" y="1246" on="1"/>
      </contour>
    </TTGlyph>
    <TTGlyph name="uni1789_17B6.alt#1" xMin="150" yMin="0" xMax="2674" yMax="1900">
      <contour>
        <pt x="438" y="222" on="1"/>
        <pt x="536" y="312" on="0"/>
        <pt x="536" y="389" on="1"/>
        <pt x="536" y="429" on="0"/>
        <pt x="509" y="448" on="1"/>
        <pt x="482" y="466" on="0"/>
        <pt x="438" y="466" on="1"/>
      </contour>
      <contour>
        <pt x="2622" y="1157" on="1"/>
        <pt x="2624" y="1143" on="0"/>
        <pt x="2624" y="1128" on="1"/>
        <pt x="2624" y="0" on="1"/>
        <pt x="2436" y="0" on="1"/>
        <pt x="2436" y="1128" on="1"/>
        <pt x="2199" y="1319" on="1"/>
        <pt x="2177" y="1336" on="0"/>
        <pt x="2149" y="1336" on="1"/>
        <pt x="2102" y="1336" on="0"/>
        <pt x="2039" y="1291" on="1"/>
        <pt x="1974" y="1246" on="1"/>
        <pt x="1907" y="1200" on="1"/>
        <pt x="1912" y="1175" on="0"/>
        <pt x="1912" y="1150" on="1"/>
        <pt x="1912" y="0" on="1"/>
        <pt x="1724" y="0" on="1"/>
        <pt x="1724" y="1150" on="1"/>
        <pt x="1724" y="1228" on="0"/>
        <pt x="1568" y="1356" on="0"/>
        <pt x="1462" y="1356" on="1"/>
        <pt x="1366" y="1356" on="0"/>
        <pt x="1200" y="1228" on="0"/>
        <pt x="1200" y="1150" on="1"/>
        <pt x="1200" y="0" on="1"/>
        <pt x="1012" y="0" on="1"/>
        <pt x="1012" y="1169" on="1"/>
        <pt x="1012" y="1245" on="0"/>
        <pt x="978" y="1266" on="1"/>
        <pt x="910" y="1307" on="1"/>
        <pt x="899" y="1313" on="0"/>
        <pt x="888" y="1313" on="1"/>
        <pt x="864" y="1313" on="0"/>
        <pt x="840" y="1285" on="1"/>
        <pt x="785" y="1225" on="1"/>
        <pt x="729" y="1165" on="0"/>
        <pt x="671" y="1165" on="1"/>
        <pt x="592" y="1166" on="0"/>
        <pt x="537" y="1215" on="1"/>
        <pt x="464" y="1283" on="1"/>
        <pt x="439" y="1307" on="0"/>
        <pt x="419" y="1307" on="1"/>
        <pt x="406" y="1307" on="0"/>
        <pt x="395" y="1298" on="1"/>
        <pt x="351" y="1260" on="1"/>
        <pt x="345" y="1254" on="0"/>
        <pt x="345" y="1245" on="1"/>
        <pt x="345" y="1211" on="0"/>
        <pt x="438" y="1134" on="1"/>
        <pt x="438" y="600" on="1"/>
        <pt x="583" y="600" on="0"/>
        <pt x="627" y="541" on="1"/>
        <pt x="670" y="481" on="0"/>
        <pt x="670" y="415" on="1"/>
        <pt x="670" y="337" on="0"/>
        <pt x="630" y="250" on="1"/>
        <pt x="590" y="162" on="0"/>
        <pt x="514" y="81" on="1"/>
        <pt x="438" y="0" on="1"/>
        <pt x="250" y="0" on="1"/>
        <pt x="250" y="1062" on="1"/>
        <pt x="150" y="1169" on="0"/>
        <pt x="150" y="1212" on="1"/>
        <pt x="150" y="1255" on="0"/>
        <pt x="283" y="1378" on="1"/>
        <pt x="415" y="1500" on="0"/>
        <pt x="461" y="1500" on="1"/>
        <pt x="509" y="1500" on="0"/>
        <pt x="604" y="1412" on="1"/>
        <pt x="678" y="1340" on="1"/>
        <pt x="684" y="1335" on="0"/>
        <pt x="692" y="1335" on="1"/>
        <pt x="712" y="1335" on="0"/>
        <pt x="742" y="1367" on="1"/>
        <pt x="783" y="1412" on="1"/>
        <pt x="866" y="1500" on="0"/>
        <pt x="918" y="1500" on="1"/>
        <pt x="955" y="1500" on="0"/>
        <pt x="1016" y="1462" on="1"/>
        <pt x="1078" y="1423" on="1"/>
        <pt x="1117" y="1398" on="0"/>
        <pt x="1144" y="1363" on="1"/>
        <pt x="1155" y="1374" on="0"/>
        <pt x="1167" y="1385" on="1"/>
        <pt x="1292" y="1500" on="0"/>
        <pt x="1462" y="1500" on="1"/>
        <pt x="1662" y="1500" on="0"/>
        <pt x="1787" y="1385" on="1"/>
        <pt x="1817" y="1358" on="0"/>
        <pt x="1839" y="1330" on="1"/>
        <pt x="1960" y="1413" on="1"/>
        <pt x="2088" y="1500" on="0"/>
        <pt x="2179" y="1500" on="1"/>
        <pt x="2268" y="1500" on="0"/>
        <pt x="2354" y="1433" on="1"/>
        <pt x="2486" y="1329" on="1"/>
        <pt x="2486" y="1700" on="1"/>
        <pt x="2486" y="1800" on="0"/>
        <pt x="2386" y="1800" on="1"/>
        <pt x="2386" y="1900" on="0"/>
        <pt x="2511" y="1900" on="1"/>
        <pt x="2674" y="1900" on="0"/>
        <pt x="2674" y="1700" on="1"/>
        <pt x="2674" y="1300" on="1"/>
        <pt x="2674" y="1244" on="0"/>
      </contour>
    </TTGlyph>
    <TTGlyph name="uni1789_17C5" xMin="150" yMin="-600" xMax="2674" yMax="1900">
      <contour>
        <pt x="1615" y="-200" on="1"/>
        <pt x="1615" y="-150" on="0"/>
        <pt x="1645" y="-125" on="1"/>
        <pt x="1676" y="-100" on="0"/>
        <pt x="1739" y="-100" on="1"/>
        <pt x="1825" y="-100" on="0"/>
        <pt x="1868" y="-150" on="1"/>
        <pt x="1912" y="-200" on="0"/>
        <pt x="1912" y="-300" on="1"/>
        <pt x="1912" y="-450" on="0"/>
        <pt x="1698" y="-600" on="0"/>
        <pt x="1525" y="-600" on="1"/>
        <pt x="1390" y="-600" on="0"/>
        <pt x="1277" y="-562" on="1"/>
        <pt x="1166" y="-525" on="0"/>
        <pt x="1046" y="-437" on="1"/>
        <pt x="927" y="-350" on="0"/>
        <pt x="803" y="-300" on="1"/>
        <pt x="680" y="-250" on="0"/>
        <pt x="593" y="-250" on="1"/>
        <pt x="502" y="-250" on="0"/>
        <pt x="413" y="-272" on="1"/>
        <pt x="324" y="-295" on="0"/>
        <pt x="250" y="-340" on="1"/>
        <pt x="250" y="-280" on="0"/>
        <pt x="286" y="-237" on="1"/>
        <pt x="324" y="-195" on="0"/>
        <pt x="492" y="-100" on="0"/>
        <pt x="633" y="-100" on="1"/>
        <pt x="792" y="-100" on="0"/>
        <pt x="1048" y="-194" on="0"/>
        <pt x="1181" y="-291" on="1"/>
        <pt x="1313" y="-388" on="0"/>
        <pt x="1463" y="-466" on="0"/>
        <pt x="1545" y="-466" on="1"/>
        <pt x="1615" y="-466" on="0"/>
        <pt x="1724" y="-400" on="0"/>
        <pt x="1724" y="-300" on="1"/>
        <pt x="1724" y="-285" on="0"/>
        <pt x="1722" y="-273" on="1"/>
        <pt x="1707" y="-281" on="0"/>
        <pt x="1691" y="-281" on="1"/>
        <pt x="1672" y="-281" on="0"/>
        <pt x="1635" y="-259" on="0"/>
        <pt x="1615" y="-221" on="0"/>
      </contour>
      <contour>
        <pt x="438" y="222" on="1"/>
        <pt x="536" y="312" on="0"/>
        <pt x="536" y="389" on="1"/>
        <pt x="536" y="429" on="0"/>
        <pt x="509" y="448" on="1"/>
        <pt x="482" y="466" on="0"/>
        <pt x="438" y="466" on="1"/>
      </contour>
      <contour>
        <pt x="2622" y="1157" on="1"/>
        <pt x="2624" y="1143" on="0"/>
        <pt x="2624" y="1128" on="1"/>
        <pt x="2624" y="0" on="1"/>
        <pt x="2436" y="0" on="1"/>
        <pt x="2436" y="1128" on="1"/>
        <pt x="2199" y="1319" on="1"/>
        <pt x="2177" y="1336" on="0"/>
        <pt x="2149" y="1336" on="1"/>
        <pt x="2102" y="1336" on="0"/>
        <pt x="2039" y="1291" on="1"/>
        <pt x="1974" y="1246" on="1"/>
        <pt x="1907" y="1200" on="1"/>
        <pt x="1912" y="1175" on="0"/>
        <pt x="1912" y="1150" on="1"/>
        <pt x="1912" y="0" on="1"/>
        <pt x="1724" y="0" on="1"/>
        <pt x="1724" y="1150" on="1"/>
        <pt x="1724" y="1228" on="0"/>
        <pt x="1568" y="1356" on="0"/>
        <pt x="1462" y="1356" on="1"/>
        <pt x="1366" y="1356" on="0"/>
        <pt x="1200" y="1228" on="0"/>
        <pt x="1200" y="1150" on="1"/>
        <pt x="1200" y="0" on="1"/>
        <pt x="1012" y="0" on="1"/>
        <pt x="1012" y="1169" on="1"/>
        <pt x="1012" y="1245" on="0"/>
        <pt x="978" y="1266" on="1"/>
        <pt x="910" y="1307" on="1"/>
        <pt x="899" y="1313" on="0"/>
        <pt x="888" y="1313" on="1"/>
        <pt x="864" y="1313" on="0"/>
        <pt x="840" y="1285" on="1"/>
        <pt x="785" y="1225" on="1"/>
        <pt x="729" y="1165" on="0"/>
        <pt x="671" y="1165" on="1"/>
        <pt x="592" y="1166" on="0"/>
        <pt x="537" y="1215" on="1"/>
        <pt x="464" y="1283" on="1"/>
        <pt x="439" y="1307" on="0"/>
        <pt x="419" y="1307" on="1"/>
        <pt x="406" y="1307" on="0"/>
        <pt x="395" y="1298" on="1"/>
        <pt x="351" y="1260" on="1"/>
        <pt x="345" y="1254" on="0"/>
        <pt x="345" y="1245" on="1"/>
        <pt x="345" y="1211" on="0"/>
        <pt x="438" y="1134" on="1"/>
        <pt x="438" y="600" on="1"/>
        <pt x="583" y="600" on="0"/>
        <pt x="627" y="541" on="1"/>
        <pt x="670" y="481" on="0"/>
        <pt x="670" y="415" on="1"/>
        <pt x="670" y="337" on="0"/>
        <pt x="630" y="250" on="1"/>
        <pt x="590" y="162" on="0"/>
        <pt x="514" y="81" on="1"/>
        <pt x="438" y="0" on="1"/>
        <pt x="250" y="0" on="1"/>
        <pt x="250" y="1062" on="1"/>
        <pt x="150" y="1169" on="0"/>
        <pt x="150" y="1212" on="1"/>
        <pt x="150" y="1255" on="0"/>
        <pt x="283" y="1378" on="1"/>
        <pt x="415" y="1500" on="0"/>
        <pt x="461" y="1500" on="1"/>
        <pt x="509" y="1500" on="0"/>
        <pt x="604" y="1412" on="1"/>
        <pt x="678" y="1340" on="1"/>
        <pt x="684" y="1335" on="0"/>
        <pt x="692" y="1335" on="1"/>
        <pt x="712" y="1335" on="0"/>
        <pt x="742" y="1367" on="1"/>
        <pt x="783" y="1412" on="1"/>
        <pt x="866" y="1500" on="0"/>
        <pt x="918" y="1500" on="1"/>
        <pt x="955" y="1500" on="0"/>
        <pt x="1016" y="1462" on="1"/>
        <pt x="1078" y="1423" on="1"/>
        <pt x="1117" y="1398" on="0"/>
        <pt x="1144" y="1363" on="1"/>
        <pt x="1155" y="1374" on="0"/>
        <pt x="1167" y="1385" on="1"/>
        <pt x="1292" y="1500" on="0"/>
        <pt x="1462" y="1500" on="1"/>
        <pt x="1662" y="1500" on="0"/>
        <pt x="1787" y="1385" on="1"/>
        <pt x="1817" y="1358" on="0"/>
        <pt x="1839" y="1330" on="1"/>
        <pt x="1960" y="1413" on="1"/>
        <pt x="2088" y="1500" on="0"/>
        <pt x="2179" y="1500" on="1"/>
        <pt x="2268" y="1500" on="0"/>
        <pt x="2354" y="1433" on="1"/>
        <pt x="2486" y="1329" on="1"/>
        <pt x="2486" y="1700" on="1"/>
        <pt x="2486" y="1800" on="0"/>
        <pt x="2386" y="1800" on="1"/>
        <pt x="2386" y="1900" on="0"/>
        <pt x="2511" y="1900" on="1"/>
        <pt x="2674" y="1900" on="0"/>
        <pt x="2674" y="1700" on="1"/>
        <pt x="2674" y="1300" on="1"/>
        <pt x="2674" y="1244" on="0"/>
      </contour>
    </TTGlyph>
    <TTGlyph name="uni178A" xMin="250" yMin="0" xMax="1200" yMax="1700">
      <contour>
        <pt x="438" y="950" on="1"/>
        <pt x="438" y="186" on="1"/>
        <pt x="725" y="423" on="1"/>
        <pt x="1012" y="186" on="1"/>
        <pt x="1012" y="1000" on="1"/>
        <pt x="1200" y="1000" on="1"/>
        <pt x="1200" y="0" on="1"/>
        <pt x="1012" y="0" on="1"/>
        <pt x="725" y="236" on="1"/>
        <pt x="438" y="0" on="1"/>
        <pt x="250" y="0" on="1"/>
        <pt x="250" y="1020" on="1"/>
      </contour>
      <contour>
        <pt x="408" y="1314" on="1"/>
        <pt x="408" y="1285" on="0"/>
        <pt x="437" y="1264" on="1"/>
        <pt x="461" y="1264" on="1"/>
        <pt x="514" y="1264" on="0"/>
        <pt x="514" y="1314" on="1"/>
        <pt x="514" y="1338" on="0"/>
        <pt x="502" y="1350" on="1"/>
        <pt x="488" y="1364" on="0"/>
        <pt x="461" y="1364" on="1"/>
        <pt x="435" y="1364" on="0"/>
        <pt x="421" y="1351" on="1"/>
        <pt x="408" y="1339" on="0"/>
      </contour>
      <contour>
        <pt x="585" y="1221" on="1"/>
        <pt x="614" y="1218" on="0"/>
        <pt x="646" y="1216" on="1"/>
        <pt x="688" y="1214" on="0"/>
        <pt x="735" y="1214" on="1"/>
        <pt x="878" y="1214" on="0"/>
        <pt x="1012" y="1300" on="0"/>
        <pt x="1012" y="1376" on="1"/>
        <pt x="1012" y="1522" on="0"/>
        <pt x="900" y="1522" on="1"/>
        <pt x="800" y="1522" on="0"/>
        <pt x="800" y="1620" on="1"/>
        <pt x="800" y="1700" on="0"/>
        <pt x="900" y="1700" on="1"/>
        <pt x="1200" y="1700" on="0"/>
        <pt x="1200" y="1376" on="1"/>
        <pt x="1200" y="1268" on="0"/>
        <pt x="967" y="1070" on="0"/>
        <pt x="735" y="1070" on="1"/>
        <pt x="681" y="1070" on="0"/>
        <pt x="634" y="1072" on="1"/>
        <pt x="538" y="1077" on="1"/>
        <pt x="442" y="1082" on="0"/>
        <pt x="250" y="1201" on="0"/>
        <pt x="250" y="1310" on="1"/>
        <pt x="250" y="1393" on="0"/>
        <pt x="302" y="1447" on="1"/>
        <pt x="355" y="1500" on="0"/>
        <pt x="445" y="1500" on="1"/>
        <pt x="536" y="1500" on="0"/>
        <pt x="587" y="1457" on="1"/>
        <pt x="639" y="1414" on="0"/>
        <pt x="639" y="1339" on="1"/>
        <pt x="639" y="1264" on="0"/>
      </contour>
    </TTGlyph>
    <TTGlyph name="uni178A_17B6" xMin="250" yMin="0" xMax="1912" yMax="1700">
      <contour>
        <pt x="437" y="1264" on="1"/>
        <pt x="461" y="1264" on="1"/>
        <pt x="514" y="1264" on="0"/>
        <pt x="514" y="1314" on="1"/>
        <pt x="514" y="1338" on="0"/>
        <pt x="502" y="1350" on="1"/>
        <pt x="488" y="1364" on="0"/>
        <pt x="461" y="1364" on="1"/>
        <pt x="435" y="1364" on="0"/>
        <pt x="421" y="1351" on="1"/>
        <pt x="408" y="1339" on="0"/>
        <pt x="408" y="1314" on="1"/>
        <pt x="408" y="1285" on="0"/>
      </contour>
      <contour>
        <pt x="438" y="950" on="1"/>
        <pt x="438" y="186" on="1"/>
        <pt x="725" y="423" on="1"/>
        <pt x="1012" y="186" on="1"/>
        <pt x="1012" y="1000" on="1"/>
        <pt x="1200" y="1000" on="1"/>
        <pt x="1200" y="0" on="1"/>
        <pt x="1012" y="0" on="1"/>
        <pt x="725" y="236" on="1"/>
        <pt x="438" y="0" on="1"/>
        <pt x="250" y="0" on="1"/>
        <pt x="250" y="1020" on="1"/>
      </contour>
      <contour>
        <pt x="1124" y="1208" on="1"/>
        <pt x="1106" y="1188" on="0"/>
        <pt x="1084" y="1169" on="1"/>
        <pt x="967" y="1070" on="0"/>
        <pt x="735" y="1070" on="1"/>
        <pt x="681" y="1070" on="0"/>
        <pt x="634" y="1072" on="1"/>
        <pt x="538" y="1077" on="1"/>
        <pt x="442" y="1082" on="0"/>
        <pt x="250" y="1201" on="0"/>
        <pt x="250" y="1310" on="1"/>
        <pt x="250" y="1393" on="0"/>
        <pt x="302" y="1447" on="1"/>
        <pt x="355" y="1500" on="0"/>
        <pt x="445" y="1500" on="1"/>
        <pt x="536" y="1500" on="0"/>
        <pt x="587" y="1457" on="1"/>
        <pt x="639" y="1414" on="0"/>
        <pt x="639" y="1339" on="1"/>
        <pt x="639" y="1264" on="0"/>
        <pt x="585" y="1221" on="1"/>
        <pt x="614" y="1218" on="0"/>
        <pt x="646" y="1216" on="1"/>
        <pt x="688" y="1214" on="0"/>
        <pt x="735" y="1214" on="1"/>
        <pt x="878" y="1214" on="0"/>
        <pt x="1012" y="1300" on="0"/>
        <pt x="1012" y="1376" on="1"/>
        <pt x="1012" y="1522" on="0"/>
        <pt x="900" y="1522" on="1"/>
        <pt x="800" y="1522" on="0"/>
        <pt x="800" y="1620" on="1"/>
        <pt x="800" y="1700" on="0"/>
        <pt x="900" y="1700" on="1"/>
        <pt x="1182" y="1700" on="0"/>
        <pt x="1199" y="1413" on="1"/>
        <pt x="1255" y="1440" on="1"/>
        <pt x="1376" y="1500" on="0"/>
        <pt x="1467" y="1500" on="1"/>
        <pt x="1556" y="1500" on="0"/>
        <pt x="1642" y="1433" on="1"/>
        <pt x="1834" y="1282" on="1"/>
        <pt x="1912" y="1223" on="0"/>
        <pt x="1912" y="1128" on="1"/>
        <pt x="1912" y="0" on="1"/>
        <pt x="1724" y="0" on="1"/>
        <pt x="1724" y="1128" on="1"/>
        <pt x="1487" y="1319" on="1"/>
        <pt x="1467" y="1334" on="0"/>
        <pt x="1434" y="1334" on="1"/>
        <pt x="1372" y="1334" on="0"/>
        <pt x="1265" y="1280" on="1"/>
      </contour>
    </TTGlyph>
</ttFont>
